<svg xmlns="http://www.w3.org/2000/svg" xmlns:xlink="http://www.w3.org/1999/xlink" contentStyleType="text/css" height="1962px" preserveAspectRatio="none" style="width:397px;height:1962px;background:#FFFFFF;" version="1.1" viewBox="0 0 397 1962" width="397px" zoomAndPan="magnify"><defs/><g><ellipse cx="196.9775" cy="20" fill="#222222" rx="10" ry="10" style="stroke:#222222;stroke-width:1.0;"/><rect fill="#F1F1F1" height="33.9688" rx="12.5" ry="12.5" style="stroke:#181818;stroke-width:0.5;" width="249.8164" x="72.0693" y="50"/><text fill="#000000" font-family="sans-serif" font-size="12" lengthAdjust="spacing" textLength="229.8164" x="82.0693" y="71.1387">PLC stuurt Start Signaal naar Extruder</text><rect fill="#F1F1F1" height="33.9688" rx="12.5" ry="12.5" style="stroke:#181818;stroke-width:0.5;" width="183.2715" x="105.3418" y="152.3711"/><text fill="#000000" font-family="sans-serif" font-size="12" lengthAdjust="spacing" textLength="163.2715" x="115.3418" y="173.5098">PLC ontvangt 'Start' output</text><polygon fill="#F1F1F1" points="148.8552,103.9688,245.0999,103.9688,257.0999,115.9688,245.0999,127.9688,148.8552,127.9688,136.8552,115.9688,148.8552,103.9688" style="stroke:#181818;stroke-width:0.5;"/><text fill="#000000" font-family="sans-serif" font-size="11" lengthAdjust="spacing" textLength="9.9849" x="200.9775" y="138.1792">Ja</text><text fill="#000000" font-family="sans-serif" font-size="11" lengthAdjust="spacing" textLength="96.2446" x="148.8552" y="119.7769">Extruder gestart?</text><text fill="#000000" font-family="sans-serif" font-size="11" lengthAdjust="spacing" textLength="21.7637" x="257.0999" y="113.3745">Nee</text><ellipse cx="300.8635" cy="115.9688" fill="none" rx="11" ry="11" style="stroke:#222222;stroke-width:1.0;"/><ellipse cx="300.8635" cy="115.9688" fill="#222222" rx="6" ry="6" style="stroke:#222222;stroke-width:1.0;"/><rect fill="#F1F1F1" height="33.9688" rx="12.5" ry="12.5" style="stroke:#181818;stroke-width:0.5;" width="293.4102" x="50.2725" y="250.3398"/><text fill="#000000" font-family="sans-serif" font-size="12" lengthAdjust="spacing" textLength="273.4102" x="60.2725" y="271.4785">PLC wacht op fotocel van materiaal aanwezig</text><polygon fill="#F1F1F1" points="196.9775,206.3398,208.9775,218.3398,196.9775,230.3398,184.9775,218.3398,196.9775,206.3398" style="stroke:#181818;stroke-width:0.5;"/><polygon fill="#F1F1F1" points="153.6919,304.3086,240.2632,304.3086,252.2632,316.3086,240.2632,328.3086,153.6919,328.3086,141.6919,316.3086,153.6919,304.3086" style="stroke:#181818;stroke-width:0.5;"/><text fill="#000000" font-family="sans-serif" font-size="11" lengthAdjust="spacing" textLength="9.9849" x="200.9775" y="338.519">Ja</text><text fill="#000000" font-family="sans-serif" font-size="11" lengthAdjust="spacing" textLength="86.5713" x="153.6919" y="320.1167">Fotocel is True?</text><text fill="#000000" font-family="sans-serif" font-size="11" lengthAdjust="spacing" textLength="21.7637" x="252.2632" y="313.7144">Nee</text><rect fill="#F1F1F1" height="33.9688" rx="12.5" ry="12.5" style="stroke:#181818;stroke-width:0.5;" width="298.3262" x="47.8145" y="360.019"/><text fill="#000000" font-family="sans-serif" font-size="12" lengthAdjust="spacing" textLength="278.3262" x="57.8145" y="381.1577">PLC stuurt 'Pneumatisch Uit' naar Cutting Tool</text><rect fill="#F1F1F1" height="33.9688" rx="12.5" ry="12.5" style="stroke:#181818;stroke-width:0.5;" width="249.9336" x="72.0107" y="413.9878"/><text fill="#000000" font-family="sans-serif" font-size="12" lengthAdjust="spacing" textLength="229.9336" x="82.0107" y="435.1265">Cutting Tool sluit en snijdt deegstreng</text><rect fill="#F1F1F1" height="33.9688" rx="12.5" ry="12.5" style="stroke:#181818;stroke-width:0.5;" width="302.0234" x="45.9658" y="511.9565"/><text fill="#000000" font-family="sans-serif" font-size="12" lengthAdjust="spacing" textLength="282.0234" x="55.9658" y="533.0952">PLC wacht op Reedcontact van de Cutting Tool</text><polygon fill="#F1F1F1" points="196.9775,467.9565,208.9775,479.9565,196.9775,491.9565,184.9775,479.9565,196.9775,467.9565" style="stroke:#181818;stroke-width:0.5;"/><polygon fill="#F1F1F1" points="139.0154,565.9253,254.9397,565.9253,266.9397,577.9253,254.9397,589.9253,139.0154,589.9253,127.0154,577.9253,139.0154,565.9253" style="stroke:#181818;stroke-width:0.5;"/><text fill="#000000" font-family="sans-serif" font-size="11" lengthAdjust="spacing" textLength="9.9849" x="200.9775" y="600.1357">Ja</text><text fill="#000000" font-family="sans-serif" font-size="11" lengthAdjust="spacing" textLength="115.9243" x="139.0154" y="581.7334">Reedcontact is True?</text><text fill="#000000" font-family="sans-serif" font-size="11" lengthAdjust="spacing" textLength="21.7637" x="266.9397" y="575.3311">Nee</text><rect fill="#F1F1F1" height="33.9688" rx="12.5" ry="12.5" style="stroke:#181818;stroke-width:0.5;" width="292.6484" x="50.6533" y="621.6357"/><text fill="#000000" font-family="sans-serif" font-size="12" lengthAdjust="spacing" textLength="272.6484" x="60.6533" y="642.7744">PLC stuurt 'Pneumatisch In' naar Cutting Tool</text><rect fill="#F1F1F1" height="33.9688" rx="12.5" ry="12.5" style="stroke:#181818;stroke-width:0.5;" width="242.7793" x="75.5879" y="675.6045"/><text fill="#000000" font-family="sans-serif" font-size="12" lengthAdjust="spacing" textLength="222.7793" x="85.5879" y="696.7432">PLC stuurt 'Start' naar Lopende Band</text><rect fill="#F1F1F1" height="33.9688" rx="12.5" ry="12.5" style="stroke:#181818;stroke-width:0.5;" width="225.459" x="84.248" y="729.5732"/><text fill="#000000" font-family="sans-serif" font-size="12" lengthAdjust="spacing" textLength="205.459" x="94.248" y="750.7119">PLC stuurt 'Start' naar Kuka Robot</text><rect fill="#F1F1F1" height="33.9688" rx="12.5" ry="12.5" style="stroke:#181818;stroke-width:0.5;" width="325.4961" x="34.2295" y="827.542"/><text fill="#000000" font-family="sans-serif" font-size="12" lengthAdjust="spacing" textLength="305.4961" x="44.2295" y="848.6807">PLC wacht op Robot arm op positie bij Cutting Tool</text><polygon fill="#F1F1F1" points="196.9775,783.542,208.9775,795.542,196.9775,807.542,184.9775,795.542,196.9775,783.542" style="stroke:#181818;stroke-width:0.5;"/><polygon fill="#F1F1F1" points="92.8965,881.5107,301.0586,881.5107,313.0586,893.5107,301.0586,905.5107,92.8965,905.5107,80.8965,893.5107,92.8965,881.5107" style="stroke:#181818;stroke-width:0.5;"/><text fill="#000000" font-family="sans-serif" font-size="11" lengthAdjust="spacing" textLength="9.9849" x="200.9775" y="915.7212">Ja</text><text fill="#000000" font-family="sans-serif" font-size="11" lengthAdjust="spacing" textLength="208.1621" x="92.8965" y="897.3188">Robot arm op positie bij Cutting Tool?</text><text fill="#000000" font-family="sans-serif" font-size="11" lengthAdjust="spacing" textLength="21.7637" x="313.0586" y="890.9165">Nee</text><rect fill="#F1F1F1" height="33.9688" rx="12.5" ry="12.5" style="stroke:#181818;stroke-width:0.5;" width="295.209" x="49.373" y="937.2212"/><text fill="#000000" font-family="sans-serif" font-size="12" lengthAdjust="spacing" textLength="275.209" x="59.373" y="958.3599">PLC stuurt 'Pneumatisch Uit' naar Grijper Tool</text><rect fill="#F1F1F1" height="33.9688" rx="12.5" ry="12.5" style="stroke:#181818;stroke-width:0.5;" width="288.6348" x="52.6602" y="991.1899"/><text fill="#000000" font-family="sans-serif" font-size="12" lengthAdjust="spacing" textLength="268.6348" x="62.6602" y="1012.3286">Grijper Tool sluit en pakt de deegstreng vast</text><rect fill="#F1F1F1" height="33.9688" rx="12.5" ry="12.5" style="stroke:#181818;stroke-width:0.5;" width="304.4668" x="44.7441" y="1089.1587"/><text fill="#000000" font-family="sans-serif" font-size="12" lengthAdjust="spacing" textLength="284.4668" x="54.7441" y="1110.2974">PLC wacht op fotocel van deegstreng aanwezig</text><polygon fill="#F1F1F1" points="196.9775,1045.1587,208.9775,1057.1587,196.9775,1069.1587,184.9775,1057.1587,196.9775,1045.1587" style="stroke:#181818;stroke-width:0.5;"/><polygon fill="#F1F1F1" points="153.6919,1143.1274,240.2632,1143.1274,252.2632,1155.1274,240.2632,1167.1274,153.6919,1167.1274,141.6919,1155.1274,153.6919,1143.1274" style="stroke:#181818;stroke-width:0.5;"/><text fill="#000000" font-family="sans-serif" font-size="11" lengthAdjust="spacing" textLength="9.9849" x="200.9775" y="1177.3379">Ja</text><text fill="#000000" font-family="sans-serif" font-size="11" lengthAdjust="spacing" textLength="86.5713" x="153.6919" y="1158.9355">Fotocel is True?</text><text fill="#000000" font-family="sans-serif" font-size="11" lengthAdjust="spacing" textLength="21.7637" x="252.2632" y="1152.5332">Nee</text><rect fill="#F1F1F1" height="33.9688" rx="12.5" ry="12.5" style="stroke:#181818;stroke-width:0.5;" width="335.7559" x="29.0996" y="1198.8379"/><text fill="#000000" font-family="sans-serif" font-size="12" lengthAdjust="spacing" textLength="315.7559" x="39.0996" y="1219.9766">PLC stuurt 'Robot arm naar matrijs' naar Kuka Robot</text><rect fill="#F1F1F1" height="33.9688" rx="12.5" ry="12.5" style="stroke:#181818;stroke-width:0.5;" width="290.6387" x="51.6582" y="1296.8066"/><text fill="#000000" font-family="sans-serif" font-size="12" lengthAdjust="spacing" textLength="270.6387" x="61.6582" y="1317.9453">PLC wacht op Robot arm op positie in matrijs</text><polygon fill="#F1F1F1" points="196.9775,1252.8066,208.9775,1264.8066,196.9775,1276.8066,184.9775,1264.8066,196.9775,1252.8066" style="stroke:#181818;stroke-width:0.5;"/><polygon fill="#F1F1F1" points="108.8728,1350.7754,285.0823,1350.7754,297.0823,1362.7754,285.0823,1374.7754,108.8728,1374.7754,96.8728,1362.7754,108.8728,1350.7754" style="stroke:#181818;stroke-width:0.5;"/><text fill="#000000" font-family="sans-serif" font-size="11" lengthAdjust="spacing" textLength="9.9849" x="200.9775" y="1384.9858">Ja</text><text fill="#000000" font-family="sans-serif" font-size="11" lengthAdjust="spacing" textLength="176.2095" x="108.8728" y="1366.5835">Robot arm op positie in matrijs?</text><text fill="#000000" font-family="sans-serif" font-size="11" lengthAdjust="spacing" textLength="21.7637" x="297.0823" y="1360.1812">Nee</text><rect fill="#F1F1F1" height="33.9688" rx="12.5" ry="12.5" style="stroke:#181818;stroke-width:0.5;" width="290.9023" x="51.5264" y="1406.4858"/><text fill="#000000" font-family="sans-serif" font-size="12" lengthAdjust="spacing" textLength="270.9023" x="61.5264" y="1427.6245">PLC stuurt 'Pneumatisch IN' naar Grijper Tool</text><rect fill="#F1F1F1" height="33.9688" rx="12.5" ry="12.5" style="stroke:#181818;stroke-width:0.5;" width="285.6934" x="54.1309" y="1460.4546"/><text fill="#000000" font-family="sans-serif" font-size="12" lengthAdjust="spacing" textLength="265.6934" x="64.1309" y="1481.5933">Grijper Tool opent en laat de deegstreng los</text><rect fill="#F1F1F1" height="33.9688" rx="12.5" ry="12.5" style="stroke:#181818;stroke-width:0.5;" width="293.7324" x="50.1113" y="1558.4233"/><text fill="#000000" font-family="sans-serif" font-size="12" lengthAdjust="spacing" textLength="273.7324" x="60.1113" y="1579.562">PLC wacht op fotocel van deegstreng afwezig</text><polygon fill="#F1F1F1" points="196.9775,1514.4233,208.9775,1526.4233,196.9775,1538.4233,184.9775,1526.4233,196.9775,1514.4233" style="stroke:#181818;stroke-width:0.5;"/><polygon fill="#F1F1F1" points="151.8711,1612.3921,242.084,1612.3921,254.084,1624.3921,242.084,1636.3921,151.8711,1636.3921,139.8711,1624.3921,151.8711,1612.3921" style="stroke:#181818;stroke-width:0.5;"/><text fill="#000000" font-family="sans-serif" font-size="11" lengthAdjust="spacing" textLength="9.9849" x="200.9775" y="1646.6025">Ja</text><text fill="#000000" font-family="sans-serif" font-size="11" lengthAdjust="spacing" textLength="90.2129" x="151.8711" y="1628.2002">Fotocel is False?</text><text fill="#000000" font-family="sans-serif" font-size="11" lengthAdjust="spacing" textLength="21.7637" x="254.084" y="1621.7979">Nee</text><rect fill="#F1F1F1" height="33.9688" rx="12.5" ry="12.5" style="stroke:#181818;stroke-width:0.5;" width="371.9551" x="11" y="1668.1025"/><text fill="#000000" font-family="sans-serif" font-size="12" lengthAdjust="spacing" textLength="351.9551" x="21" y="1689.2412">PLC stuurt 'Robot arm naar home positie' naar Kuka Robot</text><rect fill="#F1F1F1" height="33.9688" rx="12.5" ry="12.5" style="stroke:#181818;stroke-width:0.5;" width="268.3027" x="62.8262" y="1766.0713"/><text fill="#000000" font-family="sans-serif" font-size="12" lengthAdjust="spacing" textLength="248.3027" x="72.8262" y="1787.21">PLC wacht op Robot arm op home positie</text><polygon fill="#F1F1F1" points="196.9775,1722.0713,208.9775,1734.0713,196.9775,1746.0713,184.9775,1734.0713,196.9775,1722.0713" style="stroke:#181818;stroke-width:0.5;"/><polygon fill="#F1F1F1" points="119.1101,1820.04,274.845,1820.04,286.845,1832.04,274.845,1844.04,119.1101,1844.04,107.1101,1832.04,119.1101,1820.04" style="stroke:#181818;stroke-width:0.5;"/><text fill="#000000" font-family="sans-serif" font-size="11" lengthAdjust="spacing" textLength="9.9849" x="200.9775" y="1854.2505">Ja</text><text fill="#000000" font-family="sans-serif" font-size="11" lengthAdjust="spacing" textLength="155.7349" x="119.1101" y="1835.8481">Robot arm op home positie?</text><text fill="#000000" font-family="sans-serif" font-size="11" lengthAdjust="spacing" textLength="21.7637" x="286.845" y="1829.4458">Nee</text><rect fill="#F1F1F1" height="33.9688" rx="12.5" ry="12.5" style="stroke:#181818;stroke-width:0.5;" width="274.6484" x="59.6533" y="1875.7505"/><text fill="#000000" font-family="sans-serif" font-size="12" lengthAdjust="spacing" textLength="254.6484" x="69.6533" y="1896.8892">PLC stuurt 'Matrijs sluiten' naar Engel Pers</text><ellipse cx="196.9775" cy="1940.7192" fill="none" rx="11" ry="11" style="stroke:#222222;stroke-width:1.0;"/><ellipse cx="196.9775" cy="1940.7192" fill="#222222" rx="6" ry="6" style="stroke:#222222;stroke-width:1.0;"/><line style="stroke:#181818;stroke-width:1.0;" x1="196.9775" x2="196.9775" y1="30" y2="50"/><polygon fill="#181818" points="192.9775,40,196.9775,50,200.9775,40,196.9775,44" style="stroke:#181818;stroke-width:1.0;"/><line style="stroke:#181818;stroke-width:1.0;" x1="196.9775" x2="196.9775" y1="127.9688" y2="152.3711"/><polygon fill="#181818" points="192.9775,142.3711,196.9775,152.3711,200.9775,142.3711,196.9775,146.3711" style="stroke:#181818;stroke-width:1.0;"/><line style="stroke:#181818;stroke-width:1.0;" x1="257.0999" x2="289.8635" y1="115.9688" y2="115.9688"/><polygon fill="#181818" points="279.8635,111.9688,289.8635,115.9688,279.8635,119.9688,283.8635,115.9688" style="stroke:#181818;stroke-width:1.0;"/><line style="stroke:#181818;stroke-width:1.0;" x1="196.9775" x2="196.9775" y1="186.3398" y2="206.3398"/><polygon fill="#181818" points="192.9775,196.3398,196.9775,206.3398,200.9775,196.3398,196.9775,200.3398" style="stroke:#181818;stroke-width:1.0;"/><line style="stroke:#181818;stroke-width:1.0;" x1="196.9775" x2="196.9775" y1="83.9688" y2="103.9688"/><polygon fill="#181818" points="192.9775,93.9688,196.9775,103.9688,200.9775,93.9688,196.9775,97.9688" style="stroke:#181818;stroke-width:1.0;"/><line style="stroke:#181818;stroke-width:1.0;" x1="196.9775" x2="196.9775" y1="230.3398" y2="250.3398"/><polygon fill="#181818" points="192.9775,240.3398,196.9775,250.3398,200.9775,240.3398,196.9775,244.3398" style="stroke:#181818;stroke-width:1.0;"/><line style="stroke:#181818;stroke-width:1.0;" x1="252.2632" x2="355.6826" y1="316.3086" y2="316.3086"/><polygon fill="#181818" points="351.6826,277.3242,355.6826,267.3242,359.6826,277.3242,355.6826,273.3242" style="stroke:#181818;stroke-width:1.0;"/><line style="stroke:#181818;stroke-width:1.0;" x1="355.6826" x2="355.6826" y1="218.3398" y2="316.3086"/><line style="stroke:#181818;stroke-width:1.0;" x1="355.6826" x2="208.9775" y1="218.3398" y2="218.3398"/><polygon fill="#181818" points="218.9775,214.3398,208.9775,218.3398,218.9775,222.3398,214.9775,218.3398" style="stroke:#181818;stroke-width:1.0;"/><line style="stroke:#181818;stroke-width:1.0;" x1="196.9775" x2="196.9775" y1="284.3086" y2="304.3086"/><polygon fill="#181818" points="192.9775,294.3086,196.9775,304.3086,200.9775,294.3086,196.9775,298.3086" style="stroke:#181818;stroke-width:1.0;"/><line style="stroke:#181818;stroke-width:1.0;" x1="196.9775" x2="196.9775" y1="328.3086" y2="360.019"/><polygon fill="#181818" points="192.9775,350.019,196.9775,360.019,200.9775,350.019,196.9775,354.019" style="stroke:#181818;stroke-width:1.0;"/><line style="stroke:#181818;stroke-width:1.0;" x1="196.9775" x2="196.9775" y1="393.9878" y2="413.9878"/><polygon fill="#181818" points="192.9775,403.9878,196.9775,413.9878,200.9775,403.9878,196.9775,407.9878" style="stroke:#181818;stroke-width:1.0;"/><line style="stroke:#181818;stroke-width:1.0;" x1="196.9775" x2="196.9775" y1="491.9565" y2="511.9565"/><polygon fill="#181818" points="192.9775,501.9565,196.9775,511.9565,200.9775,501.9565,196.9775,505.9565" style="stroke:#181818;stroke-width:1.0;"/><line style="stroke:#181818;stroke-width:1.0;" x1="266.9397" x2="359.9893" y1="577.9253" y2="577.9253"/><polygon fill="#181818" points="355.9893,538.9409,359.9893,528.9409,363.9893,538.9409,359.9893,534.9409" style="stroke:#181818;stroke-width:1.0;"/><line style="stroke:#181818;stroke-width:1.0;" x1="359.9893" x2="359.9893" y1="479.9565" y2="577.9253"/><line style="stroke:#181818;stroke-width:1.0;" x1="359.9893" x2="208.9775" y1="479.9565" y2="479.9565"/><polygon fill="#181818" points="218.9775,475.9565,208.9775,479.9565,218.9775,483.9565,214.9775,479.9565" style="stroke:#181818;stroke-width:1.0;"/><line style="stroke:#181818;stroke-width:1.0;" x1="196.9775" x2="196.9775" y1="545.9253" y2="565.9253"/><polygon fill="#181818" points="192.9775,555.9253,196.9775,565.9253,200.9775,555.9253,196.9775,559.9253" style="stroke:#181818;stroke-width:1.0;"/><line style="stroke:#181818;stroke-width:1.0;" x1="196.9775" x2="196.9775" y1="447.9565" y2="467.9565"/><polygon fill="#181818" points="192.9775,457.9565,196.9775,467.9565,200.9775,457.9565,196.9775,461.9565" style="stroke:#181818;stroke-width:1.0;"/><line style="stroke:#181818;stroke-width:1.0;" x1="196.9775" x2="196.9775" y1="589.9253" y2="621.6357"/><polygon fill="#181818" points="192.9775,611.6357,196.9775,621.6357,200.9775,611.6357,196.9775,615.6357" style="stroke:#181818;stroke-width:1.0;"/><line style="stroke:#181818;stroke-width:1.0;" x1="196.9775" x2="196.9775" y1="655.6045" y2="675.6045"/><polygon fill="#181818" points="192.9775,665.6045,196.9775,675.6045,200.9775,665.6045,196.9775,669.6045" style="stroke:#181818;stroke-width:1.0;"/><line style="stroke:#181818;stroke-width:1.0;" x1="196.9775" x2="196.9775" y1="709.5732" y2="729.5732"/><polygon fill="#181818" points="192.9775,719.5732,196.9775,729.5732,200.9775,719.5732,196.9775,723.5732" style="stroke:#181818;stroke-width:1.0;"/><line style="stroke:#181818;stroke-width:1.0;" x1="196.9775" x2="196.9775" y1="807.542" y2="827.542"/><polygon fill="#181818" points="192.9775,817.542,196.9775,827.542,200.9775,817.542,196.9775,821.542" style="stroke:#181818;stroke-width:1.0;"/><line style="stroke:#181818;stroke-width:1.0;" x1="313.0586" x2="371.7256" y1="893.5107" y2="893.5107"/><polygon fill="#181818" points="367.7256,854.5264,371.7256,844.5264,375.7256,854.5264,371.7256,850.5264" style="stroke:#181818;stroke-width:1.0;"/><line style="stroke:#181818;stroke-width:1.0;" x1="371.7256" x2="371.7256" y1="795.542" y2="893.5107"/><line style="stroke:#181818;stroke-width:1.0;" x1="371.7256" x2="208.9775" y1="795.542" y2="795.542"/><polygon fill="#181818" points="218.9775,791.542,208.9775,795.542,218.9775,799.542,214.9775,795.542" style="stroke:#181818;stroke-width:1.0;"/><line style="stroke:#181818;stroke-width:1.0;" x1="196.9775" x2="196.9775" y1="861.5107" y2="881.5107"/><polygon fill="#181818" points="192.9775,871.5107,196.9775,881.5107,200.9775,871.5107,196.9775,875.5107" style="stroke:#181818;stroke-width:1.0;"/><line style="stroke:#181818;stroke-width:1.0;" x1="196.9775" x2="196.9775" y1="763.542" y2="783.542"/><polygon fill="#181818" points="192.9775,773.542,196.9775,783.542,200.9775,773.542,196.9775,777.542" style="stroke:#181818;stroke-width:1.0;"/><line style="stroke:#181818;stroke-width:1.0;" x1="196.9775" x2="196.9775" y1="905.5107" y2="937.2212"/><polygon fill="#181818" points="192.9775,927.2212,196.9775,937.2212,200.9775,927.2212,196.9775,931.2212" style="stroke:#181818;stroke-width:1.0;"/><line style="stroke:#181818;stroke-width:1.0;" x1="196.9775" x2="196.9775" y1="971.1899" y2="991.1899"/><polygon fill="#181818" points="192.9775,981.1899,196.9775,991.1899,200.9775,981.1899,196.9775,985.1899" style="stroke:#181818;stroke-width:1.0;"/><line style="stroke:#181818;stroke-width:1.0;" x1="196.9775" x2="196.9775" y1="1069.1587" y2="1089.1587"/><polygon fill="#181818" points="192.9775,1079.1587,196.9775,1089.1587,200.9775,1079.1587,196.9775,1083.1587" style="stroke:#181818;stroke-width:1.0;"/><line style="stroke:#181818;stroke-width:1.0;" x1="252.2632" x2="361.2109" y1="1155.1274" y2="1155.1274"/><polygon fill="#181818" points="357.2109,1116.1431,361.2109,1106.1431,365.2109,1116.1431,361.2109,1112.1431" style="stroke:#181818;stroke-width:1.0;"/><line style="stroke:#181818;stroke-width:1.0;" x1="361.2109" x2="361.2109" y1="1057.1587" y2="1155.1274"/><line style="stroke:#181818;stroke-width:1.0;" x1="361.2109" x2="208.9775" y1="1057.1587" y2="1057.1587"/><polygon fill="#181818" points="218.9775,1053.1587,208.9775,1057.1587,218.9775,1061.1587,214.9775,1057.1587" style="stroke:#181818;stroke-width:1.0;"/><line style="stroke:#181818;stroke-width:1.0;" x1="196.9775" x2="196.9775" y1="1123.1274" y2="1143.1274"/><polygon fill="#181818" points="192.9775,1133.1274,196.9775,1143.1274,200.9775,1133.1274,196.9775,1137.1274" style="stroke:#181818;stroke-width:1.0;"/><line style="stroke:#181818;stroke-width:1.0;" x1="196.9775" x2="196.9775" y1="1025.1587" y2="1045.1587"/><polygon fill="#181818" points="192.9775,1035.1587,196.9775,1045.1587,200.9775,1035.1587,196.9775,1039.1587" style="stroke:#181818;stroke-width:1.0;"/><line style="stroke:#181818;stroke-width:1.0;" x1="196.9775" x2="196.9775" y1="1167.1274" y2="1198.8379"/><polygon fill="#181818" points="192.9775,1188.8379,196.9775,1198.8379,200.9775,1188.8379,196.9775,1192.8379" style="stroke:#181818;stroke-width:1.0;"/><line style="stroke:#181818;stroke-width:1.0;" x1="196.9775" x2="196.9775" y1="1276.8066" y2="1296.8066"/><polygon fill="#181818" points="192.9775,1286.8066,196.9775,1296.8066,200.9775,1286.8066,196.9775,1290.8066" style="stroke:#181818;stroke-width:1.0;"/><line style="stroke:#181818;stroke-width:1.0;" x1="297.0823" x2="354.2969" y1="1362.7754" y2="1362.7754"/><polygon fill="#181818" points="350.2969,1323.791,354.2969,1313.791,358.2969,1323.791,354.2969,1319.791" style="stroke:#181818;stroke-width:1.0;"/><line style="stroke:#181818;stroke-width:1.0;" x1="354.2969" x2="354.2969" y1="1264.8066" y2="1362.7754"/><line style="stroke:#181818;stroke-width:1.0;" x1="354.2969" x2="208.9775" y1="1264.8066" y2="1264.8066"/><polygon fill="#181818" points="218.9775,1260.8066,208.9775,1264.8066,218.9775,1268.8066,214.9775,1264.8066" style="stroke:#181818;stroke-width:1.0;"/><line style="stroke:#181818;stroke-width:1.0;" x1="196.9775" x2="196.9775" y1="1330.7754" y2="1350.7754"/><polygon fill="#181818" points="192.9775,1340.7754,196.9775,1350.7754,200.9775,1340.7754,196.9775,1344.7754" style="stroke:#181818;stroke-width:1.0;"/><line style="stroke:#181818;stroke-width:1.0;" x1="196.9775" x2="196.9775" y1="1232.8066" y2="1252.8066"/><polygon fill="#181818" points="192.9775,1242.8066,196.9775,1252.8066,200.9775,1242.8066,196.9775,1246.8066" style="stroke:#181818;stroke-width:1.0;"/><line style="stroke:#181818;stroke-width:1.0;" x1="196.9775" x2="196.9775" y1="1374.7754" y2="1406.4858"/><polygon fill="#181818" points="192.9775,1396.4858,196.9775,1406.4858,200.9775,1396.4858,196.9775,1400.4858" style="stroke:#181818;stroke-width:1.0;"/><line style="stroke:#181818;stroke-width:1.0;" x1="196.9775" x2="196.9775" y1="1440.4546" y2="1460.4546"/><polygon fill="#181818" points="192.9775,1450.4546,196.9775,1460.4546,200.9775,1450.4546,196.9775,1454.4546" style="stroke:#181818;stroke-width:1.0;"/><line style="stroke:#181818;stroke-width:1.0;" x1="196.9775" x2="196.9775" y1="1538.4233" y2="1558.4233"/><polygon fill="#181818" points="192.9775,1548.4233,196.9775,1558.4233,200.9775,1548.4233,196.9775,1552.4233" style="stroke:#181818;stroke-width:1.0;"/><line style="stroke:#181818;stroke-width:1.0;" x1="254.084" x2="355.8438" y1="1624.3921" y2="1624.3921"/><polygon fill="#181818" points="351.8438,1585.4077,355.8438,1575.4077,359.8438,1585.4077,355.8438,1581.4077" style="stroke:#181818;stroke-width:1.0;"/><line style="stroke:#181818;stroke-width:1.0;" x1="355.8438" x2="355.8438" y1="1526.4233" y2="1624.3921"/><line style="stroke:#181818;stroke-width:1.0;" x1="355.8438" x2="208.9775" y1="1526.4233" y2="1526.4233"/><polygon fill="#181818" points="218.9775,1522.4233,208.9775,1526.4233,218.9775,1530.4233,214.9775,1526.4233" style="stroke:#181818;stroke-width:1.0;"/><line style="stroke:#181818;stroke-width:1.0;" x1="196.9775" x2="196.9775" y1="1592.3921" y2="1612.3921"/><polygon fill="#181818" points="192.9775,1602.3921,196.9775,1612.3921,200.9775,1602.3921,196.9775,1606.3921" style="stroke:#181818;stroke-width:1.0;"/><line style="stroke:#181818;stroke-width:1.0;" x1="196.9775" x2="196.9775" y1="1494.4233" y2="1514.4233"/><polygon fill="#181818" points="192.9775,1504.4233,196.9775,1514.4233,200.9775,1504.4233,196.9775,1508.4233" style="stroke:#181818;stroke-width:1.0;"/><line style="stroke:#181818;stroke-width:1.0;" x1="196.9775" x2="196.9775" y1="1636.3921" y2="1668.1025"/><polygon fill="#181818" points="192.9775,1658.1025,196.9775,1668.1025,200.9775,1658.1025,196.9775,1662.1025" style="stroke:#181818;stroke-width:1.0;"/><line style="stroke:#181818;stroke-width:1.0;" x1="196.9775" x2="196.9775" y1="1746.0713" y2="1766.0713"/><polygon fill="#181818" points="192.9775,1756.0713,196.9775,1766.0713,200.9775,1756.0713,196.9775,1760.0713" style="stroke:#181818;stroke-width:1.0;"/><line style="stroke:#181818;stroke-width:1.0;" x1="286.845" x2="343.1289" y1="1832.04" y2="1832.04"/><polygon fill="#181818" points="339.1289,1793.0557,343.1289,1783.0557,347.1289,1793.0557,343.1289,1789.0557" style="stroke:#181818;stroke-width:1.0;"/><line style="stroke:#181818;stroke-width:1.0;" x1="343.1289" x2="343.1289" y1="1734.0713" y2="1832.04"/><line style="stroke:#181818;stroke-width:1.0;" x1="343.1289" x2="208.9775" y1="1734.0713" y2="1734.0713"/><polygon fill="#181818" points="218.9775,1730.0713,208.9775,1734.0713,218.9775,1738.0713,214.9775,1734.0713" style="stroke:#181818;stroke-width:1.0;"/><line style="stroke:#181818;stroke-width:1.0;" x1="196.9775" x2="196.9775" y1="1800.04" y2="1820.04"/><polygon fill="#181818" points="192.9775,1810.04,196.9775,1820.04,200.9775,1810.04,196.9775,1814.04" style="stroke:#181818;stroke-width:1.0;"/><line style="stroke:#181818;stroke-width:1.0;" x1="196.9775" x2="196.9775" y1="1702.0713" y2="1722.0713"/><polygon fill="#181818" points="192.9775,1712.0713,196.9775,1722.0713,200.9775,1712.0713,196.9775,1716.0713" style="stroke:#181818;stroke-width:1.0;"/><line style="stroke:#181818;stroke-width:1.0;" x1="196.9775" x2="196.9775" y1="1844.04" y2="1875.7505"/><polygon fill="#181818" points="192.9775,1865.7505,196.9775,1875.7505,200.9775,1865.7505,196.9775,1869.7505" style="stroke:#181818;stroke-width:1.0;"/><line style="stroke:#181818;stroke-width:1.0;" x1="196.9775" x2="196.9775" y1="1909.7192" y2="1929.7192"/><polygon fill="#181818" points="192.9775,1919.7192,196.9775,1929.7192,200.9775,1919.7192,196.9775,1923.7192" style="stroke:#181818;stroke-width:1.0;"/><!--SRC=[jPJRJiCm38RlynI-stW5Ue440iHH4uS7CAtNUdH9bJWCyVIusKhBQPGXUb6rgUtu_pytGT2BCVkpooC84gCNk6sNu9PBYrY3tZmSFukF1VdCy1octHkK5DhOWpsGYYnCpt7FW5wfchFoXBOKcAI24t1HcYYPeJeGJA-9ri51N6F85ZmtnbD3A7sD5UQLW6jWxiJbL8DMX2KAUMvxGxGhUk4oIndhP5XLN6lzaqq61xZpaRH7VKgxWdNIz_gsrqRzP6OfwXOSyWhkMVjE3Xn54RObt3bNPttYS1b27Lb0ZGYM5uL0GLG6yMIrmM-LtH0LkNg5kIHr1NsnrtjfmvG_oJkpszKDypOGK_YbQnGOmI7QOaJuHNn4k74FJhRvq7u7zClsfN61XGaUUF6p6sCI_uh_rFEYqOd_OD1mkSVVu6CBVy1VoGOL3wFcUv3sBmFU6vQagLXL4JwpskIQNp9ZsvNiQ6ybrOVlECFNlq3Kpcr2L2D-H5GxRNW7HFCnX4vG3xsT4LLkIPrXNtBQrlSxruULVloPXi7ZUxzQqrp_3jITCCUsL2Tcv4C6fZtoNm40]--></g></svg>