<svg xmlns="http://www.w3.org/2000/svg" xmlns:xlink="http://www.w3.org/1999/xlink" contentStyleType="text/css" height="414px" preserveAspectRatio="none" style="width:1270px;height:414px;background:#FFFFFF;" version="1.1" viewBox="0 0 1270 414" width="1270px" zoomAndPan="magnify"><defs/><g><!--class PLC--><g id="elem_PLC"><rect codeLine="1" fill="#F1F1F1" height="227.2656" id="PLC" rx="2.5" ry="2.5" style="stroke:#181818;stroke-width:0.5;" width="203.5908" x="512.19" y="7"/><ellipse cx="596.7266" cy="23" fill="#ADD1B2" rx="11" ry="11" style="stroke:#181818;stroke-width:1.0;"/><path d="M599.6954,28.6406 Q599.1172,28.9375 598.4766,29.0781 Q597.836,29.2344 597.1329,29.2344 Q594.6329,29.2344 593.3047,27.5938 Q591.9922,25.9375 591.9922,22.8125 Q591.9922,19.6875 593.3047,18.0313 Q594.6329,16.375 597.1329,16.375 Q597.836,16.375 598.4766,16.5313 Q599.1329,16.6875 599.6954,16.9844 L599.6954,19.7031 Q599.0704,19.125 598.4766,18.8594 Q597.8829,18.5781 597.2579,18.5781 Q595.9141,18.5781 595.2266,19.6563 Q594.5391,20.7188 594.5391,22.8125 Q594.5391,24.9063 595.2266,25.9844 Q595.9141,27.0469 597.2579,27.0469 Q597.8829,27.0469 598.4766,26.7813 Q599.0704,26.5 599.6954,25.9219 L599.6954,28.6406 Z " fill="#000000"/><text fill="#000000" font-family="sans-serif" font-size="14" lengthAdjust="spacing" textLength="26.0176" x="617.2266" y="27.8467">PLC</text><line style="stroke:#181818;stroke-width:0.5;" x1="513.19" x2="714.7808" y1="39" y2="39"/><line style="stroke:#181818;stroke-width:0.5;" x1="513.19" x2="714.7808" y1="47" y2="47"/><ellipse cx="523.19" cy="60.6484" fill="#84BE84" rx="3" ry="3" style="stroke:#038048;stroke-width:1.0;"/><text fill="#000000" font-family="sans-serif" font-size="14" lengthAdjust="spacing" textLength="95.1152" x="532.19" y="63.9951">startSignaal()</text><ellipse cx="523.19" cy="76.9453" fill="#84BE84" rx="3" ry="3" style="stroke:#038048;stroke-width:1.0;"/><text fill="#000000" font-family="sans-serif" font-size="14" lengthAdjust="spacing" textLength="151.3066" x="532.19" y="80.292">ontvangStartOutput()</text><ellipse cx="523.19" cy="93.2422" fill="#84BE84" rx="3" ry="3" style="stroke:#038048;stroke-width:1.0;"/><text fill="#000000" font-family="sans-serif" font-size="14" lengthAdjust="spacing" textLength="150.4727" x="532.19" y="96.5889">stuurPneumatischIn()</text><ellipse cx="523.19" cy="109.5391" fill="#84BE84" rx="3" ry="3" style="stroke:#038048;stroke-width:1.0;"/><text fill="#000000" font-family="sans-serif" font-size="14" lengthAdjust="spacing" textLength="157.0967" x="532.19" y="112.8857">stuurPneumatischUit()</text><ellipse cx="523.19" cy="125.8359" fill="#84BE84" rx="3" ry="3" style="stroke:#038048;stroke-width:1.0;"/><text fill="#000000" font-family="sans-serif" font-size="14" lengthAdjust="spacing" textLength="177.5908" x="532.19" y="129.1826">stuurStartLopendeBand()</text><ellipse cx="523.19" cy="142.1328" fill="#84BE84" rx="3" ry="3" style="stroke:#038048;stroke-width:1.0;"/><text fill="#000000" font-family="sans-serif" font-size="14" lengthAdjust="spacing" textLength="157.3838" x="532.19" y="145.4795">stuurStartKukaRobot()</text><ellipse cx="523.19" cy="158.4297" fill="#84BE84" rx="3" ry="3" style="stroke:#038048;stroke-width:1.0;"/><text fill="#000000" font-family="sans-serif" font-size="14" lengthAdjust="spacing" textLength="142.7002" x="532.19" y="161.7764">stuurMatrijsSluiten()</text><ellipse cx="523.19" cy="174.7266" fill="#84BE84" rx="3" ry="3" style="stroke:#038048;stroke-width:1.0;"/><text fill="#000000" font-family="sans-serif" font-size="14" lengthAdjust="spacing" textLength="123.792" x="532.19" y="178.0732">wachtOpFotocel()</text><ellipse cx="523.19" cy="191.0234" fill="#84BE84" rx="3" ry="3" style="stroke:#038048;stroke-width:1.0;"/><text fill="#000000" font-family="sans-serif" font-size="14" lengthAdjust="spacing" textLength="161.1504" x="532.19" y="194.3701">wachtOpReedcontact()</text><ellipse cx="523.19" cy="207.3203" fill="#84BE84" rx="3" ry="3" style="stroke:#038048;stroke-width:1.0;"/><text fill="#000000" font-family="sans-serif" font-size="14" lengthAdjust="spacing" textLength="160.3369" x="532.19" y="210.667">wachtOpRobotPositie()</text><ellipse cx="523.19" cy="223.6172" fill="#84BE84" rx="3" ry="3" style="stroke:#038048;stroke-width:1.0;"/><text fill="#000000" font-family="sans-serif" font-size="14" lengthAdjust="spacing" textLength="160.6855" x="532.19" y="226.9639">wachtOpFotocelDeeg()</text></g><!--class Extruder--><g id="elem_Extruder"><rect codeLine="15" fill="#F1F1F1" height="96.8906" id="Extruder" rx="2.5" ry="2.5" style="stroke:#181818;stroke-width:0.5;" width="141.9648" x="7" y="302.41"/><ellipse cx="44.257" cy="318.41" fill="#ADD1B2" rx="11" ry="11" style="stroke:#181818;stroke-width:1.0;"/><path d="M47.2257,324.0506 Q46.6476,324.3475 46.007,324.4881 Q45.3664,324.6444 44.6632,324.6444 Q42.1632,324.6444 40.8351,323.0037 Q39.5226,321.3475 39.5226,318.2225 Q39.5226,315.0975 40.8351,313.4412 Q42.1632,311.785 44.6632,311.785 Q45.3664,311.785 46.007,311.9412 Q46.6632,312.0975 47.2257,312.3944 L47.2257,315.1131 Q46.6007,314.535 46.007,314.2694 Q45.4132,313.9881 44.7882,313.9881 Q43.4445,313.9881 42.757,315.0662 Q42.0695,316.1287 42.0695,318.2225 Q42.0695,320.3162 42.757,321.3944 Q43.4445,322.4569 44.7882,322.4569 Q45.4132,322.4569 46.007,322.1912 Q46.6007,321.91 47.2257,321.3319 L47.2257,324.0506 Z " fill="#000000"/><text fill="#000000" font-family="sans-serif" font-size="14" lengthAdjust="spacing" textLength="60.5049" x="63.203" y="323.2567">Extruder</text><line style="stroke:#181818;stroke-width:0.5;" x1="8" x2="147.9648" y1="334.41" y2="334.41"/><ellipse cx="18" cy="348.0584" fill="none" rx="3" ry="3" style="stroke:#038048;stroke-width:1.0;"/><text fill="#000000" font-family="sans-serif" font-size="14" lengthAdjust="spacing" textLength="115.9648" x="27" y="351.4051">gestart: Boolean</text><line style="stroke:#181818;stroke-width:0.5;" x1="8" x2="147.9648" y1="358.7069" y2="358.7069"/><ellipse cx="18" cy="372.3553" fill="#84BE84" rx="3" ry="3" style="stroke:#038048;stroke-width:1.0;"/><text fill="#000000" font-family="sans-serif" font-size="14" lengthAdjust="spacing" textLength="43.5313" x="27" y="375.702">start()</text><ellipse cx="18" cy="388.6522" fill="#84BE84" rx="3" ry="3" style="stroke:#038048;stroke-width:1.0;"/><text fill="#000000" font-family="sans-serif" font-size="14" lengthAdjust="spacing" textLength="41.1592" x="27" y="391.9989">stop()</text></g><!--class CuttingTool--><g id="elem_CuttingTool"><rect codeLine="21" fill="#F1F1F1" height="96.8906" id="CuttingTool" rx="2.5" ry="2.5" style="stroke:#181818;stroke-width:0.5;" width="207.9111" x="184.03" y="302.41"/><ellipse cx="243.3113" cy="318.41" fill="#ADD1B2" rx="11" ry="11" style="stroke:#181818;stroke-width:1.0;"/><path d="M246.28,324.0506 Q245.7019,324.3475 245.0613,324.4881 Q244.4206,324.6444 243.7175,324.6444 Q241.2175,324.6444 239.8894,323.0037 Q238.5769,321.3475 238.5769,318.2225 Q238.5769,315.0975 239.8894,313.4412 Q241.2175,311.785 243.7175,311.785 Q244.4206,311.785 245.0613,311.9412 Q245.7175,312.0975 246.28,312.3944 L246.28,315.1131 Q245.655,314.535 245.0613,314.2694 Q244.4675,313.9881 243.8425,313.9881 Q242.4988,313.9881 241.8113,315.0662 Q241.1238,316.1287 241.1238,318.2225 Q241.1238,320.3162 241.8113,321.3944 Q242.4988,322.4569 243.8425,322.4569 Q244.4675,322.4569 245.0613,322.1912 Q245.655,321.91 246.28,321.3319 L246.28,324.0506 Z " fill="#000000"/><text fill="#000000" font-family="sans-serif" font-size="14" lengthAdjust="spacing" textLength="80.8486" x="263.8113" y="323.2567">CuttingTool</text><line style="stroke:#181818;stroke-width:0.5;" x1="185.03" x2="390.9411" y1="334.41" y2="334.41"/><ellipse cx="195.03" cy="348.0584" fill="none" rx="3" ry="3" style="stroke:#038048;stroke-width:1.0;"/><text fill="#000000" font-family="sans-serif" font-size="14" lengthAdjust="spacing" textLength="181.9111" x="204.03" y="351.4051">reedcontactTrue: Boolean</text><line style="stroke:#181818;stroke-width:0.5;" x1="185.03" x2="390.9411" y1="358.7069" y2="358.7069"/><ellipse cx="195.03" cy="372.3553" fill="#84BE84" rx="3" ry="3" style="stroke:#038048;stroke-width:1.0;"/><text fill="#000000" font-family="sans-serif" font-size="14" lengthAdjust="spacing" textLength="40.3594" x="204.03" y="375.702">sluit()</text><ellipse cx="195.03" cy="388.6522" fill="#84BE84" rx="3" ry="3" style="stroke:#038048;stroke-width:1.0;"/><text fill="#000000" font-family="sans-serif" font-size="14" lengthAdjust="spacing" textLength="125.5625" x="204.03" y="391.9989">snijdDeegstreng()</text></g><!--class GrijperTool--><g id="elem_GrijperTool"><rect codeLine="27" fill="#F1F1F1" height="113.1875" id="GrijperTool" rx="2.5" ry="2.5" style="stroke:#181818;stroke-width:0.5;" width="147.2559" x="427.35" y="294.26"/><ellipse cx="459.4698" cy="310.26" fill="#ADD1B2" rx="11" ry="11" style="stroke:#181818;stroke-width:1.0;"/><path d="M462.4385,315.9006 Q461.8604,316.1975 461.2198,316.3381 Q460.5792,316.4944 459.876,316.4944 Q457.376,316.4944 456.0479,314.8538 Q454.7354,313.1975 454.7354,310.0725 Q454.7354,306.9475 456.0479,305.2913 Q457.376,303.635 459.876,303.635 Q460.5792,303.635 461.2198,303.7913 Q461.876,303.9475 462.4385,304.2444 L462.4385,306.9631 Q461.8135,306.385 461.2198,306.1194 Q460.626,305.8381 460.001,305.8381 Q458.6573,305.8381 457.9698,306.9163 Q457.2823,307.9788 457.2823,310.0725 Q457.2823,312.1663 457.9698,313.2444 Q458.6573,314.3069 460.001,314.3069 Q460.626,314.3069 461.2198,314.0413 Q461.8135,313.76 462.4385,313.1819 L462.4385,315.9006 Z " fill="#000000"/><text fill="#000000" font-family="sans-serif" font-size="14" lengthAdjust="spacing" textLength="77.2119" x="477.2742" y="315.1067">GrijperTool</text><line style="stroke:#181818;stroke-width:0.5;" x1="428.35" x2="573.6059" y1="326.26" y2="326.26"/><line style="stroke:#181818;stroke-width:0.5;" x1="428.35" x2="573.6059" y1="334.26" y2="334.26"/><ellipse cx="438.35" cy="347.9084" fill="#84BE84" rx="3" ry="3" style="stroke:#038048;stroke-width:1.0;"/><text fill="#000000" font-family="sans-serif" font-size="14" lengthAdjust="spacing" textLength="40.3594" x="447.35" y="351.2551">sluit()</text><ellipse cx="438.35" cy="364.2053" fill="#84BE84" rx="3" ry="3" style="stroke:#038048;stroke-width:1.0;"/><text fill="#000000" font-family="sans-serif" font-size="14" lengthAdjust="spacing" textLength="45.8623" x="447.35" y="367.552">open()</text><ellipse cx="438.35" cy="380.5022" fill="#84BE84" rx="3" ry="3" style="stroke:#038048;stroke-width:1.0;"/><text fill="#000000" font-family="sans-serif" font-size="14" lengthAdjust="spacing" textLength="114.6318" x="447.35" y="383.8489">pneumatischIn()</text><ellipse cx="438.35" cy="396.7991" fill="#84BE84" rx="3" ry="3" style="stroke:#038048;stroke-width:1.0;"/><text fill="#000000" font-family="sans-serif" font-size="14" lengthAdjust="spacing" textLength="121.2559" x="447.35" y="400.1457">pneumatischUit()</text></g><!--class KukaRobot--><g id="elem_KukaRobot"><rect codeLine="34" fill="#F1F1F1" height="96.8906" id="KukaRobot" rx="2.5" ry="2.5" style="stroke:#181818;stroke-width:0.5;" width="235.5078" x="609.23" y="302.41"/><ellipse cx="684.7466" cy="318.41" fill="#ADD1B2" rx="11" ry="11" style="stroke:#181818;stroke-width:1.0;"/><path d="M687.7154,324.0506 Q687.1372,324.3475 686.4966,324.4881 Q685.856,324.6444 685.1529,324.6444 Q682.6529,324.6444 681.3247,323.0037 Q680.0122,321.3475 680.0122,318.2225 Q680.0122,315.0975 681.3247,313.4412 Q682.6529,311.785 685.1529,311.785 Q685.856,311.785 686.4966,311.9412 Q687.1529,312.0975 687.7154,312.3944 L687.7154,315.1131 Q687.0904,314.535 686.4966,314.2694 Q685.9029,313.9881 685.2779,313.9881 Q683.9341,313.9881 683.2466,315.0662 Q682.5591,316.1287 682.5591,318.2225 Q682.5591,320.3162 683.2466,321.3944 Q683.9341,322.4569 685.2779,322.4569 Q685.9029,322.4569 686.4966,322.1912 Q687.0904,321.91 687.7154,321.3319 L687.7154,324.0506 Z " fill="#000000"/><text fill="#000000" font-family="sans-serif" font-size="14" lengthAdjust="spacing" textLength="75.9746" x="705.2466" y="323.2567">KukaRobot</text><line style="stroke:#181818;stroke-width:0.5;" x1="610.23" x2="843.7378" y1="334.41" y2="334.41"/><line style="stroke:#181818;stroke-width:0.5;" x1="610.23" x2="843.7378" y1="342.41" y2="342.41"/><ellipse cx="620.23" cy="356.0584" fill="#84BE84" rx="3" ry="3" style="stroke:#038048;stroke-width:1.0;"/><text fill="#000000" font-family="sans-serif" font-size="14" lengthAdjust="spacing" textLength="163.4131" x="629.23" y="359.4051">gaNaarPositie(position)</text><ellipse cx="620.23" cy="372.3553" fill="#84BE84" rx="3" ry="3" style="stroke:#038048;stroke-width:1.0;"/><text fill="#000000" font-family="sans-serif" font-size="14" lengthAdjust="spacing" textLength="149.3037" x="629.23" y="375.702">gaNaarHomePositie()</text><ellipse cx="620.23" cy="388.6522" fill="#84BE84" rx="3" ry="3" style="stroke:#038048;stroke-width:1.0;"/><text fill="#000000" font-family="sans-serif" font-size="14" lengthAdjust="spacing" textLength="209.5078" x="629.23" y="391.9989">isOpPositie(position): Boolean</text></g><!--class EngelPers--><g id="elem_EngelPers"><rect codeLine="40" fill="#F1F1F1" height="64.2969" id="EngelPers" rx="2.5" ry="2.5" style="stroke:#181818;stroke-width:0.5;" width="113.3359" x="879.31" y="318.71"/><ellipse cx="899.7649" cy="334.71" fill="#ADD1B2" rx="11" ry="11" style="stroke:#181818;stroke-width:1.0;"/><path d="M902.7337,340.3506 Q902.1556,340.6475 901.5149,340.7881 Q900.8743,340.9444 900.1712,340.9444 Q897.6712,340.9444 896.3431,339.3038 Q895.0306,337.6475 895.0306,334.5225 Q895.0306,331.3975 896.3431,329.7413 Q897.6712,328.085 900.1712,328.085 Q900.8743,328.085 901.5149,328.2413 Q902.1712,328.3975 902.7337,328.6944 L902.7337,331.4131 Q902.1087,330.835 901.5149,330.5694 Q900.9212,330.2881 900.2962,330.2881 Q898.9524,330.2881 898.2649,331.3663 Q897.5774,332.4288 897.5774,334.5225 Q897.5774,336.6163 898.2649,337.6944 Q898.9524,338.7569 900.2962,338.7569 Q900.9212,338.7569 901.5149,338.4913 Q902.1087,338.21 902.7337,337.6319 L902.7337,340.3506 Z " fill="#000000"/><text fill="#000000" font-family="sans-serif" font-size="14" lengthAdjust="spacing" textLength="69.2139" x="914.9771" y="339.5567">EngelPers</text><line style="stroke:#181818;stroke-width:0.5;" x1="880.31" x2="991.6459" y1="350.71" y2="350.71"/><line style="stroke:#181818;stroke-width:0.5;" x1="880.31" x2="991.6459" y1="358.71" y2="358.71"/><ellipse cx="890.31" cy="372.3584" fill="#84BE84" rx="3" ry="3" style="stroke:#038048;stroke-width:1.0;"/><text fill="#000000" font-family="sans-serif" font-size="14" lengthAdjust="spacing" textLength="87.3359" x="899.31" y="375.7051">sluitMatrijs()</text></g><!--class Fotocel--><g id="elem_Fotocel"><rect codeLine="44" fill="#F1F1F1" height="64.2969" id="Fotocel" rx="2.5" ry="2.5" style="stroke:#181818;stroke-width:0.5;" width="236.0068" x="1027.98" y="318.71"/><ellipse cx="1116.2969" cy="334.71" fill="#ADD1B2" rx="11" ry="11" style="stroke:#181818;stroke-width:1.0;"/><path d="M1119.2656,340.3506 Q1118.6875,340.6475 1118.0469,340.7881 Q1117.4063,340.9444 1116.7031,340.9444 Q1114.2031,340.9444 1112.875,339.3038 Q1111.5625,337.6475 1111.5625,334.5225 Q1111.5625,331.3975 1112.875,329.7413 Q1114.2031,328.085 1116.7031,328.085 Q1117.4063,328.085 1118.0469,328.2413 Q1118.7031,328.3975 1119.2656,328.6944 L1119.2656,331.4131 Q1118.6406,330.835 1118.0469,330.5694 Q1117.4531,330.2881 1116.8281,330.2881 Q1115.4844,330.2881 1114.7969,331.3663 Q1114.1094,332.4288 1114.1094,334.5225 Q1114.1094,336.6163 1114.7969,337.6944 Q1115.4844,338.7569 1116.8281,338.7569 Q1117.4531,338.7569 1118.0469,338.4913 Q1118.6406,338.21 1119.2656,337.6319 L1119.2656,340.3506 Z " fill="#000000"/><text fill="#000000" font-family="sans-serif" font-size="14" lengthAdjust="spacing" textLength="50.873" x="1136.7969" y="339.5567">Fotocel</text><line style="stroke:#181818;stroke-width:0.5;" x1="1028.98" x2="1262.9868" y1="350.71" y2="350.71"/><line style="stroke:#181818;stroke-width:0.5;" x1="1028.98" x2="1262.9868" y1="358.71" y2="358.71"/><ellipse cx="1038.98" cy="372.3584" fill="#84BE84" rx="3" ry="3" style="stroke:#038048;stroke-width:1.0;"/><text fill="#000000" font-family="sans-serif" font-size="14" lengthAdjust="spacing" textLength="210.0068" x="1047.98" y="375.7051">detecteerMateriaal(): Boolean</text></g><!--link PLC to Extruder--><g id="link_PLC_Extruder"><path codeLine="48" d="M511.77,154.89 C419.61,186.32 281.4,237.08 166.98,294.26 C161.12,297.19 155.14,300.4 149.2,303.75 " fill="none" id="PLC-Extruder" style="stroke:#181818;stroke-width:1.0;"/><text fill="#000000" font-family="sans-serif" font-size="13" lengthAdjust="spacing" textLength="8.271" x="495.9798" y="153.9268">1</text><text fill="#000000" font-family="sans-serif" font-size="13" lengthAdjust="spacing" textLength="8.271" x="156.9708" y="295.1926">1</text></g><!--link PLC to CuttingTool--><g id="link_PLC_CuttingTool"><path codeLine="49" d="M511.73,193.22 C461.12,228.64 401.41,270.45 356.4,301.96 " fill="none" id="PLC-CuttingTool" style="stroke:#181818;stroke-width:1.0;"/><text fill="#000000" font-family="sans-serif" font-size="13" lengthAdjust="spacing" textLength="8.271" x="495.9368" y="195.0716">1</text><text fill="#000000" font-family="sans-serif" font-size="13" lengthAdjust="spacing" textLength="8.271" x="357.0739" y="291.4577">1</text></g><!--link PLC to GrijperTool--><g id="link_PLC_GrijperTool"><path codeLine="50" d="M557.98,234.74 C547.77,255.36 537.53,276.03 528.61,294.05 " fill="none" id="PLC-GrijperTool" style="stroke:#181818;stroke-width:1.0;"/><text fill="#000000" font-family="sans-serif" font-size="13" lengthAdjust="spacing" textLength="8.271" x="546.3317" y="254.2214">1</text><text fill="#000000" font-family="sans-serif" font-size="13" lengthAdjust="spacing" textLength="8.271" x="523.5067" y="283.288">1</text></g><!--link PLC to KukaRobot--><g id="link_PLC_KukaRobot"><path codeLine="51" d="M669.99,234.74 C681.75,258.5 693.55,282.32 703.33,302.08 " fill="none" id="PLC-KukaRobot" style="stroke:#181818;stroke-width:1.0;"/><text fill="#000000" font-family="sans-serif" font-size="13" lengthAdjust="spacing" textLength="8.271" x="665.1673" y="254.2214">1</text><text fill="#000000" font-family="sans-serif" font-size="13" lengthAdjust="spacing" textLength="8.271" x="691.4602" y="291.2425">1</text></g><!--link PLC to EngelPers--><g id="link_PLC_EngelPers"><path codeLine="52" d="M716.22,191.57 C761.19,222.65 814.48,259.9 861.98,294.26 C872.66,301.98 884.09,310.46 894.69,318.42 " fill="none" id="PLC-EngelPers" style="stroke:#181818;stroke-width:1.0;"/><text fill="#000000" font-family="sans-serif" font-size="13" lengthAdjust="spacing" textLength="8.271" x="723.6991" y="193.102">1</text><text fill="#000000" font-family="sans-serif" font-size="13" lengthAdjust="spacing" textLength="8.271" x="877.8006" y="307.6371">1</text></g><!--link PLC to Fotocel--><g id="link_PLC_Fotocel"><path codeLine="53" d="M716.24,165.5 C820.52,210.24 979.75,278.54 1072.29,318.24 " fill="none" id="PLC-Fotocel" style="stroke:#181818;stroke-width:1.0;"/><text fill="#000000" font-family="sans-serif" font-size="13" lengthAdjust="spacing" textLength="8.271" x="723.7206" y="165.1989">1</text><text fill="#000000" font-family="sans-serif" font-size="13" lengthAdjust="spacing" textLength="23.0356" x="1033.0534" y="307.672">1..*</text></g><!--SRC=[TLBBRi8m4Bpp5H6dqWgaNdk4FbLQ8g0Vi7LMnZIiBNlTLghwxurJR183kJZQySvwPbRKu5nHpcV5pw1elYl7O7cb907K5wF_cYR-19Ah02qy6yyHSUozBGdz3bWviNcYSyYRwZUrP7Dja2gS0bN7uBF_WAL-r_s-5s2hjcvLUyMOfds1sF32t6lM0kkikaIiHAC11ET8e2-rKwpmDDKjecoGty50j4xTVRFr5TfebyJMi9jYgdMDG1qJ3y_MfainyyoAvBffIAO7DUa-gMqLvZgsI3AMxK75sdeyJ4p43uqn1krPuc1s_3UdCZDvN8awPP5qmok0ZTQPzjGqweAFUeUPjyejp57F2ILt9B4kqRgUZdtqtNVjKuhNAcGKZ1Ys1ArgLxX77nPzU3qinkFsY6dczKv4ETGnEOUIIKTZefm-C9bS3gE2Fm00]--></g></svg>