<svg xmlns="http://www.w3.org/2000/svg" xmlns:xlink="http://www.w3.org/1999/xlink" contentStyleType="text/css" height="1285px" preserveAspectRatio="none" style="width:369px;height:1285px;background:#FFFFFF;" version="1.1" viewBox="0 0 369 1285" width="369px" zoomAndPan="magnify"><defs/><g><ellipse cx="178.8779" cy="20" fill="#222222" rx="10" ry="10" style="stroke:#222222;stroke-width:1.0;"/><rect fill="#F1F1F1" height="33.9688" rx="12.5" ry="12.5" style="stroke:#181818;stroke-width:0.5;" width="249.8164" x="53.9697" y="50"/><text fill="#000000" font-family="sans-serif" font-size="12" lengthAdjust="spacing" textLength="229.8164" x="63.9697" y="71.1387">PLC stuurt Start Signaal naar Extruder</text><rect fill="#F1F1F1" height="33.9688" rx="12.5" ry="12.5" style="stroke:#181818;stroke-width:0.5;" width="183.2715" x="87.2422" y="152.3711"/><text fill="#000000" font-family="sans-serif" font-size="12" lengthAdjust="spacing" textLength="163.2715" x="97.2422" y="173.5098">PLC ontvangt 'Start' output</text><polygon fill="#F1F1F1" points="130.7556,103.9688,227.0002,103.9688,239.0002,115.9688,227.0002,127.9688,130.7556,127.9688,118.7556,115.9688,130.7556,103.9688" style="stroke:#181818;stroke-width:0.5;"/><text fill="#000000" font-family="sans-serif" font-size="11" lengthAdjust="spacing" textLength="9.9849" x="182.8779" y="138.1792">Ja</text><text fill="#000000" font-family="sans-serif" font-size="11" lengthAdjust="spacing" textLength="96.2446" x="130.7556" y="119.7769">Extruder gestart?</text><text fill="#000000" font-family="sans-serif" font-size="11" lengthAdjust="spacing" textLength="21.7637" x="239.0002" y="113.3745">Nee</text><ellipse cx="282.7639" cy="115.9688" fill="none" rx="11" ry="11" style="stroke:#222222;stroke-width:1.0;"/><ellipse cx="282.7639" cy="115.9688" fill="#222222" rx="6" ry="6" style="stroke:#222222;stroke-width:1.0;"/><rect fill="#F1F1F1" height="33.9688" rx="12.5" ry="12.5" style="stroke:#181818;stroke-width:0.5;" width="293.4102" x="32.1729" y="250.3398"/><text fill="#000000" font-family="sans-serif" font-size="12" lengthAdjust="spacing" textLength="273.4102" x="42.1729" y="271.4785">PLC wacht op fotocel van materiaal aanwezig</text><polygon fill="#F1F1F1" points="178.8779,206.3398,190.8779,218.3398,178.8779,230.3398,166.8779,218.3398,178.8779,206.3398" style="stroke:#181818;stroke-width:0.5;"/><polygon fill="#F1F1F1" points="135.5923,304.3086,222.1636,304.3086,234.1636,316.3086,222.1636,328.3086,135.5923,328.3086,123.5923,316.3086,135.5923,304.3086" style="stroke:#181818;stroke-width:0.5;"/><text fill="#000000" font-family="sans-serif" font-size="11" lengthAdjust="spacing" textLength="9.9849" x="182.8779" y="338.519">Ja</text><text fill="#000000" font-family="sans-serif" font-size="11" lengthAdjust="spacing" textLength="86.5713" x="135.5923" y="320.1167">Fotocel is True?</text><text fill="#000000" font-family="sans-serif" font-size="11" lengthAdjust="spacing" textLength="21.7637" x="234.1636" y="313.7144">Nee</text><rect fill="#F1F1F1" height="33.9688" rx="12.5" ry="12.5" style="stroke:#181818;stroke-width:0.5;" width="298.3262" x="29.7148" y="360.019"/><text fill="#000000" font-family="sans-serif" font-size="12" lengthAdjust="spacing" textLength="278.3262" x="39.7148" y="381.1577">PLC stuurt 'Pneumatisch Uit' naar Cutting Tool</text><rect fill="#F1F1F1" height="33.9688" rx="12.5" ry="12.5" style="stroke:#181818;stroke-width:0.5;" width="249.9336" x="53.9111" y="413.9878"/><text fill="#000000" font-family="sans-serif" font-size="12" lengthAdjust="spacing" textLength="229.9336" x="63.9111" y="435.1265">Cutting Tool sluit en snijdt deegstreng</text><rect fill="#F1F1F1" height="33.9688" rx="12.5" ry="12.5" style="stroke:#181818;stroke-width:0.5;" width="302.0234" x="27.8662" y="511.9565"/><text fill="#000000" font-family="sans-serif" font-size="12" lengthAdjust="spacing" textLength="282.0234" x="37.8662" y="533.0952">PLC wacht op Reedcontact van de Cutting Tool</text><polygon fill="#F1F1F1" points="178.8779,467.9565,190.8779,479.9565,178.8779,491.9565,166.8779,479.9565,178.8779,467.9565" style="stroke:#181818;stroke-width:0.5;"/><polygon fill="#F1F1F1" points="120.9158,565.9253,236.8401,565.9253,248.8401,577.9253,236.8401,589.9253,120.9158,589.9253,108.9158,577.9253,120.9158,565.9253" style="stroke:#181818;stroke-width:0.5;"/><text fill="#000000" font-family="sans-serif" font-size="11" lengthAdjust="spacing" textLength="9.9849" x="182.8779" y="600.1357">Ja</text><text fill="#000000" font-family="sans-serif" font-size="11" lengthAdjust="spacing" textLength="115.9243" x="120.9158" y="581.7334">Reedcontact is True?</text><text fill="#000000" font-family="sans-serif" font-size="11" lengthAdjust="spacing" textLength="21.7637" x="248.8401" y="575.3311">Nee</text><rect fill="#F1F1F1" height="33.9688" rx="12.5" ry="12.5" style="stroke:#181818;stroke-width:0.5;" width="292.6484" x="32.5537" y="621.6357"/><text fill="#000000" font-family="sans-serif" font-size="12" lengthAdjust="spacing" textLength="272.6484" x="42.5537" y="642.7744">PLC stuurt 'Pneumatisch In' naar Cutting Tool</text><rect fill="#F1F1F1" height="33.9688" rx="12.5" ry="12.5" style="stroke:#181818;stroke-width:0.5;" width="242.7793" x="57.4883" y="675.6045"/><text fill="#000000" font-family="sans-serif" font-size="12" lengthAdjust="spacing" textLength="222.7793" x="67.4883" y="696.7432">PLC stuurt 'Start' naar Lopende Band</text><rect fill="#F1F1F1" height="33.9688" rx="12.5" ry="12.5" style="stroke:#181818;stroke-width:0.5;" width="225.459" x="66.1484" y="729.5732"/><text fill="#000000" font-family="sans-serif" font-size="12" lengthAdjust="spacing" textLength="205.459" x="76.1484" y="750.7119">PLC stuurt 'Start' naar Kuka Robot</text><rect fill="#F1F1F1" height="33.9688" rx="12.5" ry="12.5" style="stroke:#181818;stroke-width:0.5;" width="230.4688" x="63.6436" y="827.542"/><text fill="#000000" font-family="sans-serif" font-size="12" lengthAdjust="spacing" textLength="210.4688" x="73.6436" y="848.6807">PLC wacht op Robot arm op positie</text><polygon fill="#F1F1F1" points="178.8779,783.542,190.8779,795.542,178.8779,807.542,166.8779,795.542,178.8779,783.542" style="stroke:#181818;stroke-width:0.5;"/><polygon fill="#F1F1F1" points="118.3511,881.5107,239.4048,881.5107,251.4048,893.5107,239.4048,905.5107,118.3511,905.5107,106.3511,893.5107,118.3511,881.5107" style="stroke:#181818;stroke-width:0.5;"/><text fill="#000000" font-family="sans-serif" font-size="11" lengthAdjust="spacing" textLength="9.9849" x="182.8779" y="915.7212">Ja</text><text fill="#000000" font-family="sans-serif" font-size="11" lengthAdjust="spacing" textLength="121.0537" x="118.3511" y="897.3188">Robot arm op positie?</text><text fill="#000000" font-family="sans-serif" font-size="11" lengthAdjust="spacing" textLength="21.7637" x="251.4048" y="890.9165">Nee</text><rect fill="#F1F1F1" height="33.9688" rx="12.5" ry="12.5" style="stroke:#181818;stroke-width:0.5;" width="295.209" x="31.2734" y="937.2212"/><text fill="#000000" font-family="sans-serif" font-size="12" lengthAdjust="spacing" textLength="275.209" x="41.2734" y="958.3599">PLC stuurt 'Pneumatisch Uit' naar Grijper Tool</text><rect fill="#F1F1F1" height="33.9688" rx="12.5" ry="12.5" style="stroke:#181818;stroke-width:0.5;" width="288.6348" x="34.5605" y="991.1899"/><text fill="#000000" font-family="sans-serif" font-size="12" lengthAdjust="spacing" textLength="268.6348" x="44.5605" y="1012.3286">Grijper Tool sluit en pakt de deegstreng vast</text><rect fill="#F1F1F1" height="33.9688" rx="12.5" ry="12.5" style="stroke:#181818;stroke-width:0.5;" width="304.4668" x="26.6445" y="1089.1587"/><text fill="#000000" font-family="sans-serif" font-size="12" lengthAdjust="spacing" textLength="284.4668" x="36.6445" y="1110.2974">PLC wacht op fotocel van deegstreng aanwezig</text><polygon fill="#F1F1F1" points="178.8779,1045.1587,190.8779,1057.1587,178.8779,1069.1587,166.8779,1057.1587,178.8779,1045.1587" style="stroke:#181818;stroke-width:0.5;"/><polygon fill="#F1F1F1" points="135.5923,1143.1274,222.1636,1143.1274,234.1636,1155.1274,222.1636,1167.1274,135.5923,1167.1274,123.5923,1155.1274,135.5923,1143.1274" style="stroke:#181818;stroke-width:0.5;"/><text fill="#000000" font-family="sans-serif" font-size="11" lengthAdjust="spacing" textLength="9.9849" x="182.8779" y="1177.3379">Ja</text><text fill="#000000" font-family="sans-serif" font-size="11" lengthAdjust="spacing" textLength="86.5713" x="135.5923" y="1158.9355">Fotocel is True?</text><text fill="#000000" font-family="sans-serif" font-size="11" lengthAdjust="spacing" textLength="21.7637" x="234.1636" y="1152.5332">Nee</text><rect fill="#F1F1F1" height="33.9688" rx="12.5" ry="12.5" style="stroke:#181818;stroke-width:0.5;" width="335.7559" x="11" y="1198.8379"/><text fill="#000000" font-family="sans-serif" font-size="12" lengthAdjust="spacing" textLength="315.7559" x="21" y="1219.9766">PLC stuurt 'Robot arm naar matrijs' naar Kuka Robot</text><ellipse cx="178.8779" cy="1263.8066" fill="none" rx="11" ry="11" style="stroke:#222222;stroke-width:1.0;"/><ellipse cx="178.8779" cy="1263.8066" fill="#222222" rx="6" ry="6" style="stroke:#222222;stroke-width:1.0;"/><line style="stroke:#181818;stroke-width:1.0;" x1="178.8779" x2="178.8779" y1="30" y2="50"/><polygon fill="#181818" points="174.8779,40,178.8779,50,182.8779,40,178.8779,44" style="stroke:#181818;stroke-width:1.0;"/><line style="stroke:#181818;stroke-width:1.0;" x1="178.8779" x2="178.8779" y1="127.9688" y2="152.3711"/><polygon fill="#181818" points="174.8779,142.3711,178.8779,152.3711,182.8779,142.3711,178.8779,146.3711" style="stroke:#181818;stroke-width:1.0;"/><line style="stroke:#181818;stroke-width:1.0;" x1="239.0002" x2="271.7639" y1="115.9688" y2="115.9688"/><polygon fill="#181818" points="261.7639,111.9688,271.7639,115.9688,261.7639,119.9688,265.7639,115.9688" style="stroke:#181818;stroke-width:1.0;"/><line style="stroke:#181818;stroke-width:1.0;" x1="178.8779" x2="178.8779" y1="186.3398" y2="206.3398"/><polygon fill="#181818" points="174.8779,196.3398,178.8779,206.3398,182.8779,196.3398,178.8779,200.3398" style="stroke:#181818;stroke-width:1.0;"/><line style="stroke:#181818;stroke-width:1.0;" x1="178.8779" x2="178.8779" y1="83.9688" y2="103.9688"/><polygon fill="#181818" points="174.8779,93.9688,178.8779,103.9688,182.8779,93.9688,178.8779,97.9688" style="stroke:#181818;stroke-width:1.0;"/><line style="stroke:#181818;stroke-width:1.0;" x1="178.8779" x2="178.8779" y1="230.3398" y2="250.3398"/><polygon fill="#181818" points="174.8779,240.3398,178.8779,250.3398,182.8779,240.3398,178.8779,244.3398" style="stroke:#181818;stroke-width:1.0;"/><line style="stroke:#181818;stroke-width:1.0;" x1="234.1636" x2="337.583" y1="316.3086" y2="316.3086"/><polygon fill="#181818" points="333.583,277.3242,337.583,267.3242,341.583,277.3242,337.583,273.3242" style="stroke:#181818;stroke-width:1.0;"/><line style="stroke:#181818;stroke-width:1.0;" x1="337.583" x2="337.583" y1="218.3398" y2="316.3086"/><line style="stroke:#181818;stroke-width:1.0;" x1="337.583" x2="190.8779" y1="218.3398" y2="218.3398"/><polygon fill="#181818" points="200.8779,214.3398,190.8779,218.3398,200.8779,222.3398,196.8779,218.3398" style="stroke:#181818;stroke-width:1.0;"/><line style="stroke:#181818;stroke-width:1.0;" x1="178.8779" x2="178.8779" y1="284.3086" y2="304.3086"/><polygon fill="#181818" points="174.8779,294.3086,178.8779,304.3086,182.8779,294.3086,178.8779,298.3086" style="stroke:#181818;stroke-width:1.0;"/><line style="stroke:#181818;stroke-width:1.0;" x1="178.8779" x2="178.8779" y1="328.3086" y2="360.019"/><polygon fill="#181818" points="174.8779,350.019,178.8779,360.019,182.8779,350.019,178.8779,354.019" style="stroke:#181818;stroke-width:1.0;"/><line style="stroke:#181818;stroke-width:1.0;" x1="178.8779" x2="178.8779" y1="393.9878" y2="413.9878"/><polygon fill="#181818" points="174.8779,403.9878,178.8779,413.9878,182.8779,403.9878,178.8779,407.9878" style="stroke:#181818;stroke-width:1.0;"/><line style="stroke:#181818;stroke-width:1.0;" x1="178.8779" x2="178.8779" y1="491.9565" y2="511.9565"/><polygon fill="#181818" points="174.8779,501.9565,178.8779,511.9565,182.8779,501.9565,178.8779,505.9565" style="stroke:#181818;stroke-width:1.0;"/><line style="stroke:#181818;stroke-width:1.0;" x1="248.8401" x2="341.8896" y1="577.9253" y2="577.9253"/><polygon fill="#181818" points="337.8896,538.9409,341.8896,528.9409,345.8896,538.9409,341.8896,534.9409" style="stroke:#181818;stroke-width:1.0;"/><line style="stroke:#181818;stroke-width:1.0;" x1="341.8896" x2="341.8896" y1="479.9565" y2="577.9253"/><line style="stroke:#181818;stroke-width:1.0;" x1="341.8896" x2="190.8779" y1="479.9565" y2="479.9565"/><polygon fill="#181818" points="200.8779,475.9565,190.8779,479.9565,200.8779,483.9565,196.8779,479.9565" style="stroke:#181818;stroke-width:1.0;"/><line style="stroke:#181818;stroke-width:1.0;" x1="178.8779" x2="178.8779" y1="545.9253" y2="565.9253"/><polygon fill="#181818" points="174.8779,555.9253,178.8779,565.9253,182.8779,555.9253,178.8779,559.9253" style="stroke:#181818;stroke-width:1.0;"/><line style="stroke:#181818;stroke-width:1.0;" x1="178.8779" x2="178.8779" y1="447.9565" y2="467.9565"/><polygon fill="#181818" points="174.8779,457.9565,178.8779,467.9565,182.8779,457.9565,178.8779,461.9565" style="stroke:#181818;stroke-width:1.0;"/><line style="stroke:#181818;stroke-width:1.0;" x1="178.8779" x2="178.8779" y1="589.9253" y2="621.6357"/><polygon fill="#181818" points="174.8779,611.6357,178.8779,621.6357,182.8779,611.6357,178.8779,615.6357" style="stroke:#181818;stroke-width:1.0;"/><line style="stroke:#181818;stroke-width:1.0;" x1="178.8779" x2="178.8779" y1="655.6045" y2="675.6045"/><polygon fill="#181818" points="174.8779,665.6045,178.8779,675.6045,182.8779,665.6045,178.8779,669.6045" style="stroke:#181818;stroke-width:1.0;"/><line style="stroke:#181818;stroke-width:1.0;" x1="178.8779" x2="178.8779" y1="709.5732" y2="729.5732"/><polygon fill="#181818" points="174.8779,719.5732,178.8779,729.5732,182.8779,719.5732,178.8779,723.5732" style="stroke:#181818;stroke-width:1.0;"/><line style="stroke:#181818;stroke-width:1.0;" x1="178.8779" x2="178.8779" y1="807.542" y2="827.542"/><polygon fill="#181818" points="174.8779,817.542,178.8779,827.542,182.8779,817.542,178.8779,821.542" style="stroke:#181818;stroke-width:1.0;"/><line style="stroke:#181818;stroke-width:1.0;" x1="251.4048" x2="306.1123" y1="893.5107" y2="893.5107"/><polygon fill="#181818" points="302.1123,854.5264,306.1123,844.5264,310.1123,854.5264,306.1123,850.5264" style="stroke:#181818;stroke-width:1.0;"/><line style="stroke:#181818;stroke-width:1.0;" x1="306.1123" x2="306.1123" y1="795.542" y2="893.5107"/><line style="stroke:#181818;stroke-width:1.0;" x1="306.1123" x2="190.8779" y1="795.542" y2="795.542"/><polygon fill="#181818" points="200.8779,791.542,190.8779,795.542,200.8779,799.542,196.8779,795.542" style="stroke:#181818;stroke-width:1.0;"/><line style="stroke:#181818;stroke-width:1.0;" x1="178.8779" x2="178.8779" y1="861.5107" y2="881.5107"/><polygon fill="#181818" points="174.8779,871.5107,178.8779,881.5107,182.8779,871.5107,178.8779,875.5107" style="stroke:#181818;stroke-width:1.0;"/><line style="stroke:#181818;stroke-width:1.0;" x1="178.8779" x2="178.8779" y1="763.542" y2="783.542"/><polygon fill="#181818" points="174.8779,773.542,178.8779,783.542,182.8779,773.542,178.8779,777.542" style="stroke:#181818;stroke-width:1.0;"/><line style="stroke:#181818;stroke-width:1.0;" x1="178.8779" x2="178.8779" y1="905.5107" y2="937.2212"/><polygon fill="#181818" points="174.8779,927.2212,178.8779,937.2212,182.8779,927.2212,178.8779,931.2212" style="stroke:#181818;stroke-width:1.0;"/><line style="stroke:#181818;stroke-width:1.0;" x1="178.8779" x2="178.8779" y1="971.1899" y2="991.1899"/><polygon fill="#181818" points="174.8779,981.1899,178.8779,991.1899,182.8779,981.1899,178.8779,985.1899" style="stroke:#181818;stroke-width:1.0;"/><line style="stroke:#181818;stroke-width:1.0;" x1="178.8779" x2="178.8779" y1="1069.1587" y2="1089.1587"/><polygon fill="#181818" points="174.8779,1079.1587,178.8779,1089.1587,182.8779,1079.1587,178.8779,1083.1587" style="stroke:#181818;stroke-width:1.0;"/><line style="stroke:#181818;stroke-width:1.0;" x1="234.1636" x2="343.1113" y1="1155.1274" y2="1155.1274"/><polygon fill="#181818" points="339.1113,1116.1431,343.1113,1106.1431,347.1113,1116.1431,343.1113,1112.1431" style="stroke:#181818;stroke-width:1.0;"/><line style="stroke:#181818;stroke-width:1.0;" x1="343.1113" x2="343.1113" y1="1057.1587" y2="1155.1274"/><line style="stroke:#181818;stroke-width:1.0;" x1="343.1113" x2="190.8779" y1="1057.1587" y2="1057.1587"/><polygon fill="#181818" points="200.8779,1053.1587,190.8779,1057.1587,200.8779,1061.1587,196.8779,1057.1587" style="stroke:#181818;stroke-width:1.0;"/><line style="stroke:#181818;stroke-width:1.0;" x1="178.8779" x2="178.8779" y1="1123.1274" y2="1143.1274"/><polygon fill="#181818" points="174.8779,1133.1274,178.8779,1143.1274,182.8779,1133.1274,178.8779,1137.1274" style="stroke:#181818;stroke-width:1.0;"/><line style="stroke:#181818;stroke-width:1.0;" x1="178.8779" x2="178.8779" y1="1025.1587" y2="1045.1587"/><polygon fill="#181818" points="174.8779,1035.1587,178.8779,1045.1587,182.8779,1035.1587,178.8779,1039.1587" style="stroke:#181818;stroke-width:1.0;"/><line style="stroke:#181818;stroke-width:1.0;" x1="178.8779" x2="178.8779" y1="1167.1274" y2="1198.8379"/><polygon fill="#181818" points="174.8779,1188.8379,178.8779,1198.8379,182.8779,1188.8379,178.8779,1192.8379" style="stroke:#181818;stroke-width:1.0;"/><line style="stroke:#181818;stroke-width:1.0;" x1="178.8779" x2="178.8779" y1="1232.8066" y2="1252.8066"/><polygon fill="#181818" points="174.8779,1242.8066,178.8779,1252.8066,182.8779,1242.8066,178.8779,1246.8066" style="stroke:#181818;stroke-width:1.0;"/><!--SRC=[jPF1JiCm38RlUGhVjhq2FI0n0G8cD6tZ0KphjTcw94eSXdXwdApG0WDDckYXQbB_jZ__IM3qhDJ5V3Q5m35wXcNQWgMk3M8Byl9m_Se-LkGBfTSm_bX1JI75Naw06p8mliU90dboDclu1KtDCCe9Hs0ZkyY5eZOGZ1-93i61hLDaAhrMofCZv3x77ik6mJfOMxObjI0POOTCNgVU4CsUtdHTPCL13Fj6jvB_fbFe02iVINgKhrmLZEM-ryzQ7VreRYXA2HtA1fwqz9qdC8tCsjImihOjUk5m6q8RDOCC8XYzgHWgeZgm9oCD_ags8AfAcHMMdEagEbBhAzfGSXRUdVcRRgZhJCpXC-l4C88hDDK9uGznYx2mpvR_caFw3-XtQU5iqApfAFoHk7FDlVLwu-GyVyCVRlVcEjmcQmVkYcz1qE2aqpkG_SlnxUUJqGHMAC9F9pgjKYfTm7S0]--></g></svg>