<svg xmlns="http://www.w3.org/2000/svg" xmlns:xlink="http://www.w3.org/1999/xlink" contentStyleType="text/css" height="149px" preserveAspectRatio="none" style="width:661px;height:149px;background:#FFFFFF;" version="1.1" viewBox="0 0 661 149" width="661px" zoomAndPan="magnify"><defs/><g><line style="stroke:#181818;stroke-width:0.5;stroke-dasharray:5.0,5.0;" x1="50" x2="50" y1="36.2969" y2="114.5625"/><line style="stroke:#181818;stroke-width:0.5;stroke-dasharray:5.0,5.0;" x1="246.5605" x2="246.5605" y1="36.2969" y2="114.5625"/><line style="stroke:#181818;stroke-width:0.5;stroke-dasharray:5.0,5.0;" x1="525.3945" x2="525.3945" y1="36.2969" y2="114.5625"/><rect fill="#E2E2F0" height="30.2969" rx="2.5" ry="2.5" style="stroke:#181818;stroke-width:0.5;" width="91.5605" x="5" y="5"/><text fill="#000000" font-family="sans-serif" font-size="14" lengthAdjust="spacing" textLength="77.5605" x="12" y="24.9951">ToolSensor</text><rect fill="#E2E2F0" height="30.2969" rx="2.5" ry="2.5" style="stroke:#181818;stroke-width:0.5;" width="91.5605" x="5" y="113.5625"/><text fill="#000000" font-family="sans-serif" font-size="14" lengthAdjust="spacing" textLength="77.5605" x="12" y="133.5576">ToolSensor</text><rect fill="#E2E2F0" height="30.2969" rx="2.5" ry="2.5" style="stroke:#181818;stroke-width:0.5;" width="280.834" x="106.5605" y="5"/><text fill="#000000" font-family="sans-serif" font-size="14" lengthAdjust="spacing" textLength="266.834" x="113.5605" y="24.9951">Check of deegstreng meegenomen is.</text><rect fill="#E2E2F0" height="30.2969" rx="2.5" ry="2.5" style="stroke:#181818;stroke-width:0.5;" width="280.834" x="106.5605" y="113.5625"/><text fill="#000000" font-family="sans-serif" font-size="14" lengthAdjust="spacing" textLength="266.834" x="113.5605" y="133.5576">Check of deegstreng meegenomen is.</text><rect fill="#E2E2F0" height="30.2969" rx="2.5" ry="2.5" style="stroke:#181818;stroke-width:0.5;" width="257.9336" x="397.3945" y="5"/><text fill="#000000" font-family="sans-serif" font-size="14" lengthAdjust="spacing" textLength="243.9336" x="404.3945" y="24.9951">Check of deegstreng verwijderd is.</text><rect fill="#E2E2F0" height="30.2969" rx="2.5" ry="2.5" style="stroke:#181818;stroke-width:0.5;" width="257.9336" x="397.3945" y="113.5625"/><text fill="#000000" font-family="sans-serif" font-size="14" lengthAdjust="spacing" textLength="243.9336" x="404.3945" y="133.5576">Check of deegstreng verwijderd is.</text><polygon fill="#181818" points="234.9775,63.4297,244.9775,67.4297,234.9775,71.4297,238.9775,67.4297" style="stroke:#181818;stroke-width:1.0;"/><line style="stroke:#181818;stroke-width:1.0;" x1="50.7803" x2="240.9775" y1="67.4297" y2="67.4297"/><text fill="#000000" font-family="sans-serif" font-size="13" lengthAdjust="spacing" textLength="65.9966" x="57.7803" y="62.3638">Oppakken</text><polygon fill="#181818" points="514.3613,92.5625,524.3613,96.5625,514.3613,100.5625,518.3613,96.5625" style="stroke:#181818;stroke-width:1.0;"/><line style="stroke:#181818;stroke-width:1.0;" x1="50.7803" x2="520.3613" y1="96.5625" y2="96.5625"/><text fill="#000000" font-family="sans-serif" font-size="13" lengthAdjust="spacing" textLength="54.8818" x="57.7803" y="91.4966">Loslaten</text><!--SRC=[2ydFpmbEpIlEBrBGjLDGSiv8JSvMo4zJI4bDJIykAKhDIrV81J9Jy_9pK_CKCelrb1Ii5FmB2XApirFpk1I0W2k4i15bgKNbcLafgKKfC2Dyyejp4ajIym00]--></g></svg>