<svg xmlns="http://www.w3.org/2000/svg" xmlns:xlink="http://www.w3.org/1999/xlink" contentStyleType="text/css" height="997px" preserveAspectRatio="none" style="width:617px;height:997px;background:#FFFFFF;" version="1.1" viewBox="0 0 617 997" width="617px" zoomAndPan="magnify"><title>Gripper</title><defs/><g><text fill="#000000" font-family="sans-serif" font-size="14" font-weight="bold" lengthAdjust="spacing" textLength="59.6367" x="277.2959" y="32.9951">Gripper</text><rect fill="#D3D3D3" height="237.1719" style="stroke:#000000;stroke-width:1.5;" width="397.8555" x="109.6865" y="48.2969"/><path d="M338.375,48.2969 L338.375,57.5938 L328.375,67.5938 L109.6865,67.5938 " fill="none" style="stroke:#000000;stroke-width:1.5;"/><text fill="#000000" font-family="sans-serif" font-size="14" lengthAdjust="spacing" textLength="218.6885" x="112.6865" y="62.292">Risico 1: Falen van de Extruder</text><rect fill="#F1F1F1" height="33.9688" rx="12.5" ry="12.5" style="stroke:#181818;stroke-width:0.5;" width="377.8555" x="119.6865" y="77.5938"/><text fill="#000000" font-family="sans-serif" font-size="12" lengthAdjust="spacing" textLength="357.8555" x="129.6865" y="98.7324">Beschrijving: Extruder start niet, waardoor het proces stopt</text><rect fill="#F1F1F1" height="33.9688" rx="12.5" ry="12.5" style="stroke:#181818;stroke-width:0.5;" width="202.2559" x="207.4863" y="131.5625"/><text fill="#000000" font-family="sans-serif" font-size="12" lengthAdjust="spacing" textLength="182.2559" x="217.4863" y="152.7012">Waarschijnlijkheid: Gemiddeld</text><rect fill="#F1F1F1" height="33.9688" rx="12.5" ry="12.5" style="stroke:#181818;stroke-width:0.5;" width="100.6836" x="258.2725" y="185.5313"/><text fill="#000000" font-family="sans-serif" font-size="12" lengthAdjust="spacing" textLength="80.6836" x="268.2725" y="206.6699">Impact: Hoog</text><rect fill="#F1F1F1" height="33.9688" rx="12.5" ry="12.5" style="stroke:#181818;stroke-width:0.5;" width="356.4863" x="130.3711" y="239.5"/><text fill="#000000" font-family="sans-serif" font-size="12" lengthAdjust="spacing" textLength="336.4863" x="140.3711" y="260.6387">Mitigatie: Regelmatig onderhoud en systeemmonitoring</text><rect fill="#D3D3D3" height="237.1719" style="stroke:#000000;stroke-width:1.5;" width="595.2285" x="11" y="295.4688"/><path d="M181.3301,295.4688 L181.3301,304.7656 L171.3301,314.7656 L11,314.7656 " fill="none" style="stroke:#000000;stroke-width:1.5;"/><text fill="#000000" font-family="sans-serif" font-size="14" lengthAdjust="spacing" textLength="160.3301" x="14" y="309.4639">Risico 2: Sensorstoring</text><rect fill="#F1F1F1" height="33.9688" rx="12.5" ry="12.5" style="stroke:#181818;stroke-width:0.5;" width="575.2285" x="21" y="324.7656"/><text fill="#000000" font-family="sans-serif" font-size="12" lengthAdjust="spacing" textLength="555.2285" x="31" y="345.9043">Beschrijving: Fotocel of Reed-schakelaar detecteert geen materiaal of gereedschapsposities</text><rect fill="#F1F1F1" height="33.9688" rx="12.5" ry="12.5" style="stroke:#181818;stroke-width:0.5;" width="165.9922" x="225.6182" y="378.7344"/><text fill="#000000" font-family="sans-serif" font-size="12" lengthAdjust="spacing" textLength="145.9922" x="235.6182" y="399.873">Waarschijnlijkheid: Laag</text><rect fill="#F1F1F1" height="33.9688" rx="12.5" ry="12.5" style="stroke:#181818;stroke-width:0.5;" width="100.6836" x="258.2725" y="432.7031"/><text fill="#000000" font-family="sans-serif" font-size="12" lengthAdjust="spacing" textLength="80.6836" x="268.2725" y="453.8418">Impact: Hoog</text><rect fill="#F1F1F1" height="33.9688" rx="12.5" ry="12.5" style="stroke:#181818;stroke-width:0.5;" width="506.9902" x="55.1191" y="486.6719"/><text fill="#000000" font-family="sans-serif" font-size="12" lengthAdjust="spacing" textLength="486.9902" x="65.1191" y="507.8105">Mitigatie: Regelmatige sensorcontroles en redundantie met secundaire sensoren</text><rect fill="#D3D3D3" height="197.1719" style="stroke:#000000;stroke-width:1.5;" width="373.4102" x="121.9092" y="542.6406"/><path d="M373.6895,542.6406 L373.6895,551.9375 L363.6895,561.9375 L121.9092,561.9375 " fill="none" style="stroke:#000000;stroke-width:1.5;"/><text fill="#000000" font-family="sans-serif" font-size="14" lengthAdjust="spacing" textLength="241.7803" x="124.9092" y="556.6357">Risico 3: Verstopte gripperneedles</text><rect fill="#F1F1F1" height="47.9375" rx="12.5" ry="12.5" style="stroke:#181818;stroke-width:0.5;" width="353.4102" x="131.9092" y="571.9375"/><text fill="#000000" font-family="sans-serif" font-size="12" lengthAdjust="spacing" textLength="333.4102" x="141.9092" y="593.0762">Beschrijving: Gripper needles vastgeklemd in beplating</text><text fill="#000000" font-family="sans-serif" font-size="12" lengthAdjust="spacing" textLength="178.6816" x="141.9092" y="607.0449">:Waarschijnlijkheid: Gemiddel</text><rect fill="#F1F1F1" height="33.9688" rx="12.5" ry="12.5" style="stroke:#181818;stroke-width:0.5;" width="134.6328" x="241.2979" y="639.875"/><text fill="#000000" font-family="sans-serif" font-size="12" lengthAdjust="spacing" textLength="114.6328" x="251.2979" y="661.0137">Impact: Gemiddeld</text><rect fill="#F1F1F1" height="33.9688" rx="12.5" ry="12.5" style="stroke:#181818;stroke-width:0.5;" width="337.9648" x="139.6318" y="693.8438"/><text fill="#000000" font-family="sans-serif" font-size="12" lengthAdjust="spacing" textLength="317.9648" x="149.6318" y="714.9824">Mitigatie: Tool tijdig behandelen met lossingsmiddel.</text><rect fill="#D3D3D3" height="237.1719" style="stroke:#000000;stroke-width:1.5;" width="504.918" x="56.1553" y="749.8125"/><path d="M386.5078,749.8125 L386.5078,759.1094 L376.5078,769.1094 L56.1553,769.1094 " fill="none" style="stroke:#000000;stroke-width:1.5;"/><text fill="#000000" font-family="sans-serif" font-size="14" lengthAdjust="spacing" textLength="320.3525" x="59.1553" y="763.8076">Risico 4: Hamster niet opgepakt of losgelaten</text><rect fill="#F1F1F1" height="33.9688" rx="12.5" ry="12.5" style="stroke:#181818;stroke-width:0.5;" width="474.4824" x="71.373" y="779.1094"/><text fill="#000000" font-family="sans-serif" font-size="12" lengthAdjust="spacing" textLength="454.4824" x="81.373" y="800.248">Beschrijving: Hamster niet opgepakt van extruder/niet losgelaten in matrijs</text><rect fill="#F1F1F1" height="33.9688" rx="12.5" ry="12.5" style="stroke:#181818;stroke-width:0.5;" width="202.2559" x="207.4863" y="833.0781"/><text fill="#000000" font-family="sans-serif" font-size="12" lengthAdjust="spacing" textLength="182.2559" x="217.4863" y="854.2168">Waarschijnlijkheid: Gemiddeld</text><rect fill="#F1F1F1" height="33.9688" rx="12.5" ry="12.5" style="stroke:#181818;stroke-width:0.5;" width="102.1836" x="257.5225" y="887.0469"/><text fill="#000000" font-family="sans-serif" font-size="12" lengthAdjust="spacing" textLength="78.3691" x="267.5225" y="908.1855">Impact: Laag</text><rect fill="#F1F1F1" height="33.9688" rx="12.5" ry="12.5" style="stroke:#181818;stroke-width:0.5;" width="484.918" x="66.1553" y="941.0156"/><text fill="#000000" font-family="sans-serif" font-size="12" lengthAdjust="spacing" textLength="464.918" x="76.1553" y="962.1543">Mitigatie: Dmv sensor een softwarematige check doen of hamster los/vast is.</text><line style="stroke:#181818;stroke-width:1.0;" x1="308.6143" x2="308.6143" y1="111.5625" y2="131.5625"/><polygon fill="#181818" points="304.6143,121.5625,308.6143,131.5625,312.6143,121.5625,308.6143,125.5625" style="stroke:#181818;stroke-width:1.0;"/><line style="stroke:#181818;stroke-width:1.0;" x1="308.6143" x2="308.6143" y1="165.5313" y2="185.5313"/><polygon fill="#181818" points="304.6143,175.5313,308.6143,185.5313,312.6143,175.5313,308.6143,179.5313" style="stroke:#181818;stroke-width:1.0;"/><line style="stroke:#181818;stroke-width:1.0;" x1="308.6143" x2="308.6143" y1="219.5" y2="239.5"/><polygon fill="#181818" points="304.6143,229.5,308.6143,239.5,312.6143,229.5,308.6143,233.5" style="stroke:#181818;stroke-width:1.0;"/><line style="stroke:#181818;stroke-width:1.0;" x1="308.6143" x2="308.6143" y1="358.7344" y2="378.7344"/><polygon fill="#181818" points="304.6143,368.7344,308.6143,378.7344,312.6143,368.7344,308.6143,372.7344" style="stroke:#181818;stroke-width:1.0;"/><line style="stroke:#181818;stroke-width:1.0;" x1="308.6143" x2="308.6143" y1="412.7031" y2="432.7031"/><polygon fill="#181818" points="304.6143,422.7031,308.6143,432.7031,312.6143,422.7031,308.6143,426.7031" style="stroke:#181818;stroke-width:1.0;"/><line style="stroke:#181818;stroke-width:1.0;" x1="308.6143" x2="308.6143" y1="466.6719" y2="486.6719"/><polygon fill="#181818" points="304.6143,476.6719,308.6143,486.6719,312.6143,476.6719,308.6143,480.6719" style="stroke:#181818;stroke-width:1.0;"/><line style="stroke:#181818;stroke-width:1.0;" x1="308.6143" x2="308.6143" y1="619.875" y2="639.875"/><polygon fill="#181818" points="304.6143,629.875,308.6143,639.875,312.6143,629.875,308.6143,633.875" style="stroke:#181818;stroke-width:1.0;"/><line style="stroke:#181818;stroke-width:1.0;" x1="308.6143" x2="308.6143" y1="673.8438" y2="693.8438"/><polygon fill="#181818" points="304.6143,683.8438,308.6143,693.8438,312.6143,683.8438,308.6143,687.8438" style="stroke:#181818;stroke-width:1.0;"/><line style="stroke:#181818;stroke-width:1.0;" x1="308.6143" x2="308.6143" y1="813.0781" y2="833.0781"/><polygon fill="#181818" points="304.6143,823.0781,308.6143,833.0781,312.6143,823.0781,308.6143,827.0781" style="stroke:#181818;stroke-width:1.0;"/><line style="stroke:#181818;stroke-width:1.0;" x1="308.6143" x2="308.6143" y1="867.0469" y2="887.0469"/><polygon fill="#181818" points="304.6143,877.0469,308.6143,887.0469,312.6143,877.0469,308.6143,881.0469" style="stroke:#181818;stroke-width:1.0;"/><line style="stroke:#181818;stroke-width:1.0;" x1="308.6143" x2="308.6143" y1="921.0156" y2="941.0156"/><polygon fill="#181818" points="304.6143,931.0156,308.6143,941.0156,312.6143,931.0156,308.6143,935.0156" style="stroke:#181818;stroke-width:1.0;"/><!--SRC=[fLDDRnGn3Btlhx1wwGMe-3XD3qWjT462Iq5mJYTk9ZkPU1HxjrI8_yxBxBHTmNP1a4Cc4plsy_EpHKjConB7aSjYSKoNt9hB0PSc77Y3pPCCLAB6LewLZ4d75CquawrLyPcV4uxdagr8qjSBMX2MzZ6FhhY1i5kqA9c-JvOpAPxBkIGfT9LSsszlSGX5rjblBIc6pfQ5RoVhZsb_Y7HqEQ6YvmrTk8Jq6vV9CxtzPcMDw4Tphhhk3yqPQzkLkDh479fxNr93NCgHxGdTE5Uy87_7HcEHbXLs6Utq8SnN-21GNEKKLtt7qJUqv25wpydl-BqVHjTQG-z4mixrHvGGd4Lkm7dWDE0SI3AWTBBsbKozLMCU1idHf03jwSp2zF5ihkqUOUH5GvyugnJTljnbuXS2BiHGNoAv1X3sJs5pFITKLrD03ipW9J000IENwDpa7BZ0lNgFEeeYF-iVwFdWNFX7Pg2wgPvsAp3q0tWAUoZ5PVZIW4ufj_K_bZjlpgSxmZd8sCk6ld2PcimKjehEA12f3f1t9_tP4m9K2zmd7Zp5J5Sy9g3FuUzaiuURVOhQ8UYpI2ABAm_jN77d89yw1vMC9Ah8hDltptudWXvXuXKwuWP8hqpJG3867brljUa8Yev01la0AVjVrzdaUTXE9jD3iCeLsem8-XyJLkL5-tbwCsncIL0LiigrtRZ2ixJQZjkUlC226hiPFk2Tr7vIr3lsVW80]--></g></svg>