<svg xmlns="http://www.w3.org/2000/svg" xmlns:xlink="http://www.w3.org/1999/xlink" contentStyleType="text/css" height="1755px" preserveAspectRatio="none" style="width:617px;height:1755px;background:#FFFFFF;" version="1.1" viewBox="0 0 617 1755" width="617px" zoomAndPan="magnify"><title>Risicoanalyse voor LFT-handlingsmechanisme</title><defs/><g><text fill="#000000" font-family="sans-serif" font-size="14" font-weight="bold" lengthAdjust="spacing" textLength="362.4004" x="125.9141" y="32.9951">Risicoanalyse voor LFT-handlingsmechanisme</text><rect fill="none" height="237.1719" style="stroke:#000000;stroke-width:1.5;" width="397.8555" x="109.6865" y="48.2969"/><path d="M338.375,48.2969 L338.375,57.5938 L328.375,67.5938 L109.6865,67.5938 " fill="none" style="stroke:#000000;stroke-width:1.5;"/><text fill="#000000" font-family="sans-serif" font-size="14" lengthAdjust="spacing" textLength="218.6885" x="112.6865" y="62.292">Risico 1: Falen van de Extruder</text><rect fill="#F1F1F1" height="33.9688" rx="12.5" ry="12.5" style="stroke:#181818;stroke-width:0.5;" width="377.8555" x="119.6865" y="77.5938"/><text fill="#000000" font-family="sans-serif" font-size="12" lengthAdjust="spacing" textLength="357.8555" x="129.6865" y="98.7324">Beschrijving: Extruder start niet, waardoor het proces stopt</text><rect fill="#F1F1F1" height="33.9688" rx="12.5" ry="12.5" style="stroke:#181818;stroke-width:0.5;" width="202.2559" x="207.4863" y="131.5625"/><text fill="#000000" font-family="sans-serif" font-size="12" lengthAdjust="spacing" textLength="182.2559" x="217.4863" y="152.7012">Waarschijnlijkheid: Gemiddeld</text><rect fill="#F1F1F1" height="33.9688" rx="12.5" ry="12.5" style="stroke:#181818;stroke-width:0.5;" width="100.6836" x="258.2725" y="185.5313"/><text fill="#000000" font-family="sans-serif" font-size="12" lengthAdjust="spacing" textLength="80.6836" x="268.2725" y="206.6699">Impact: Hoog</text><rect fill="#F1F1F1" height="33.9688" rx="12.5" ry="12.5" style="stroke:#181818;stroke-width:0.5;" width="356.4863" x="130.3711" y="239.5"/><text fill="#000000" font-family="sans-serif" font-size="12" lengthAdjust="spacing" textLength="336.4863" x="140.3711" y="260.6387">Mitigatie: Regelmatig onderhoud en systeemmonitoring</text><rect fill="none" height="237.1719" style="stroke:#000000;stroke-width:1.5;" width="595.2285" x="11" y="295.4688"/><path d="M181.3301,295.4688 L181.3301,304.7656 L171.3301,314.7656 L11,314.7656 " fill="none" style="stroke:#000000;stroke-width:1.5;"/><text fill="#000000" font-family="sans-serif" font-size="14" lengthAdjust="spacing" textLength="160.3301" x="14" y="309.4639">Risico 2: Sensorstoring</text><rect fill="#F1F1F1" height="33.9688" rx="12.5" ry="12.5" style="stroke:#181818;stroke-width:0.5;" width="575.2285" x="21" y="324.7656"/><text fill="#000000" font-family="sans-serif" font-size="12" lengthAdjust="spacing" textLength="555.2285" x="31" y="345.9043">Beschrijving: Fotocel of Reed-schakelaar detecteert geen materiaal of gereedschapsposities</text><rect fill="#F1F1F1" height="33.9688" rx="12.5" ry="12.5" style="stroke:#181818;stroke-width:0.5;" width="165.9922" x="225.6182" y="378.7344"/><text fill="#000000" font-family="sans-serif" font-size="12" lengthAdjust="spacing" textLength="145.9922" x="235.6182" y="399.873">Waarschijnlijkheid: Laag</text><rect fill="#F1F1F1" height="33.9688" rx="12.5" ry="12.5" style="stroke:#181818;stroke-width:0.5;" width="100.6836" x="258.2725" y="432.7031"/><text fill="#000000" font-family="sans-serif" font-size="12" lengthAdjust="spacing" textLength="80.6836" x="268.2725" y="453.8418">Impact: Hoog</text><rect fill="#F1F1F1" height="33.9688" rx="12.5" ry="12.5" style="stroke:#181818;stroke-width:0.5;" width="506.9902" x="55.1191" y="486.6719"/><text fill="#000000" font-family="sans-serif" font-size="12" lengthAdjust="spacing" textLength="486.9902" x="65.1191" y="507.8105">Mitigatie: Regelmatige sensorcontroles en redundantie met secundaire sensoren</text><rect fill="none" height="237.1719" style="stroke:#000000;stroke-width:1.5;" width="571.0117" x="23.1084" y="542.6406"/><path d="M294.6855,542.6406 L294.6855,551.9375 L284.6855,561.9375 L23.1084,561.9375 " fill="none" style="stroke:#000000;stroke-width:1.5;"/><text fill="#000000" font-family="sans-serif" font-size="14" lengthAdjust="spacing" textLength="261.5771" x="26.1084" y="556.6357">Risico 3: Pneumatisch Systeem Falen</text><rect fill="#F1F1F1" height="33.9688" rx="12.5" ry="12.5" style="stroke:#181818;stroke-width:0.5;" width="551.0117" x="33.1084" y="571.9375"/><text fill="#000000" font-family="sans-serif" font-size="12" lengthAdjust="spacing" textLength="531.0117" x="43.1084" y="593.0762">Beschrijving: Falen van het pneumatische systeem verhindert de werking van de grijper</text><rect fill="#F1F1F1" height="33.9688" rx="12.5" ry="12.5" style="stroke:#181818;stroke-width:0.5;" width="202.2559" x="207.4863" y="625.9063"/><text fill="#000000" font-family="sans-serif" font-size="12" lengthAdjust="spacing" textLength="182.2559" x="217.4863" y="647.0449">Waarschijnlijkheid: Gemiddeld</text><rect fill="#F1F1F1" height="33.9688" rx="12.5" ry="12.5" style="stroke:#181818;stroke-width:0.5;" width="100.6836" x="258.2725" y="679.875"/><text fill="#000000" font-family="sans-serif" font-size="12" lengthAdjust="spacing" textLength="80.6836" x="268.2725" y="701.0137">Impact: Hoog</text><rect fill="#F1F1F1" height="33.9688" rx="12.5" ry="12.5" style="stroke:#181818;stroke-width:0.5;" width="532.0566" x="42.5859" y="733.8438"/><text fill="#000000" font-family="sans-serif" font-size="12" lengthAdjust="spacing" textLength="512.0566" x="52.5859" y="754.9824">Mitigatie: Noodstopprocedures en regelmatige inspectie van pneumatische leidingen</text><rect fill="none" height="237.1719" style="stroke:#000000;stroke-width:1.5;" width="467.3594" x="74.9346" y="789.8125"/><path d="M346.3613,789.8125 L346.3613,799.1094 L336.3613,809.1094 L74.9346,809.1094 " fill="none" style="stroke:#000000;stroke-width:1.5;"/><text fill="#000000" font-family="sans-serif" font-size="14" lengthAdjust="spacing" textLength="261.4268" x="77.9346" y="803.8076">Risico 4: Misalignment van Robotarm</text><rect fill="#F1F1F1" height="33.9688" rx="12.5" ry="12.5" style="stroke:#181818;stroke-width:0.5;" width="332.4922" x="142.3682" y="819.1094"/><text fill="#000000" font-family="sans-serif" font-size="12" lengthAdjust="spacing" textLength="312.4922" x="152.3682" y="840.248">Beschrijving: Robotarm bereikt niet de juiste positie</text><rect fill="#F1F1F1" height="33.9688" rx="12.5" ry="12.5" style="stroke:#181818;stroke-width:0.5;" width="165.9922" x="225.6182" y="873.0781"/><text fill="#000000" font-family="sans-serif" font-size="12" lengthAdjust="spacing" textLength="145.9922" x="235.6182" y="894.2168">Waarschijnlijkheid: Laag</text><rect fill="#F1F1F1" height="33.9688" rx="12.5" ry="12.5" style="stroke:#181818;stroke-width:0.5;" width="134.6328" x="241.2979" y="927.0469"/><text fill="#000000" font-family="sans-serif" font-size="12" lengthAdjust="spacing" textLength="114.6328" x="251.2979" y="948.1855">Impact: Gemiddeld</text><rect fill="#F1F1F1" height="33.9688" rx="12.5" ry="12.5" style="stroke:#181818;stroke-width:0.5;" width="447.3594" x="84.9346" y="981.0156"/><text fill="#000000" font-family="sans-serif" font-size="12" lengthAdjust="spacing" textLength="427.3594" x="94.9346" y="1002.1543">Mitigatie: Gebruik van positionele sensoren en herkalibratieprotocollen</text><rect fill="none" height="707.4219" style="stroke:#000000;stroke-width:1.5;" width="582.418" x="17.4053" y="1036.9844"/><path d="M269.1855,1036.9844 L269.1855,1046.2813 L259.1855,1056.2813 L17.4053,1056.2813 " fill="none" style="stroke:#000000;stroke-width:1.5;"/><text fill="#000000" font-family="sans-serif" font-size="14" lengthAdjust="spacing" textLength="241.7803" x="20.4053" y="1050.9795">Risico 5: Verstopte gripperneedles</text><rect fill="#F1F1F1" height="47.9375" rx="12.5" ry="12.5" style="stroke:#181818;stroke-width:0.5;" width="353.4102" x="131.9092" y="1066.2813"/><text fill="#000000" font-family="sans-serif" font-size="12" lengthAdjust="spacing" textLength="333.4102" x="141.9092" y="1087.4199">Beschrijving: Gripper needles vastgeklemd in beplating</text><text fill="#000000" font-family="sans-serif" font-size="12" lengthAdjust="spacing" textLength="178.6816" x="141.9092" y="1101.3887">:Waarschijnlijkheid: Gemiddel</text><rect fill="#F1F1F1" height="33.9688" rx="12.5" ry="12.5" style="stroke:#181818;stroke-width:0.5;" width="134.6328" x="241.2979" y="1134.2188"/><text fill="#000000" font-family="sans-serif" font-size="12" lengthAdjust="spacing" textLength="114.6328" x="251.2979" y="1155.3574">Impact: Gemiddeld</text><path d="M144.6318,1188.1875 L139.6318,1212.1563 L144.6318,1236.125 M472.5967,1188.1875 L477.5967,1212.1563 L472.5967,1236.125 " fill="#F1F1F1" style="stroke:#181818;stroke-width:0.5;"/><text fill="#000000" font-family="sans-serif" font-size="12" lengthAdjust="spacing" textLength="317.9648" x="149.6318" y="1209.3262">Mitigatie: Tool tijdig behandelen met lossingsmiddel.</text><text fill="#000000" font-family="sans-serif" font-size="12" lengthAdjust="spacing" textLength="3.8145" x="149.6318" y="1223.2949">&#160;</text><rect fill="none" height="486.2813" style="stroke:#000000;stroke-width:1.5;" width="562.418" x="27.4053" y="1246.125"/><path d="M156.9111,1246.125 L156.9111,1255.4219 L146.9111,1265.4219 L27.4053,1265.4219 " fill="none" style="stroke:#000000;stroke-width:1.5;"/><text fill="#000000" font-family="sans-serif" font-size="14" lengthAdjust="spacing" textLength="119.5059" x="30.4053" y="1260.1201">Risico 6: Warmte</text><rect fill="#F1F1F1" height="47.9375" rx="12.5" ry="12.5" style="stroke:#181818;stroke-width:0.5;" width="446.4219" x="85.4033" y="1282.4219"/><text fill="#000000" font-family="sans-serif" font-size="12" lengthAdjust="spacing" textLength="426.4219" x="95.4033" y="1303.5605">Beschrijving: De extruder geeft warmte af en staat niet in het hekwerk</text><text fill="#000000" font-family="sans-serif" font-size="12" lengthAdjust="spacing" textLength="178.6816" x="95.4033" y="1317.5293">:Waarschijnlijkheid: Gemiddel</text><rect fill="#F1F1F1" height="33.9688" rx="12.5" ry="12.5" style="stroke:#181818;stroke-width:0.5;" width="134.6328" x="241.2979" y="1350.3594"/><text fill="#000000" font-family="sans-serif" font-size="12" lengthAdjust="spacing" textLength="114.6328" x="251.2979" y="1371.498">Impact: Gemiddeld</text><path d="M112.3818,1404.3281 L107.3818,1428.2969 L112.3818,1452.2656 M504.8467,1404.3281 L509.8467,1428.2969 L504.8467,1452.2656 " fill="#F1F1F1" style="stroke:#181818;stroke-width:0.5;"/><text fill="#000000" font-family="sans-serif" font-size="12" lengthAdjust="spacing" textLength="382.4648" x="117.3818" y="1425.4668">Mitigatie: Afstand houden en waarschuwenbord dat het heet is.</text><text fill="#000000" font-family="sans-serif" font-size="12" lengthAdjust="spacing" textLength="3.8145" x="117.3818" y="1439.4355">&#160;</text><rect fill="none" height="258.1406" style="stroke:#000000;stroke-width:1.5;" width="542.418" x="37.4053" y="1462.2656"/><path d="M233.8828,1462.2656 L233.8828,1471.5625 L223.8828,1481.5625 L37.4053,1481.5625 " fill="none" style="stroke:#000000;stroke-width:1.5;"/><text fill="#000000" font-family="sans-serif" font-size="14" lengthAdjust="spacing" textLength="186.4775" x="40.4053" y="1476.2607">Risico 7: Materiaal te koud</text><rect fill="#F1F1F1" height="33.9688" rx="12.5" ry="12.5" style="stroke:#181818;stroke-width:0.5;" width="522.418" x="47.4053" y="1498.5625"/><text fill="#000000" font-family="sans-serif" font-size="12" lengthAdjust="spacing" textLength="502.418" x="57.4053" y="1519.7012">Beschrijving: Materiaal teveel afgekoeld, waardoor oppakken niet meer mogelijk is.</text><rect fill="#F1F1F1" height="33.9688" rx="12.5" ry="12.5" style="stroke:#181818;stroke-width:0.5;" width="202.2559" x="207.4863" y="1552.5313"/><text fill="#000000" font-family="sans-serif" font-size="12" lengthAdjust="spacing" textLength="182.2559" x="217.4863" y="1573.6699">Waarschijnlijkheid: Gemiddeld</text><rect fill="#F1F1F1" height="33.9688" rx="12.5" ry="12.5" style="stroke:#181818;stroke-width:0.5;" width="134.6328" x="241.2979" y="1606.5"/><text fill="#000000" font-family="sans-serif" font-size="12" lengthAdjust="spacing" textLength="114.6328" x="251.2979" y="1627.6387">Impact: Gemiddeld</text><path d="M109.3672,1660.4688 L104.3672,1684.4375 L109.3672,1708.4063 M507.8613,1660.4688 L512.8613,1684.4375 L507.8613,1708.4063 " fill="#F1F1F1" style="stroke:#181818;stroke-width:0.5;"/><text fill="#000000" font-family="sans-serif" font-size="12" lengthAdjust="spacing" textLength="388.4941" x="114.3672" y="1681.6074">Mitigatie: Extruder stopzetten na het cutten, tot de pers klaar is.</text><text fill="#000000" font-family="sans-serif" font-size="12" lengthAdjust="spacing" textLength="3.8145" x="114.3672" y="1695.5762">&#160;</text><line style="stroke:#181818;stroke-width:1.0;" x1="308.6143" x2="308.6143" y1="111.5625" y2="131.5625"/><polygon fill="#181818" points="304.6143,121.5625,308.6143,131.5625,312.6143,121.5625,308.6143,125.5625" style="stroke:#181818;stroke-width:1.0;"/><line style="stroke:#181818;stroke-width:1.0;" x1="308.6143" x2="308.6143" y1="165.5313" y2="185.5313"/><polygon fill="#181818" points="304.6143,175.5313,308.6143,185.5313,312.6143,175.5313,308.6143,179.5313" style="stroke:#181818;stroke-width:1.0;"/><line style="stroke:#181818;stroke-width:1.0;" x1="308.6143" x2="308.6143" y1="219.5" y2="239.5"/><polygon fill="#181818" points="304.6143,229.5,308.6143,239.5,312.6143,229.5,308.6143,233.5" style="stroke:#181818;stroke-width:1.0;"/><line style="stroke:#181818;stroke-width:1.0;" x1="308.6143" x2="308.6143" y1="358.7344" y2="378.7344"/><polygon fill="#181818" points="304.6143,368.7344,308.6143,378.7344,312.6143,368.7344,308.6143,372.7344" style="stroke:#181818;stroke-width:1.0;"/><line style="stroke:#181818;stroke-width:1.0;" x1="308.6143" x2="308.6143" y1="412.7031" y2="432.7031"/><polygon fill="#181818" points="304.6143,422.7031,308.6143,432.7031,312.6143,422.7031,308.6143,426.7031" style="stroke:#181818;stroke-width:1.0;"/><line style="stroke:#181818;stroke-width:1.0;" x1="308.6143" x2="308.6143" y1="466.6719" y2="486.6719"/><polygon fill="#181818" points="304.6143,476.6719,308.6143,486.6719,312.6143,476.6719,308.6143,480.6719" style="stroke:#181818;stroke-width:1.0;"/><line style="stroke:#181818;stroke-width:1.0;" x1="308.6143" x2="308.6143" y1="605.9063" y2="625.9063"/><polygon fill="#181818" points="304.6143,615.9063,308.6143,625.9063,312.6143,615.9063,308.6143,619.9063" style="stroke:#181818;stroke-width:1.0;"/><line style="stroke:#181818;stroke-width:1.0;" x1="308.6143" x2="308.6143" y1="659.875" y2="679.875"/><polygon fill="#181818" points="304.6143,669.875,308.6143,679.875,312.6143,669.875,308.6143,673.875" style="stroke:#181818;stroke-width:1.0;"/><line style="stroke:#181818;stroke-width:1.0;" x1="308.6143" x2="308.6143" y1="713.8438" y2="733.8438"/><polygon fill="#181818" points="304.6143,723.8438,308.6143,733.8438,312.6143,723.8438,308.6143,727.8438" style="stroke:#181818;stroke-width:1.0;"/><line style="stroke:#181818;stroke-width:1.0;" x1="308.6143" x2="308.6143" y1="853.0781" y2="873.0781"/><polygon fill="#181818" points="304.6143,863.0781,308.6143,873.0781,312.6143,863.0781,308.6143,867.0781" style="stroke:#181818;stroke-width:1.0;"/><line style="stroke:#181818;stroke-width:1.0;" x1="308.6143" x2="308.6143" y1="907.0469" y2="927.0469"/><polygon fill="#181818" points="304.6143,917.0469,308.6143,927.0469,312.6143,917.0469,308.6143,921.0469" style="stroke:#181818;stroke-width:1.0;"/><line style="stroke:#181818;stroke-width:1.0;" x1="308.6143" x2="308.6143" y1="961.0156" y2="981.0156"/><polygon fill="#181818" points="304.6143,971.0156,308.6143,981.0156,312.6143,971.0156,308.6143,975.0156" style="stroke:#181818;stroke-width:1.0;"/><line style="stroke:#181818;stroke-width:1.0;" x1="308.6143" x2="308.6143" y1="1114.2188" y2="1134.2188"/><polygon fill="#181818" points="304.6143,1124.2188,308.6143,1134.2188,312.6143,1124.2188,308.6143,1128.2188" style="stroke:#181818;stroke-width:1.0;"/><line style="stroke:#181818;stroke-width:1.0;" x1="308.6143" x2="308.6143" y1="1168.1875" y2="1188.1875"/><polygon fill="#181818" points="304.6143,1178.1875,308.6143,1188.1875,312.6143,1178.1875,308.6143,1182.1875" style="stroke:#181818;stroke-width:1.0;"/><line style="stroke:#181818;stroke-width:1.0;" x1="308.6143" x2="308.6143" y1="1330.3594" y2="1350.3594"/><polygon fill="#181818" points="304.6143,1340.3594,308.6143,1350.3594,312.6143,1340.3594,308.6143,1344.3594" style="stroke:#181818;stroke-width:1.0;"/><line style="stroke:#181818;stroke-width:1.0;" x1="308.6143" x2="308.6143" y1="1384.3281" y2="1404.3281"/><polygon fill="#181818" points="304.6143,1394.3281,308.6143,1404.3281,312.6143,1394.3281,308.6143,1398.3281" style="stroke:#181818;stroke-width:1.0;"/><line style="stroke:#181818;stroke-width:1.0;" x1="308.6143" x2="308.6143" y1="1532.5313" y2="1552.5313"/><polygon fill="#181818" points="304.6143,1542.5313,308.6143,1552.5313,312.6143,1542.5313,308.6143,1546.5313" style="stroke:#181818;stroke-width:1.0;"/><line style="stroke:#181818;stroke-width:1.0;" x1="308.6143" x2="308.6143" y1="1586.5" y2="1606.5"/><polygon fill="#181818" points="304.6143,1596.5,308.6143,1606.5,312.6143,1596.5,308.6143,1600.5" style="stroke:#181818;stroke-width:1.0;"/><line style="stroke:#181818;stroke-width:1.0;" x1="308.6143" x2="308.6143" y1="1640.4688" y2="1660.4688"/><polygon fill="#181818" points="304.6143,1650.4688,308.6143,1660.4688,312.6143,1650.4688,308.6143,1654.4688" style="stroke:#181818;stroke-width:1.0;"/><line style="stroke:#181818;stroke-width:1.0;" x1="308.6143" x2="308.6143" y1="1452.2656" y2="1498.5625"/><polygon fill="#181818" points="304.6143,1488.5625,308.6143,1498.5625,312.6143,1488.5625,308.6143,1492.5625" style="stroke:#181818;stroke-width:1.0;"/><line style="stroke:#181818;stroke-width:1.0;" x1="308.6143" x2="308.6143" y1="1236.125" y2="1282.4219"/><polygon fill="#181818" points="304.6143,1272.4219,308.6143,1282.4219,312.6143,1272.4219,308.6143,1276.4219" style="stroke:#181818;stroke-width:1.0;"/><!--SRC=[hLLTJnin47pFhrZn39NwBHrFfIrf9QWgGF3id3S-vtpUa-rBIgl-zuvz2QGjWLAHbrpYzUxCxEnUiiandTbeQr5UkUl8j1G9T79yST0ehvtr9dPSuzdYUpA9hVMz2ggZm7LItk3-ZmdXSoH1StWl3jTdJjNj-2yUJ931w_7an9ecJOEwdloSJ90esMJ5qzw8WPvNTAmSUregJvhfuxSK1gJTMnUfZZZMJR2B9O1LDySK4rAHjvpsQQLKq9b4mudw83L7d4kV3iSKLpX74hlmpYxQXgskQCgTrPgTNiTyxdfLfue-YPZrNwT0QbIoND4P6tOTdWs9H_b61aq07QzZOkuwyJP90CB3p59pKdLp5ziN5PspZnBY6Bw3vR4aa70aSrHcVO0prR833KYKq0Pca3SC1035mIfLWWq7XEVeFlOIKPlZFHgSA6KUIPyf5lor-1J4GMXW2ApHRkKHInrQ4BdElstOHBD_G9UN5NtrFEGI04ddewoZCtPfTEEQqlNRsxpf2YtHA9lRbRApLXnWPRCnca6cdiEJMUIBYCwcA_xJGzX8SwkSzR57xo1IXl0ROeU2mFQWJgygEhLHEMjynpwLH6So4mn3jqEdpJ7DO0xRZZEJ1LWC5ZBHsYUFiycVqcpfCELP66mxSYovnRExTK9MfK4hG68MyXK81hUBGpiFwNxwhokwv516kpImHmCz70yVxc0_7ODe7GLKCHbk7NSQ_O0clGC6RnvsmRyhS27YADc5nhQOSLwgdAsQ9yD9Z6N1bhlFCjkxUBwfw0ejIxo3rGSctYn2R85vmWhCuQJcPIibfTPzjkDuDDnc-pybotTpbF6QyYeSkxeQymuhzZEy6aYhj2wUWSIHxTzatyBJDqiC75eatC5xEsx9M91gZcOAy6sz1322gcs1fmZGOLLI9vX2SCqe_cFWxr5Xwtqa_NTEATTLXNOzv5_xbAIC6rmOgIqxl6Zn2m00]--></g></svg>