<svg xmlns="http://www.w3.org/2000/svg" xmlns:xlink="http://www.w3.org/1999/xlink" contentStyleType="text/css" height="1259px" preserveAspectRatio="none" style="width:617px;height:1259px;background:#FFFFFF;" version="1.1" viewBox="0 0 617 1259" width="617px" zoomAndPan="magnify"><title>Risicoanalyse voor LFT-handlingsmechanisme</title><defs/><g><text fill="#000000" font-family="sans-serif" font-size="14" font-weight="bold" lengthAdjust="spacing" textLength="362.4004" x="125.9141" y="32.9951">Risicoanalyse voor LFT-handlingsmechanisme</text><rect fill="none" height="237.1719" style="stroke:#000000;stroke-width:1.5;" width="397.8555" x="109.6865" y="48.2969"/><path d="M338.375,48.2969 L338.375,57.5938 L328.375,67.5938 L109.6865,67.5938 " fill="none" style="stroke:#000000;stroke-width:1.5;"/><text fill="#000000" font-family="sans-serif" font-size="14" lengthAdjust="spacing" textLength="218.6885" x="112.6865" y="62.292">Risico 1: Falen van de Extruder</text><rect fill="#F1F1F1" height="33.9688" rx="12.5" ry="12.5" style="stroke:#181818;stroke-width:0.5;" width="377.8555" x="119.6865" y="77.5938"/><text fill="#000000" font-family="sans-serif" font-size="12" lengthAdjust="spacing" textLength="357.8555" x="129.6865" y="98.7324">Beschrijving: Extruder start niet, waardoor het proces stopt</text><rect fill="#F1F1F1" height="33.9688" rx="12.5" ry="12.5" style="stroke:#181818;stroke-width:0.5;" width="202.2559" x="207.4863" y="131.5625"/><text fill="#000000" font-family="sans-serif" font-size="12" lengthAdjust="spacing" textLength="182.2559" x="217.4863" y="152.7012">Waarschijnlijkheid: Gemiddeld</text><rect fill="#F1F1F1" height="33.9688" rx="12.5" ry="12.5" style="stroke:#181818;stroke-width:0.5;" width="100.6836" x="258.2725" y="185.5313"/><text fill="#000000" font-family="sans-serif" font-size="12" lengthAdjust="spacing" textLength="80.6836" x="268.2725" y="206.6699">Impact: Hoog</text><rect fill="#F1F1F1" height="33.9688" rx="12.5" ry="12.5" style="stroke:#181818;stroke-width:0.5;" width="356.4863" x="130.3711" y="239.5"/><text fill="#000000" font-family="sans-serif" font-size="12" lengthAdjust="spacing" textLength="336.4863" x="140.3711" y="260.6387">Mitigatie: Regelmatig onderhoud en systeemmonitoring</text><rect fill="none" height="237.1719" style="stroke:#000000;stroke-width:1.5;" width="595.2285" x="11" y="295.4688"/><path d="M181.3301,295.4688 L181.3301,304.7656 L171.3301,314.7656 L11,314.7656 " fill="none" style="stroke:#000000;stroke-width:1.5;"/><text fill="#000000" font-family="sans-serif" font-size="14" lengthAdjust="spacing" textLength="160.3301" x="14" y="309.4639">Risico 2: Sensorstoring</text><rect fill="#F1F1F1" height="33.9688" rx="12.5" ry="12.5" style="stroke:#181818;stroke-width:0.5;" width="575.2285" x="21" y="324.7656"/><text fill="#000000" font-family="sans-serif" font-size="12" lengthAdjust="spacing" textLength="555.2285" x="31" y="345.9043">Beschrijving: Fotocel of Reed-schakelaar detecteert geen materiaal of gereedschapsposities</text><rect fill="#F1F1F1" height="33.9688" rx="12.5" ry="12.5" style="stroke:#181818;stroke-width:0.5;" width="165.9922" x="225.6182" y="378.7344"/><text fill="#000000" font-family="sans-serif" font-size="12" lengthAdjust="spacing" textLength="145.9922" x="235.6182" y="399.873">Waarschijnlijkheid: Laag</text><rect fill="#F1F1F1" height="33.9688" rx="12.5" ry="12.5" style="stroke:#181818;stroke-width:0.5;" width="100.6836" x="258.2725" y="432.7031"/><text fill="#000000" font-family="sans-serif" font-size="12" lengthAdjust="spacing" textLength="80.6836" x="268.2725" y="453.8418">Impact: Hoog</text><rect fill="#F1F1F1" height="33.9688" rx="12.5" ry="12.5" style="stroke:#181818;stroke-width:0.5;" width="506.9902" x="55.1191" y="486.6719"/><text fill="#000000" font-family="sans-serif" font-size="12" lengthAdjust="spacing" textLength="486.9902" x="65.1191" y="507.8105">Mitigatie: Regelmatige sensorcontroles en redundantie met secundaire sensoren</text><rect fill="none" height="237.1719" style="stroke:#000000;stroke-width:1.5;" width="571.0117" x="23.1084" y="542.6406"/><path d="M294.6855,542.6406 L294.6855,551.9375 L284.6855,561.9375 L23.1084,561.9375 " fill="none" style="stroke:#000000;stroke-width:1.5;"/><text fill="#000000" font-family="sans-serif" font-size="14" lengthAdjust="spacing" textLength="261.5771" x="26.1084" y="556.6357">Risico 3: Pneumatisch Systeem Falen</text><rect fill="#F1F1F1" height="33.9688" rx="12.5" ry="12.5" style="stroke:#181818;stroke-width:0.5;" width="551.0117" x="33.1084" y="571.9375"/><text fill="#000000" font-family="sans-serif" font-size="12" lengthAdjust="spacing" textLength="531.0117" x="43.1084" y="593.0762">Beschrijving: Falen van het pneumatische systeem verhindert de werking van de grijper</text><rect fill="#F1F1F1" height="33.9688" rx="12.5" ry="12.5" style="stroke:#181818;stroke-width:0.5;" width="202.2559" x="207.4863" y="625.9063"/><text fill="#000000" font-family="sans-serif" font-size="12" lengthAdjust="spacing" textLength="182.2559" x="217.4863" y="647.0449">Waarschijnlijkheid: Gemiddeld</text><rect fill="#F1F1F1" height="33.9688" rx="12.5" ry="12.5" style="stroke:#181818;stroke-width:0.5;" width="100.6836" x="258.2725" y="679.875"/><text fill="#000000" font-family="sans-serif" font-size="12" lengthAdjust="spacing" textLength="80.6836" x="268.2725" y="701.0137">Impact: Hoog</text><rect fill="#F1F1F1" height="33.9688" rx="12.5" ry="12.5" style="stroke:#181818;stroke-width:0.5;" width="532.0566" x="42.5859" y="733.8438"/><text fill="#000000" font-family="sans-serif" font-size="12" lengthAdjust="spacing" textLength="512.0566" x="52.5859" y="754.9824">Mitigatie: Noodstopprocedures en regelmatige inspectie van pneumatische leidingen</text><rect fill="none" height="237.1719" style="stroke:#000000;stroke-width:1.5;" width="467.3594" x="74.9346" y="789.8125"/><path d="M346.3613,789.8125 L346.3613,799.1094 L336.3613,809.1094 L74.9346,809.1094 " fill="none" style="stroke:#000000;stroke-width:1.5;"/><text fill="#000000" font-family="sans-serif" font-size="14" lengthAdjust="spacing" textLength="261.4268" x="77.9346" y="803.8076">Risico 4: Misalignment van Robotarm</text><rect fill="#F1F1F1" height="33.9688" rx="12.5" ry="12.5" style="stroke:#181818;stroke-width:0.5;" width="332.4922" x="142.3682" y="819.1094"/><text fill="#000000" font-family="sans-serif" font-size="12" lengthAdjust="spacing" textLength="312.4922" x="152.3682" y="840.248">Beschrijving: Robotarm bereikt niet de juiste positie</text><rect fill="#F1F1F1" height="33.9688" rx="12.5" ry="12.5" style="stroke:#181818;stroke-width:0.5;" width="165.9922" x="225.6182" y="873.0781"/><text fill="#000000" font-family="sans-serif" font-size="12" lengthAdjust="spacing" textLength="145.9922" x="235.6182" y="894.2168">Waarschijnlijkheid: Laag</text><rect fill="#F1F1F1" height="33.9688" rx="12.5" ry="12.5" style="stroke:#181818;stroke-width:0.5;" width="134.6328" x="241.2979" y="927.0469"/><text fill="#000000" font-family="sans-serif" font-size="12" lengthAdjust="spacing" textLength="114.6328" x="251.2979" y="948.1855">Impact: Gemiddeld</text><rect fill="#F1F1F1" height="33.9688" rx="12.5" ry="12.5" style="stroke:#181818;stroke-width:0.5;" width="447.3594" x="84.9346" y="981.0156"/><text fill="#000000" font-family="sans-serif" font-size="12" lengthAdjust="spacing" textLength="427.3594" x="94.9346" y="1002.1543">Mitigatie: Gebruik van positionele sensoren en herkalibratieprotocollen</text><rect fill="none" height="211.1406" style="stroke:#000000;stroke-width:1.5;" width="373.4102" x="121.9092" y="1036.9844"/><path d="M373.6895,1036.9844 L373.6895,1046.2813 L363.6895,1056.2813 L121.9092,1056.2813 " fill="none" style="stroke:#000000;stroke-width:1.5;"/><text fill="#000000" font-family="sans-serif" font-size="14" lengthAdjust="spacing" textLength="241.7803" x="124.9092" y="1050.9795">Risico 5: Verstopte gripperneedles</text><rect fill="#F1F1F1" height="47.9375" rx="12.5" ry="12.5" style="stroke:#181818;stroke-width:0.5;" width="353.4102" x="131.9092" y="1066.2813"/><text fill="#000000" font-family="sans-serif" font-size="12" lengthAdjust="spacing" textLength="333.4102" x="141.9092" y="1087.4199">Beschrijving: Gripper needles vastgeklemd in beplating</text><text fill="#000000" font-family="sans-serif" font-size="12" lengthAdjust="spacing" textLength="178.6816" x="141.9092" y="1101.3887">:Waarschijnlijkheid: Gemiddel</text><rect fill="#F1F1F1" height="33.9688" rx="12.5" ry="12.5" style="stroke:#181818;stroke-width:0.5;" width="134.6328" x="241.2979" y="1134.2188"/><text fill="#000000" font-family="sans-serif" font-size="12" lengthAdjust="spacing" textLength="114.6328" x="251.2979" y="1155.3574">Impact: Gemiddeld</text><path d="M144.6318,1188.1875 L139.6318,1212.1563 L144.6318,1236.125 M472.5967,1188.1875 L477.5967,1212.1563 L472.5967,1236.125 " fill="#F1F1F1" style="stroke:#181818;stroke-width:0.5;"/><text fill="#000000" font-family="sans-serif" font-size="12" lengthAdjust="spacing" textLength="317.9648" x="149.6318" y="1209.3262">Mitigatie: Tool tijdig behandelen met lossingsmiddel.</text><text fill="#000000" font-family="sans-serif" font-size="12" lengthAdjust="spacing" textLength="3.8145" x="149.6318" y="1223.2949">&#160;</text><line style="stroke:#181818;stroke-width:1.0;" x1="308.6143" x2="308.6143" y1="111.5625" y2="131.5625"/><polygon fill="#181818" points="304.6143,121.5625,308.6143,131.5625,312.6143,121.5625,308.6143,125.5625" style="stroke:#181818;stroke-width:1.0;"/><line style="stroke:#181818;stroke-width:1.0;" x1="308.6143" x2="308.6143" y1="165.5313" y2="185.5313"/><polygon fill="#181818" points="304.6143,175.5313,308.6143,185.5313,312.6143,175.5313,308.6143,179.5313" style="stroke:#181818;stroke-width:1.0;"/><line style="stroke:#181818;stroke-width:1.0;" x1="308.6143" x2="308.6143" y1="219.5" y2="239.5"/><polygon fill="#181818" points="304.6143,229.5,308.6143,239.5,312.6143,229.5,308.6143,233.5" style="stroke:#181818;stroke-width:1.0;"/><line style="stroke:#181818;stroke-width:1.0;" x1="308.6143" x2="308.6143" y1="358.7344" y2="378.7344"/><polygon fill="#181818" points="304.6143,368.7344,308.6143,378.7344,312.6143,368.7344,308.6143,372.7344" style="stroke:#181818;stroke-width:1.0;"/><line style="stroke:#181818;stroke-width:1.0;" x1="308.6143" x2="308.6143" y1="412.7031" y2="432.7031"/><polygon fill="#181818" points="304.6143,422.7031,308.6143,432.7031,312.6143,422.7031,308.6143,426.7031" style="stroke:#181818;stroke-width:1.0;"/><line style="stroke:#181818;stroke-width:1.0;" x1="308.6143" x2="308.6143" y1="466.6719" y2="486.6719"/><polygon fill="#181818" points="304.6143,476.6719,308.6143,486.6719,312.6143,476.6719,308.6143,480.6719" style="stroke:#181818;stroke-width:1.0;"/><line style="stroke:#181818;stroke-width:1.0;" x1="308.6143" x2="308.6143" y1="605.9063" y2="625.9063"/><polygon fill="#181818" points="304.6143,615.9063,308.6143,625.9063,312.6143,615.9063,308.6143,619.9063" style="stroke:#181818;stroke-width:1.0;"/><line style="stroke:#181818;stroke-width:1.0;" x1="308.6143" x2="308.6143" y1="659.875" y2="679.875"/><polygon fill="#181818" points="304.6143,669.875,308.6143,679.875,312.6143,669.875,308.6143,673.875" style="stroke:#181818;stroke-width:1.0;"/><line style="stroke:#181818;stroke-width:1.0;" x1="308.6143" x2="308.6143" y1="713.8438" y2="733.8438"/><polygon fill="#181818" points="304.6143,723.8438,308.6143,733.8438,312.6143,723.8438,308.6143,727.8438" style="stroke:#181818;stroke-width:1.0;"/><line style="stroke:#181818;stroke-width:1.0;" x1="308.6143" x2="308.6143" y1="853.0781" y2="873.0781"/><polygon fill="#181818" points="304.6143,863.0781,308.6143,873.0781,312.6143,863.0781,308.6143,867.0781" style="stroke:#181818;stroke-width:1.0;"/><line style="stroke:#181818;stroke-width:1.0;" x1="308.6143" x2="308.6143" y1="907.0469" y2="927.0469"/><polygon fill="#181818" points="304.6143,917.0469,308.6143,927.0469,312.6143,917.0469,308.6143,921.0469" style="stroke:#181818;stroke-width:1.0;"/><line style="stroke:#181818;stroke-width:1.0;" x1="308.6143" x2="308.6143" y1="961.0156" y2="981.0156"/><polygon fill="#181818" points="304.6143,971.0156,308.6143,981.0156,312.6143,971.0156,308.6143,975.0156" style="stroke:#181818;stroke-width:1.0;"/><line style="stroke:#181818;stroke-width:1.0;" x1="308.6143" x2="308.6143" y1="1114.2188" y2="1134.2188"/><polygon fill="#181818" points="304.6143,1124.2188,308.6143,1134.2188,312.6143,1124.2188,308.6143,1128.2188" style="stroke:#181818;stroke-width:1.0;"/><line style="stroke:#181818;stroke-width:1.0;" x1="308.6143" x2="308.6143" y1="1168.1875" y2="1188.1875"/><polygon fill="#181818" points="304.6143,1178.1875,308.6143,1188.1875,312.6143,1178.1875,308.6143,1182.1875" style="stroke:#181818;stroke-width:1.0;"/><!--SRC=[hLHBRzGm4BxdLunwfaYyBkcjY5sGjWYr5PozyU3Cnl54jhEbGltlV4vskmMnBPNOooRnUEPxsLcoPxgK98sQOFnjOjggHbejhazR4woNu5BF3Pu5_rMLEWc3YQQdo4qsmM7_puhmEzTeERvNZ-rhRvfk_ee75tKCTbvPYMlpCfhRwgwgq2XB5WrqCcEWLpKjZET0MnF8CdtuaUE8jYUx8VKvfwQDija2M7s_J2cZ5GNX_89kZ8csa6Wvqn2ruOHr7VBPtE8Rrj54Di7BfcjPR4rBxiLQzdPNywaVJ9Dh-gZgTfykWDIPB5pJ9JlsFPuTQS3uLaTB09rkKsRkUmsIDGBXMM5fEPkc_HlRrpLTSKWQqrn-XEL2CqXuqk-OpFOKQwPZ3ngGACC6Pf1t30G0nL6CcOeTHvINwY4DcZ2RqoCQh8nnpwJFb2RyZOOSrKDeO8XiORS9gAKU5YHkohl4VJM79tHvKzENm6CP0P1qDSiw9-EOHlUfcLm_xEQzAxI5KLBioYLPDnmHPRSFcaEdWUD_YyXdLLj2D-NFZd4lpK4v2Mc0Tn2fGFWDiST0O7jIfxSrNKWoNbpeEUIfqQMk5OUXFwBJVfdM28Tqyvaf0cn6WKoqoydpOlAdD0zqMF8wZjBD7AVU6jWVab1KQM45IAnZsGB1a7RriFEC7gV_hgQl7AUZFHaumC20n2E7HzWlvoBQLG5Loeuxpxs57z1ayC0GtDCf-7S5hbKzPTbOt1PhBfSgbwYMa-4rfUc2dVQ-hEv-0G00]--></g></svg>