<svg xmlns="http://www.w3.org/2000/svg" xmlns:xlink="http://www.w3.org/1999/xlink" contentStyleType="text/css" height="997px" preserveAspectRatio="none" style="width:680px;height:997px;background:#FFFFFF;" version="1.1" viewBox="0 0 680 997" width="680px" zoomAndPan="magnify"><title>Systeem</title><defs/><g><text fill="#000000" font-family="sans-serif" font-size="14" font-weight="bold" lengthAdjust="spacing" textLength="67.8125" x="304.9775" y="32.9951">Systeem</text><rect fill="#D3D3D3" height="237.1719" style="stroke:#000000;stroke-width:1.5;" width="571.0117" x="54.8779" y="48.2969"/><path d="M326.4551,48.2969 L326.4551,57.5938 L316.4551,67.5938 L54.8779,67.5938 " fill="none" style="stroke:#000000;stroke-width:1.5;"/><text fill="#000000" font-family="sans-serif" font-size="14" lengthAdjust="spacing" textLength="261.5771" x="57.8779" y="62.292">Risico 5: Pneumatisch Systeem Falen</text><rect fill="#F1F1F1" height="33.9688" rx="12.5" ry="12.5" style="stroke:#181818;stroke-width:0.5;" width="551.0117" x="64.8779" y="77.5938"/><text fill="#000000" font-family="sans-serif" font-size="12" lengthAdjust="spacing" textLength="531.0117" x="74.8779" y="98.7324">Beschrijving: Falen van het pneumatische systeem verhindert de werking van de grijper</text><rect fill="#F1F1F1" height="33.9688" rx="12.5" ry="12.5" style="stroke:#181818;stroke-width:0.5;" width="202.2559" x="239.2559" y="131.5625"/><text fill="#000000" font-family="sans-serif" font-size="12" lengthAdjust="spacing" textLength="182.2559" x="249.2559" y="152.7012">Waarschijnlijkheid: Gemiddeld</text><rect fill="#F1F1F1" height="33.9688" rx="12.5" ry="12.5" style="stroke:#181818;stroke-width:0.5;" width="100.6836" x="290.042" y="185.5313"/><text fill="#000000" font-family="sans-serif" font-size="12" lengthAdjust="spacing" textLength="80.6836" x="300.042" y="206.6699">Impact: Hoog</text><rect fill="#F1F1F1" height="33.9688" rx="12.5" ry="12.5" style="stroke:#181818;stroke-width:0.5;" width="532.0566" x="74.3555" y="239.5"/><text fill="#000000" font-family="sans-serif" font-size="12" lengthAdjust="spacing" textLength="512.0566" x="84.3555" y="260.6387">Mitigatie: Noodstopprocedures en regelmatige inspectie van pneumatische leidingen</text><rect fill="#D3D3D3" height="237.1719" style="stroke:#000000;stroke-width:1.5;" width="387.5547" x="146.6064" y="295.4688"/><path d="M418.0332,295.4688 L418.0332,304.7656 L408.0332,314.7656 L146.6064,314.7656 " fill="none" style="stroke:#000000;stroke-width:1.5;"/><text fill="#000000" font-family="sans-serif" font-size="14" lengthAdjust="spacing" textLength="261.4268" x="149.6064" y="309.4639">Risico 6: Misalignment van Robotarm</text><rect fill="#F1F1F1" height="33.9688" rx="12.5" ry="12.5" style="stroke:#181818;stroke-width:0.5;" width="287.6914" x="196.5381" y="324.7656"/><text fill="#000000" font-family="sans-serif" font-size="12" lengthAdjust="spacing" textLength="267.6914" x="206.5381" y="345.9043">Beschrijving: Robotarm op incorrecte positie</text><rect fill="#F1F1F1" height="33.9688" rx="12.5" ry="12.5" style="stroke:#181818;stroke-width:0.5;" width="165.9922" x="257.3877" y="378.7344"/><text fill="#000000" font-family="sans-serif" font-size="12" lengthAdjust="spacing" textLength="145.9922" x="267.3877" y="399.873">Waarschijnlijkheid: Laag</text><rect fill="#F1F1F1" height="33.9688" rx="12.5" ry="12.5" style="stroke:#181818;stroke-width:0.5;" width="134.6328" x="273.0674" y="432.7031"/><text fill="#000000" font-family="sans-serif" font-size="12" lengthAdjust="spacing" textLength="114.6328" x="283.0674" y="453.8418">Impact: Gemiddeld</text><rect fill="#F1F1F1" height="33.9688" rx="12.5" ry="12.5" style="stroke:#181818;stroke-width:0.5;" width="367.5547" x="156.6064" y="486.6719"/><text fill="#000000" font-family="sans-serif" font-size="12" lengthAdjust="spacing" textLength="347.5547" x="166.6064" y="507.8105">Mitigatie: Initiele calibratie dmv verplaatsbaar werkobject</text><rect fill="#D3D3D3" height="197.1719" style="stroke:#000000;stroke-width:1.5;" width="466.4219" x="107.1729" y="542.6406"/><path d="M236.6787,542.6406 L236.6787,551.9375 L226.6787,561.9375 L107.1729,561.9375 " fill="none" style="stroke:#000000;stroke-width:1.5;"/><text fill="#000000" font-family="sans-serif" font-size="14" lengthAdjust="spacing" textLength="119.5059" x="110.1729" y="556.6357">Risico 7: Warmte</text><rect fill="#F1F1F1" height="47.9375" rx="12.5" ry="12.5" style="stroke:#181818;stroke-width:0.5;" width="446.4219" x="117.1729" y="571.9375"/><text fill="#000000" font-family="sans-serif" font-size="12" lengthAdjust="spacing" textLength="426.4219" x="127.1729" y="593.0762">Beschrijving: De extruder geeft warmte af en staat niet in het hekwerk</text><text fill="#000000" font-family="sans-serif" font-size="12" lengthAdjust="spacing" textLength="178.6816" x="127.1729" y="607.0449">:Waarschijnlijkheid: Gemiddel</text><rect fill="#F1F1F1" height="33.9688" rx="12.5" ry="12.5" style="stroke:#181818;stroke-width:0.5;" width="134.6328" x="273.0674" y="639.875"/><text fill="#000000" font-family="sans-serif" font-size="12" lengthAdjust="spacing" textLength="114.6328" x="283.0674" y="661.0137">Impact: Gemiddeld</text><rect fill="#F1F1F1" height="33.9688" rx="12.5" ry="12.5" style="stroke:#181818;stroke-width:0.5;" width="402.4648" x="139.1514" y="693.8438"/><text fill="#000000" font-family="sans-serif" font-size="12" lengthAdjust="spacing" textLength="382.4648" x="149.1514" y="714.9824">Mitigatie: Afstand houden en waarschuwenbord dat het heet is.</text><rect fill="#D3D3D3" height="237.1719" style="stroke:#000000;stroke-width:1.5;" width="658.7676" x="11" y="749.8125"/><path d="M207.4775,749.8125 L207.4775,759.1094 L197.4775,769.1094 L11,769.1094 " fill="none" style="stroke:#000000;stroke-width:1.5;"/><text fill="#000000" font-family="sans-serif" font-size="14" lengthAdjust="spacing" textLength="186.4775" x="14" y="763.8076">Risico 8: Materiaal te koud</text><rect fill="#F1F1F1" height="33.9688" rx="12.5" ry="12.5" style="stroke:#181818;stroke-width:0.5;" width="522.418" x="79.1748" y="779.1094"/><text fill="#000000" font-family="sans-serif" font-size="12" lengthAdjust="spacing" textLength="502.418" x="89.1748" y="800.248">Beschrijving: Materiaal teveel afgekoeld, waardoor oppakken niet meer mogelijk is.</text><rect fill="#F1F1F1" height="33.9688" rx="12.5" ry="12.5" style="stroke:#181818;stroke-width:0.5;" width="202.2559" x="239.2559" y="833.0781"/><text fill="#000000" font-family="sans-serif" font-size="12" lengthAdjust="spacing" textLength="182.2559" x="249.2559" y="854.2168">Waarschijnlijkheid: Gemiddeld</text><rect fill="#F1F1F1" height="33.9688" rx="12.5" ry="12.5" style="stroke:#181818;stroke-width:0.5;" width="134.6328" x="273.0674" y="887.0469"/><text fill="#000000" font-family="sans-serif" font-size="12" lengthAdjust="spacing" textLength="114.6328" x="283.0674" y="908.1855">Impact: Gemiddeld</text><rect fill="#F1F1F1" height="33.9688" rx="12.5" ry="12.5" style="stroke:#181818;stroke-width:0.5;" width="638.7676" x="21" y="941.0156"/><text fill="#000000" font-family="sans-serif" font-size="12" lengthAdjust="spacing" textLength="618.7676" x="31" y="962.1543">Mitigatie: Extruder stopzetten na het cutten tot de pers klaar is, om niet af te koelen in de buitenlucht.</text><line style="stroke:#181818;stroke-width:1.0;" x1="340.3838" x2="340.3838" y1="111.5625" y2="131.5625"/><polygon fill="#181818" points="336.3838,121.5625,340.3838,131.5625,344.3838,121.5625,340.3838,125.5625" style="stroke:#181818;stroke-width:1.0;"/><line style="stroke:#181818;stroke-width:1.0;" x1="340.3838" x2="340.3838" y1="165.5313" y2="185.5313"/><polygon fill="#181818" points="336.3838,175.5313,340.3838,185.5313,344.3838,175.5313,340.3838,179.5313" style="stroke:#181818;stroke-width:1.0;"/><line style="stroke:#181818;stroke-width:1.0;" x1="340.3838" x2="340.3838" y1="219.5" y2="239.5"/><polygon fill="#181818" points="336.3838,229.5,340.3838,239.5,344.3838,229.5,340.3838,233.5" style="stroke:#181818;stroke-width:1.0;"/><line style="stroke:#181818;stroke-width:1.0;" x1="340.3838" x2="340.3838" y1="358.7344" y2="378.7344"/><polygon fill="#181818" points="336.3838,368.7344,340.3838,378.7344,344.3838,368.7344,340.3838,372.7344" style="stroke:#181818;stroke-width:1.0;"/><line style="stroke:#181818;stroke-width:1.0;" x1="340.3838" x2="340.3838" y1="412.7031" y2="432.7031"/><polygon fill="#181818" points="336.3838,422.7031,340.3838,432.7031,344.3838,422.7031,340.3838,426.7031" style="stroke:#181818;stroke-width:1.0;"/><line style="stroke:#181818;stroke-width:1.0;" x1="340.3838" x2="340.3838" y1="466.6719" y2="486.6719"/><polygon fill="#181818" points="336.3838,476.6719,340.3838,486.6719,344.3838,476.6719,340.3838,480.6719" style="stroke:#181818;stroke-width:1.0;"/><line style="stroke:#181818;stroke-width:1.0;" x1="340.3838" x2="340.3838" y1="619.875" y2="639.875"/><polygon fill="#181818" points="336.3838,629.875,340.3838,639.875,344.3838,629.875,340.3838,633.875" style="stroke:#181818;stroke-width:1.0;"/><line style="stroke:#181818;stroke-width:1.0;" x1="340.3838" x2="340.3838" y1="673.8438" y2="693.8438"/><polygon fill="#181818" points="336.3838,683.8438,340.3838,693.8438,344.3838,683.8438,340.3838,687.8438" style="stroke:#181818;stroke-width:1.0;"/><line style="stroke:#181818;stroke-width:1.0;" x1="340.3838" x2="340.3838" y1="813.0781" y2="833.0781"/><polygon fill="#181818" points="336.3838,823.0781,340.3838,833.0781,344.3838,823.0781,340.3838,827.0781" style="stroke:#181818;stroke-width:1.0;"/><line style="stroke:#181818;stroke-width:1.0;" x1="340.3838" x2="340.3838" y1="867.0469" y2="887.0469"/><polygon fill="#181818" points="336.3838,877.0469,340.3838,887.0469,344.3838,877.0469,340.3838,881.0469" style="stroke:#181818;stroke-width:1.0;"/><line style="stroke:#181818;stroke-width:1.0;" x1="340.3838" x2="340.3838" y1="921.0156" y2="941.0156"/><polygon fill="#181818" points="336.3838,931.0156,340.3838,941.0156,344.3838,931.0156,340.3838,935.0156" style="stroke:#181818;stroke-width:1.0;"/><!--SRC=[dPHDRzim38Rl_HL4pyLk-u1pMlVH5LY7eJlqJ5kip5WM3ObErWtxxwEK1l60BitcWm6P5Fdm9Mbb3GJV7h8IZMTdO4yUE4wOS0HxAojBX9_LKfvBIOxIEmcIe0tO3GUB7NoIERgTDR3lzIhHG_NuLT-7YEUtdBaJUDd0rqZpYCgvw_Say143nVD5tkQIp9vulU7ecvqTDXYX9uNf484WFuROKEev6go28zXIihfylM97Rv4cIgj3_3l4PFTv7GElXvxODN158pj7mItyhiS9EstWauXVVBwnihmXK0DVH5nMcQOa7RavKGPZJUGf54XFm35Fr9bpnVc3FbXYuwIuMiZcIB7h_wBWgmPkEAF97KUAMaFUIYkAQJoYuDu5P3AUJb8o8e99ieMdPuJvZEYVqEGflHR2NCSIskQjCzesbO_Wnatfr1GGDRUMgdPAshNHhE1K3LutS6UrA1qf-3q1VTSqsqI09xfNsDOhWFUbFrcD02BREF5kgdeQ2ijf8_BlQhozjvJHGI-650l2TXT_tb9iRSt0eJw25AZyukIHU6CZWKg94GDOXOEbEABCqdT354mHJuCO-KLbScBhRFECms2KLQAHJCLHRAHDYGFRVstICpfzs3UjxDGFKYqCM8NfvdfIgIjk-vnX26M6E5-0Z3jKQs-LWCeVW-lsjpFRlJ1tlUv5_Gq0]--></g></svg>