<svg xmlns="http://www.w3.org/2000/svg" xmlns:xlink="http://www.w3.org/1999/xlink" contentStyleType="text/css" height="2124px" preserveAspectRatio="none" style="width:875px;height:2124px;background:#FFFFFF;" version="1.1" viewBox="0 0 875 2124" width="875px" zoomAndPan="magnify"><defs/><g><!--cluster Idle--><g id="cluster_Idle"><path d="M62.5,7 L717.5,7 A12.5,12.5 0 0 1 730,19.5 L730,28.2969 L50,28.2969 L50,19.5 A12.5,12.5 0 0 1 62.5,7 " fill="#F1F1F1" style="stroke:#F1F1F1;stroke-width:1.0;"/><rect fill="none" height="2111.4" rx="12.5" ry="12.5" style="stroke:#181818;stroke-width:0.5;" width="680" x="50" y="7"/><line style="stroke:#181818;stroke-width:0.5;" x1="50" x2="730" y1="28.2969" y2="28.2969"/><text fill="#000000" font-family="sans-serif" font-size="14" lengthAdjust="spacing" textLength="25.5186" x="377.5" y="23.9951">Idle</text></g><!--cluster Extruding--><g id="cluster_Extruding"><path d="M102.5,252.27 L677.5,252.27 A12.5,12.5 0 0 1 690,264.77 L690,273.5669 L90,273.5669 L90,264.77 A12.5,12.5 0 0 1 102.5,252.27 " fill="#F1F1F1" style="stroke:#F1F1F1;stroke-width:1.0;"/><rect fill="none" height="1767.53" rx="12.5" ry="12.5" style="stroke:#181818;stroke-width:0.5;" width="600" x="90" y="252.27"/><line style="stroke:#181818;stroke-width:0.5;" x1="90" x2="690" y1="273.5669" y2="273.5669"/><text fill="#000000" font-family="sans-serif" font-size="14" lengthAdjust="spacing" textLength="67.7852" x="356.5" y="269.2651">Extruding</text></g><!--cluster WaitingForDetection--><g id="cluster_WaitingForDetection"><path d="M142.5,497.53 L625.5,497.53 A12.5,12.5 0 0 1 638,510.03 L638,518.8269 L130,518.8269 L130,510.03 A12.5,12.5 0 0 1 142.5,497.53 " fill="#F1F1F1" style="stroke:#F1F1F1;stroke-width:1.0;"/><rect fill="none" height="1482.27" rx="12.5" ry="12.5" style="stroke:#181818;stroke-width:0.5;" width="508" x="130" y="497.53"/><line style="stroke:#181818;stroke-width:0.5;" x1="130" x2="638" y1="518.8269" y2="518.8269"/><text fill="#000000" font-family="sans-serif" font-size="14" lengthAdjust="spacing" textLength="143.835" x="312.5" y="514.5251">WaitingForDetection</text></g><!--cluster Gripping--><g id="cluster_Gripping"><path d="M182.5,869.8 L573.5,869.8 A12.5,12.5 0 0 1 586,882.3 L586,891.0969 L170,891.0969 L170,882.3 A12.5,12.5 0 0 1 182.5,869.8 " fill="#F1F1F1" style="stroke:#F1F1F1;stroke-width:1.0;"/><rect fill="none" height="1070" rx="12.5" ry="12.5" style="stroke:#181818;stroke-width:0.5;" width="416" x="170" y="869.8"/><line style="stroke:#181818;stroke-width:0.5;" x1="170" x2="586" y1="891.0969" y2="891.0969"/><text fill="#000000" font-family="sans-serif" font-size="14" lengthAdjust="spacing" textLength="59.917" x="348.5" y="886.7951">Gripping</text></g><!--cluster CheckingLength--><g id="cluster_CheckingLength"><path d="M222.5,1130.8 L521.5,1130.8 A12.5,12.5 0 0 1 534,1143.3 L534,1152.0969 L210,1152.0969 L210,1143.3 A12.5,12.5 0 0 1 222.5,1130.8 " fill="#F1F1F1" style="stroke:#F1F1F1;stroke-width:1.0;"/><rect fill="none" height="769" rx="12.5" ry="12.5" style="stroke:#181818;stroke-width:0.5;" width="324" x="210" y="1130.8"/><line style="stroke:#181818;stroke-width:0.5;" x1="210" x2="534" y1="1152.0969" y2="1152.0969"/><text fill="#000000" font-family="sans-serif" font-size="14" lengthAdjust="spacing" textLength="113.251" x="315.5" y="1147.7951">CheckingLength</text></g><!--cluster ConveyorRunning--><g id="cluster_ConveyorRunning"><path d="M262.5,1645.8 L469.5,1645.8 A12.5,12.5 0 0 1 482,1658.3 L482,1667.0969 L250,1667.0969 L250,1658.3 A12.5,12.5 0 0 1 262.5,1645.8 " fill="#F1F1F1" style="stroke:#F1F1F1;stroke-width:1.0;"/><rect fill="none" height="214" rx="12.5" ry="12.5" style="stroke:#181818;stroke-width:0.5;" width="232" x="250" y="1645.8"/><line style="stroke:#181818;stroke-width:0.5;" x1="250" x2="482" y1="1667.0969" y2="1667.0969"/><text fill="#000000" font-family="sans-serif" font-size="14" lengthAdjust="spacing" textLength="124.7148" x="304" y="1662.7951">ConveyorRunning</text></g><ellipse cx="548" cy="60" fill="#222222" rx="10" ry="10" style="stroke:#222222;stroke-width:1.0;"/><g id="Idle.WaitingForStart"><rect fill="#F1F1F1" height="50.2656" rx="12.5" ry="12.5" style="stroke:#181818;stroke-width:0.5;" width="160.3496" x="467.83" y="131"/><line style="stroke:#181818;stroke-width:0.5;" x1="467.83" x2="628.1796" y1="157.2969" y2="157.2969"/><text fill="#000000" font-family="sans-serif" font-size="14" lengthAdjust="spacing" textLength="110.0244" x="492.9926" y="148.9951">WaitingForStart</text><text fill="#000000" font-family="sans-serif" font-size="12" lengthAdjust="spacing" textLength="140.3496" x="472.83" y="173.4355">PLC stuurt start signaal</text></g><ellipse cx="462" cy="305.27" fill="#222222" rx="10" ry="10" style="stroke:#222222;stroke-width:1.0;"/><g id="Idle.Extruding.ExtruderRunning"><rect fill="#F1F1F1" height="50.2656" rx="12.5" ry="12.5" style="stroke:#181818;stroke-width:0.5;" width="254.1582" x="334.92" y="376.27"/><line style="stroke:#181818;stroke-width:0.5;" x1="334.92" x2="589.0782" y1="402.5669" y2="402.5669"/><text fill="#000000" font-family="sans-serif" font-size="14" lengthAdjust="spacing" textLength="118.501" x="402.7486" y="394.2651">ExtruderRunning</text><text fill="#000000" font-family="sans-serif" font-size="12" lengthAdjust="spacing" textLength="234.1582" x="339.92" y="418.7055">Extruder gestart, materiaal extruderen</text></g><ellipse cx="290" cy="550.53" fill="#222222" rx="10" ry="10" style="stroke:#222222;stroke-width:1.0;"/><g id="Idle.Extruding.WaitingForDetection.DetectMaterial"><rect fill="#F1F1F1" height="50.2656" rx="12.5" ry="12.5" style="stroke:#181818;stroke-width:0.5;" width="213.7109" x="183.14" y="621.53"/><line style="stroke:#181818;stroke-width:0.5;" x1="183.14" x2="396.8509" y1="647.8269" y2="647.8269"/><text fill="#000000" font-family="sans-serif" font-size="14" lengthAdjust="spacing" textLength="103.5576" x="238.2167" y="639.5251">DetectMaterial</text><text fill="#000000" font-family="sans-serif" font-size="12" lengthAdjust="spacing" textLength="193.7109" x="188.14" y="663.9655">Fotocel controleert op materiaal</text></g><g id="Idle.Extruding.WaitingForDetection.MaterialDetected"><rect fill="#F1F1F1" height="50" rx="12.5" ry="12.5" style="stroke:#181818;stroke-width:0.5;" width="141.0576" x="219.47" y="748.8"/><line style="stroke:#181818;stroke-width:0.5;" x1="219.47" x2="360.5276" y1="775.0969" y2="775.0969"/><text fill="#000000" font-family="sans-serif" font-size="14" lengthAdjust="spacing" textLength="121.0576" x="229.47" y="766.7951">MaterialDetected</text></g><ellipse cx="371" cy="922.8" fill="#222222" rx="10" ry="10" style="stroke:#222222;stroke-width:1.0;"/><g id="Idle.Extruding.WaitingForDetection.Gripping.GripperIn"><rect fill="#F1F1F1" height="50" rx="12.5" ry="12.5" style="stroke:#181818;stroke-width:0.5;" width="85.6387" x="339.18" y="1009.8"/><line style="stroke:#181818;stroke-width:0.5;" x1="339.18" x2="424.8187" y1="1036.0969" y2="1036.0969"/><text fill="#000000" font-family="sans-serif" font-size="14" lengthAdjust="spacing" textLength="65.6387" x="349.18" y="1027.7951">GripperIn</text></g><ellipse cx="297" cy="1183.8" fill="#222222" rx="10" ry="10" style="stroke:#222222;stroke-width:1.0;"/><g id="Idle.Extruding.WaitingForDetection.Gripping.CheckingLength.LengthOK"><rect fill="#F1F1F1" height="50" rx="12.5" ry="12.5" style="stroke:#181818;stroke-width:0.5;" width="88.7354" x="252.63" y="1270.8"/><line style="stroke:#181818;stroke-width:0.5;" x1="252.63" x2="341.3654" y1="1297.0969" y2="1297.0969"/><text fill="#000000" font-family="sans-serif" font-size="14" lengthAdjust="spacing" textLength="68.7354" x="262.63" y="1288.7951">LengthOK</text></g><g id="Idle.Extruding.WaitingForDetection.Gripping.CheckingLength.Cutting"><rect fill="#F1F1F1" height="50" rx="12.5" ry="12.5" style="stroke:#181818;stroke-width:0.5;" width="71.2764" x="261.36" y="1397.8"/><line style="stroke:#181818;stroke-width:0.5;" x1="261.36" x2="332.6364" y1="1424.0969" y2="1424.0969"/><text fill="#000000" font-family="sans-serif" font-size="14" lengthAdjust="spacing" textLength="51.2764" x="271.36" y="1415.7951">Cutting</text></g><g id="Idle.Extruding.WaitingForDetection.Gripping.CheckingLength.Placing"><rect fill="#F1F1F1" height="50" rx="12.5" ry="12.5" style="stroke:#181818;stroke-width:0.5;" width="70.2578" x="298.87" y="1524.8"/><line style="stroke:#181818;stroke-width:0.5;" x1="298.87" x2="369.1278" y1="1551.0969" y2="1551.0969"/><text fill="#000000" font-family="sans-serif" font-size="14" lengthAdjust="spacing" textLength="50.2578" x="308.87" y="1542.7951">Placing</text></g><ellipse cx="309" cy="1698.8" fill="#222222" rx="10" ry="10" style="stroke:#222222;stroke-width:1.0;"/><g id="Idle.Extruding.WaitingForDetection.Gripping.CheckingLength.ConveyorRunning.ConveyorStarted"><rect fill="#F1F1F1" height="50" rx="12.5" ry="12.5" style="stroke:#181818;stroke-width:0.5;" width="138.4189" x="273.79" y="1785.8"/><line style="stroke:#181818;stroke-width:0.5;" x1="273.79" x2="412.2089" y1="1812.0969" y2="1812.0969"/><text fill="#000000" font-family="sans-serif" font-size="14" lengthAdjust="spacing" textLength="118.4189" x="283.79" y="1803.7951">ConveyorStarted</text></g><ellipse cx="16" cy="1810.8" fill="#222222" rx="10" ry="10" style="stroke:#222222;stroke-width:1.0;"/><!--link *start* to Idle--><g id="link_*start*_Idle"><path d="M19.55,1820.33 C24.395,1831.9825 33.8056,1854.6156 45.3088,1882.2809 C46.7466,1885.7391 45.9136,1883.7357 47.4121,1887.3395 " fill="none" id="*start*-to-Idle" style="stroke:#181818;stroke-width:1.0;"/><polygon fill="#181818" points="49.7157,1892.8797,49.9537,1883.0337,47.796,1888.2629,42.5668,1886.1052,49.7157,1892.8797" style="stroke:#181818;stroke-width:1.0;"/></g><!--link *start*Idle to WaitingForStart--><g id="link_*start*Idle_WaitingForStart"><path d="M548,70.37 C548,84.32 548,105.03 548,124.75 " fill="none" id="*start*Idle-to-WaitingForStart" style="stroke:#181818;stroke-width:1.0;"/><polygon fill="#181818" points="548,130.75,552,121.75,548,125.75,544,121.75,548,130.75" style="stroke:#181818;stroke-width:1.0;"/></g><!--link WaitingForStart to Extruding--><g id="link_WaitingForStart_Extruding"><path d="M606.19,181.67 C629.69,194.52 654.79,212.58 670,236.27 C671.87,239.1825 673.4447,242.3077 674.767,245.5599 C675.4281,247.1861 676.0262,248.844 676.5665,250.523 C676.7015,250.9427 676.833,251.3638 676.9609,251.786 C676.9929,251.8915 675.3087,246.2478 675.3403,246.3535 " fill="none" id="WaitingForStart-to-Extruding" style="stroke:#181818;stroke-width:1.0;"/><polygon fill="#181818" points="677.0562,252.1029,678.3152,242.3348,675.6263,247.3117,670.6493,244.6228,677.0562,252.1029" style="stroke:#181818;stroke-width:1.0;"/><text fill="#000000" font-family="sans-serif" font-size="13" lengthAdjust="spacing" textLength="156.1206" x="664.18" y="224.3369">Start signaal ontvangen</text></g><!--link *start*Extruding to ExtruderRunning--><g id="link_*start*Extruding_ExtruderRunning"><path d="M462,315.64 C462,329.59 462,350.29 462,370.01 " fill="none" id="*start*Extruding-to-ExtruderRunning" style="stroke:#181818;stroke-width:1.0;"/><polygon fill="#181818" points="462,376.01,466,367.01,462,371.01,458,367.01,462,376.01" style="stroke:#181818;stroke-width:1.0;"/></g><!--link ExtruderRunning to WaitingForDetection--><g id="link_ExtruderRunning_WaitingForDetection"><path d="M544.61,426.92 C572.03,439.07 600.09,456.64 618,481.53 C620.0213,484.34 621.7128,487.3861 623.1235,490.5787 C623.8288,492.175 624.4639,493.808 625.0348,495.4664 C625.1776,495.881 625.3163,496.2972 625.4511,496.7148 C625.5185,496.9236 623.7953,491.4059 623.8608,491.6154 " fill="none" id="ExtruderRunning-to-WaitingForDetection" style="stroke:#181818;stroke-width:1.0;"/><polygon fill="#181818" points="625.6504,497.3422,626.7839,487.5588,624.1591,492.5698,619.148,489.945,625.6504,497.3422" style="stroke:#181818;stroke-width:1.0;"/><text fill="#000000" font-family="sans-serif" font-size="13" lengthAdjust="spacing" textLength="190.1631" x="610.16" y="469.5969">Materiaal klaar om te snijden</text></g><!--link *start*WaitingForDetection to DetectMaterial--><g id="link_*start*WaitingForDetection_DetectMaterial"><path d="M290,560.9 C290,574.86 290,595.56 290,615.28 " fill="none" id="*start*WaitingForDetection-to-DetectMaterial" style="stroke:#181818;stroke-width:1.0;"/><polygon fill="#181818" points="290,621.28,294,612.28,290,616.28,286,612.28,290,621.28" style="stroke:#181818;stroke-width:1.0;"/></g><!--link DetectMaterial to MaterialDetected--><g id="link_DetectMaterial_MaterialDetected"><path d="M290,672.09 C290,694.14 290,720.41 290,742.44 " fill="none" id="DetectMaterial-to-MaterialDetected" style="stroke:#181818;stroke-width:1.0;"/><polygon fill="#181818" points="290,748.44,294,739.44,290,743.44,286,739.44,290,748.44" style="stroke:#181818;stroke-width:1.0;"/><text fill="#000000" font-family="sans-serif" font-size="13" lengthAdjust="spacing" textLength="152.3438" x="291" y="714.8669">Materiaal gedetecteerd</text></g><!--link MaterialDetected to Gripping--><g id="link_MaterialDetected_Gripping"><path d="M360.89,786.16 C433.38,799.28 539.08,823.05 566,853.8 C568.2788,856.4038 570.1695,859.2902 571.731,862.3618 C572.5117,863.8976 573.2101,865.4797 573.8335,867.0959 C574.1452,867.9041 572.5373,863.0298 572.8124,863.8534 " fill="none" id="MaterialDetected-to-Gripping" style="stroke:#181818;stroke-width:1.0;"/><polygon fill="#181818" points="574.7133,869.5444,575.6559,859.7407,573.1292,864.8019,568.068,862.2752,574.7133,869.5444" style="stroke:#181818;stroke-width:1.0;"/><text fill="#000000" font-family="sans-serif" font-size="13" lengthAdjust="spacing" textLength="310.3115" x="557.46" y="841.8669">Grijper krijgt signaal om materiaal op te nemen</text></g><!--link *start*Gripping to GripperIn--><g id="link_*start*Gripping_GripperIn"><path d="M371.94,933.18 C373.61,949.91 376.564,979.4197 378.964,1003.4597 " fill="none" id="*start*Gripping-to-GripperIn" style="stroke:#181818;stroke-width:1.0;"/><polygon fill="#181818" points="379.56,1009.43,382.6462,1000.0772,379.0633,1004.4547,374.6857,1000.8719,379.56,1009.43" style="stroke:#181818;stroke-width:1.0;"/><text fill="#000000" font-family="sans-serif" font-size="13" lengthAdjust="spacing" textLength="177.0615" x="377.5" y="975.8669">Grijper neemt materiaal op</text></g><!--link GripperIn to CheckingLength--><g id="link_GripperIn_CheckingLength"><path d="M425,1050.21 C454.9,1062.55 493.01,1083.37 514,1114.8 C515.9213,1117.6775 517.5356,1120.7756 518.888,1124.0075 C519.5642,1125.6234 520.1748,1127.2728 520.7256,1128.9447 C520.8633,1129.3627 520.9973,1129.7821 521.1276,1130.2027 C521.1602,1130.3079 519.4422,1124.6741 519.4743,1124.7794 " fill="none" id="GripperIn-to-CheckingLength" style="stroke:#181818;stroke-width:1.0;"/><polygon fill="#181818" points="521.2246,1130.5184,522.4251,1120.743,519.766,1125.7359,514.7731,1123.0768,521.2246,1130.5184" style="stroke:#181818;stroke-width:1.0;"/><text fill="#000000" font-family="sans-serif" font-size="13" lengthAdjust="spacing" textLength="154.5146" x="507.59" y="1102.8669">Deeglengte controleren</text></g><!--link *start*CheckingLength to LengthOK--><g id="link_*start*CheckingLength_LengthOK"><path d="M297,1194.18 C297,1210.91 297,1240.39 297,1264.43 " fill="none" id="*start*CheckingLength-to-LengthOK" style="stroke:#181818;stroke-width:1.0;"/><polygon fill="#181818" points="297,1270.43,301,1261.43,297,1265.43,293,1261.43,297,1270.43" style="stroke:#181818;stroke-width:1.0;"/><text fill="#000000" font-family="sans-serif" font-size="13" lengthAdjust="spacing" textLength="94.9927" x="298" y="1236.8669">Lengte correct</text></g><!--link LengthOK to Cutting--><g id="link_LengthOK_Cutting"><path d="M297,1321.2 C297,1343.22 297,1369.46 297,1391.46 " fill="none" id="LengthOK-to-Cutting" style="stroke:#181818;stroke-width:1.0;"/><polygon fill="#181818" points="297,1397.46,301,1388.46,297,1392.46,293,1388.46,297,1397.46" style="stroke:#181818;stroke-width:1.0;"/><text fill="#000000" font-family="sans-serif" font-size="13" lengthAdjust="spacing" textLength="101.5942" x="298" y="1363.8669">Start snijproces</text></g><!--link Cutting to Placing--><g id="link_Cutting_Placing"><path d="M304.22,1448.2 C310.74,1470.22 318.5751,1496.7073 325.0951,1518.7073 " fill="none" id="Cutting-to-Placing" style="stroke:#181818;stroke-width:1.0;"/><polygon fill="#181818" points="326.8,1524.46,328.0778,1514.6944,325.3793,1519.6661,320.4075,1516.9676,326.8,1524.46" style="stroke:#181818;stroke-width:1.0;"/><text fill="#000000" font-family="sans-serif" font-size="13" lengthAdjust="spacing" textLength="199.3418" x="318.72" y="1490.8669">Materiaal klaar om te plaatsen</text></g><!--link Placing to ConveyorRunning--><g id="link_Placing_ConveyorRunning"><path d="M369.41,1562.9 C399.15,1575.01 440.18,1596.64 462,1629.8 C463.9025,1632.6913 465.5023,1635.8 466.8437,1639.0399 C467.5143,1640.6598 468.1204,1642.3125 468.6673,1643.9873 C468.804,1644.4059 468.9371,1644.826 469.0665,1645.2472 C469.0988,1645.3526 467.3935,1639.715 467.4254,1639.8205 " fill="none" id="Placing-to-ConveyorRunning" style="stroke:#181818;stroke-width:1.0;"/><polygon fill="#181818" points="469.1629,1645.5634,470.3852,1635.7907,467.715,1640.7777,462.728,1638.1074,469.1629,1645.5634" style="stroke:#181818;stroke-width:1.0;"/><text fill="#000000" font-family="sans-serif" font-size="13" lengthAdjust="spacing" textLength="125.0361" x="455.83" y="1617.8669">Start lopende band</text></g><!--link *start*ConveyorRunning to ConveyorStarted--><g id="link_*start*ConveyorRunning_ConveyorStarted"><path d="M311.78,1708.8 C316.92,1725.43 326.2888,1755.7274 333.7688,1779.9374 " fill="none" id="*start*ConveyorRunning-to-ConveyorStarted" style="stroke:#181818;stroke-width:1.0;"/><polygon fill="#181818" points="335.54,1785.67,336.705,1775.8903,334.064,1780.8928,329.0615,1778.2518,335.54,1785.67" style="stroke:#181818;stroke-width:1.0;"/><text fill="#000000" font-family="sans-serif" font-size="13" lengthAdjust="spacing" textLength="135.1479" x="327" y="1751.8669">Lopende band draait</text></g><!--link ConveyorStarted to Idle--><g id="link_ConveyorStarted_Idle"><path d="M326.13,1836.26 C279.17,1904.36 153.0661,2087.2005 143.0261,2101.7605 " fill="none" id="ConveyorStarted-to-Idle" style="stroke:#181818;stroke-width:1.0;"/><polygon fill="#181818" points="139.62,2106.7,148.0221,2101.5615,142.4584,2102.5838,141.4361,2097.02,139.62,2106.7" style="stroke:#181818;stroke-width:1.0;"/><text fill="#000000" font-family="sans-serif" font-size="13" lengthAdjust="spacing" textLength="203.7661" x="169.61" y="2072.8669">Proces voltooid, terug naar idle</text></g><!--SRC=[RLJ1JiCm3BttAtn6umSuS66044CWE710749ZXMofKwNk14ByEqwoRabfBqsUdv-VdRHlP-zmVdu9TzfXqmoi6DCQVXgGv-qGVbMMBPaR7rvO1Kwn6GONyBIvWe77KJP3WWPhI2dNBFAZxlKNXr4BAjalPGfuuhqYWzJyJhvEvDfSnZ4yZqGIJR4P9l8J0WQJkHLq8XfiB8Q7c5HRIgudi4R6bgqd4NquIkoSKW5y1s9q8BlLfVEbvBg7Z1_aN0hLa1IxyUnRTD3AR89tY38ktv_QQ9RIelYqoI7KbN63EiCOT1BunuuIjy7sVHwaBBUzp74dRrCSM5SCL6n9suHTEOMZHjrwWZ7SKQ5DY1rNUYdbH8s9Lv_OxaHlWsJuKxBNYCR53Hvd54e3iuJQHWOVxqLdCsc481D8h6Cq5HwPgpihvzq7EPiXSQTmf3uvrMRgybNfPSt3uTvDv5J3qnw_VN61SotdUoIDyA585vtDs7LhKpGffEFV52gWWvBxcQtFcDEl8NxSgK7OUyVUMxqIzs4qGB4N6_yUlty0]--></g></svg>