<svg xmlns="http://www.w3.org/2000/svg" xmlns:xlink="http://www.w3.org/1999/xlink" contentStyleType="text/css" height="1962px" preserveAspectRatio="none" style="width:308px;height:1962px;background:#FFFFFF;" version="1.1" viewBox="0 0 308 1962" width="308px" zoomAndPan="magnify"><defs/><g><ellipse cx="145.9102" cy="20" fill="#222222" rx="10" ry="10" style="stroke:#222222;stroke-width:1.0;"/><polygon fill="#F1F1F1" points="96.1455,50,195.6748,50,205.6748,66.9844,195.6748,83.9688,96.1455,83.9688" style="stroke:#181818;stroke-width:0.5;"/><text fill="#000000" font-family="sans-serif" font-size="12" lengthAdjust="spacing" textLength="79.5293" x="106.1455" y="71.1387">Start_Signaal</text><polygon fill="#F1F1F1" points="97.4111,152.3711,194.4092,152.3711,204.4092,169.3555,194.4092,186.3398,97.4111,186.3398" style="stroke:#181818;stroke-width:0.5;"/><text fill="#000000" font-family="sans-serif" font-size="12" lengthAdjust="spacing" textLength="76.998" x="107.4111" y="173.5098">Start_Output</text><polygon fill="#F1F1F1" points="97.7878,103.9688,194.0325,103.9688,206.0325,115.9688,194.0325,127.9688,97.7878,127.9688,85.7878,115.9688,97.7878,103.9688" style="stroke:#181818;stroke-width:0.5;"/><text fill="#000000" font-family="sans-serif" font-size="11" lengthAdjust="spacing" textLength="9.9849" x="149.9102" y="138.1792">Ja</text><text fill="#000000" font-family="sans-serif" font-size="11" lengthAdjust="spacing" textLength="96.2446" x="97.7878" y="119.7769">Extruder gestart?</text><text fill="#000000" font-family="sans-serif" font-size="11" lengthAdjust="spacing" textLength="21.7637" x="206.0325" y="113.3745">Nee</text><ellipse cx="249.7961" cy="115.9688" fill="none" rx="11" ry="11" style="stroke:#222222;stroke-width:1.0;"/><ellipse cx="249.7961" cy="115.9688" fill="#222222" rx="6" ry="6" style="stroke:#222222;stroke-width:1.0;"/><polygon fill="#F1F1F1" points="51.248,250.3398,240.5723,250.3398,250.5723,267.3242,240.5723,284.3086,51.248,284.3086" style="stroke:#181818;stroke-width:0.5;"/><text fill="#000000" font-family="sans-serif" font-size="12" lengthAdjust="spacing" textLength="169.3242" x="61.248" y="271.4785">Fotocel_Materiaal_Aanwezig</text><polygon fill="#F1F1F1" points="145.9102,206.3398,157.9102,218.3398,145.9102,230.3398,133.9102,218.3398,145.9102,206.3398" style="stroke:#181818;stroke-width:0.5;"/><polygon fill="#F1F1F1" points="97.8013,304.3086,194.019,304.3086,206.019,316.3086,194.019,328.3086,97.8013,328.3086,85.8013,316.3086,97.8013,304.3086" style="stroke:#181818;stroke-width:0.5;"/><text fill="#000000" font-family="sans-serif" font-size="11" lengthAdjust="spacing" textLength="9.9849" x="149.9102" y="338.519">Ja</text><text fill="#000000" font-family="sans-serif" font-size="11" lengthAdjust="spacing" textLength="96.2178" x="97.8013" y="320.1167">Fotocel == True?</text><text fill="#000000" font-family="sans-serif" font-size="11" lengthAdjust="spacing" textLength="21.7637" x="206.019" y="313.7144">Nee</text><rect fill="#F1F1F1" height="33.9688" rx="12.5" ry="12.5" style="stroke:#181818;stroke-width:0.5;" width="118.0039" x="86.9082" y="360.019"/><text fill="#000000" font-family="sans-serif" font-size="12" lengthAdjust="spacing" textLength="98.0039" x="96.9082" y="381.1577">Pneumatisch Uit</text><rect fill="#F1F1F1" height="33.9688" rx="12.5" ry="12.5" style="stroke:#181818;stroke-width:0.5;" width="249.9336" x="20.9434" y="413.9878"/><text fill="#000000" font-family="sans-serif" font-size="12" lengthAdjust="spacing" textLength="229.9336" x="30.9434" y="435.1265">Cutting Tool sluit en snijdt deegstreng</text><polygon fill="#F1F1F1" points="57.4473,511.9565,234.373,511.9565,244.373,528.9409,234.373,545.9253,57.4473,545.9253" style="stroke:#181818;stroke-width:0.5;"/><text fill="#000000" font-family="sans-serif" font-size="12" lengthAdjust="spacing" textLength="156.9258" x="67.4473" y="533.0952">Reedcontact_Cutting_Tool</text><polygon fill="#F1F1F1" points="145.9102,467.9565,157.9102,479.9565,145.9102,491.9565,133.9102,479.9565,145.9102,467.9565" style="stroke:#181818;stroke-width:0.5;"/><polygon fill="#F1F1F1" points="83.1248,565.9253,208.6956,565.9253,220.6956,577.9253,208.6956,589.9253,83.1248,589.9253,71.1248,577.9253,83.1248,565.9253" style="stroke:#181818;stroke-width:0.5;"/><text fill="#000000" font-family="sans-serif" font-size="11" lengthAdjust="spacing" textLength="9.9849" x="149.9102" y="600.1357">Ja</text><text fill="#000000" font-family="sans-serif" font-size="11" lengthAdjust="spacing" textLength="125.5708" x="83.1248" y="581.7334">Reedcontact == True?</text><text fill="#000000" font-family="sans-serif" font-size="11" lengthAdjust="spacing" textLength="21.7637" x="220.6956" y="575.3311">Nee</text><rect fill="#F1F1F1" height="33.9688" rx="12.5" ry="12.5" style="stroke:#181818;stroke-width:0.5;" width="112.3262" x="89.7471" y="621.6357"/><text fill="#000000" font-family="sans-serif" font-size="12" lengthAdjust="spacing" textLength="92.3262" x="99.7471" y="642.7744">Pneumatisch In</text><rect fill="#F1F1F1" height="33.9688" rx="12.5" ry="12.5" style="stroke:#181818;stroke-width:0.5;" width="139.3848" x="76.2178" y="675.6045"/><text fill="#000000" font-family="sans-serif" font-size="12" lengthAdjust="spacing" textLength="119.3848" x="86.2178" y="696.7432">Start Lopende Band</text><rect fill="#F1F1F1" height="33.9688" rx="12.5" ry="12.5" style="stroke:#181818;stroke-width:0.5;" width="122.0645" x="84.8779" y="729.5732"/><text fill="#000000" font-family="sans-serif" font-size="12" lengthAdjust="spacing" textLength="102.0645" x="94.8779" y="750.7119">Start Kuka Robot</text><polygon fill="#F1F1F1" points="43.2646,827.542,248.5557,827.542,258.5557,844.5264,248.5557,861.5107,43.2646,861.5107" style="stroke:#181818;stroke-width:0.5;"/><text fill="#000000" font-family="sans-serif" font-size="12" lengthAdjust="spacing" textLength="185.291" x="53.2646" y="848.6807">Robot_Op_Positie_Cutting_Tool</text><polygon fill="#F1F1F1" points="145.9102,783.542,157.9102,795.542,145.9102,807.542,133.9102,795.542,145.9102,783.542" style="stroke:#181818;stroke-width:0.5;"/><polygon fill="#F1F1F1" points="32.8621,881.5107,258.9583,881.5107,270.9583,893.5107,258.9583,905.5107,32.8621,905.5107,20.8621,893.5107,32.8621,881.5107" style="stroke:#181818;stroke-width:0.5;"/><text fill="#000000" font-family="sans-serif" font-size="11" lengthAdjust="spacing" textLength="9.9849" x="149.9102" y="915.7212">Ja</text><text fill="#000000" font-family="sans-serif" font-size="11" lengthAdjust="spacing" textLength="226.0962" x="32.8621" y="897.3188">Robot_Op_Positie_Cutting_Tool == True?</text><text fill="#000000" font-family="sans-serif" font-size="11" lengthAdjust="spacing" textLength="21.7637" x="270.9583" y="890.9165">Nee</text><rect fill="#F1F1F1" height="33.9688" rx="12.5" ry="12.5" style="stroke:#181818;stroke-width:0.5;" width="191.8145" x="50.0029" y="937.2212"/><text fill="#000000" font-family="sans-serif" font-size="12" lengthAdjust="spacing" textLength="171.8145" x="60.0029" y="958.3599">Pneumatisch Uit Grijper Tool</text><rect fill="#F1F1F1" height="33.9688" rx="12.5" ry="12.5" style="stroke:#181818;stroke-width:0.5;" width="269.8203" x="11" y="991.1899"/><text fill="#000000" font-family="sans-serif" font-size="12" lengthAdjust="spacing" textLength="249.8203" x="21" y="1012.3286">Grijper Tool sluit en pakt deegstreng vast</text><polygon fill="#F1F1F1" points="44.2402,1089.1587,247.5801,1089.1587,257.5801,1106.1431,247.5801,1123.1274,44.2402,1123.1274" style="stroke:#181818;stroke-width:0.5;"/><text fill="#000000" font-family="sans-serif" font-size="12" lengthAdjust="spacing" textLength="183.3398" x="54.2402" y="1110.2974">Fotocel_Deegstreng_Aanwezig</text><polygon fill="#F1F1F1" points="145.9102,1045.1587,157.9102,1057.1587,145.9102,1069.1587,133.9102,1057.1587,145.9102,1045.1587" style="stroke:#181818;stroke-width:0.5;"/><polygon fill="#F1F1F1" points="97.8013,1143.1274,194.019,1143.1274,206.019,1155.1274,194.019,1167.1274,97.8013,1167.1274,85.8013,1155.1274,97.8013,1143.1274" style="stroke:#181818;stroke-width:0.5;"/><text fill="#000000" font-family="sans-serif" font-size="11" lengthAdjust="spacing" textLength="9.9849" x="149.9102" y="1177.3379">Ja</text><text fill="#000000" font-family="sans-serif" font-size="11" lengthAdjust="spacing" textLength="96.2178" x="97.8013" y="1158.9355">Fotocel == True?</text><text fill="#000000" font-family="sans-serif" font-size="11" lengthAdjust="spacing" textLength="21.7637" x="206.019" y="1152.5332">Nee</text><rect fill="#F1F1F1" height="33.9688" rx="12.5" ry="12.5" style="stroke:#181818;stroke-width:0.5;" width="159.6113" x="66.1045" y="1198.8379"/><text fill="#000000" font-family="sans-serif" font-size="12" lengthAdjust="spacing" textLength="139.6113" x="76.1045" y="1219.9766">Robot arm naar matrijs</text><polygon fill="#F1F1F1" points="60.7813,1296.8066,231.0391,1296.8066,241.0391,1313.791,231.0391,1330.7754,60.7813,1330.7754" style="stroke:#181818;stroke-width:0.5;"/><text fill="#000000" font-family="sans-serif" font-size="12" lengthAdjust="spacing" textLength="150.2578" x="70.7813" y="1317.9453">Robot_Op_Positie_Matrijs</text><polygon fill="#F1F1F1" points="145.9102,1252.8066,157.9102,1264.8066,145.9102,1276.8066,133.9102,1264.8066,145.9102,1252.8066" style="stroke:#181818;stroke-width:0.5;"/><polygon fill="#F1F1F1" points="48.9189,1350.7754,242.9014,1350.7754,254.9014,1362.7754,242.9014,1374.7754,48.9189,1374.7754,36.9189,1362.7754,48.9189,1350.7754" style="stroke:#181818;stroke-width:0.5;"/><text fill="#000000" font-family="sans-serif" font-size="11" lengthAdjust="spacing" textLength="9.9849" x="149.9102" y="1384.9858">Ja</text><text fill="#000000" font-family="sans-serif" font-size="11" lengthAdjust="spacing" textLength="193.9824" x="48.9189" y="1366.5835">Robot_Op_Positie_Matrijs == True?</text><text fill="#000000" font-family="sans-serif" font-size="11" lengthAdjust="spacing" textLength="21.7637" x="254.9014" y="1360.1812">Nee</text><rect fill="#F1F1F1" height="33.9688" rx="12.5" ry="12.5" style="stroke:#181818;stroke-width:0.5;" width="186.1367" x="52.8418" y="1406.4858"/><text fill="#000000" font-family="sans-serif" font-size="12" lengthAdjust="spacing" textLength="166.1367" x="62.8418" y="1427.6245">Pneumatisch In Grijper Tool</text><rect fill="#F1F1F1" height="33.9688" rx="12.5" ry="12.5" style="stroke:#181818;stroke-width:0.5;" width="266.8789" x="12.4707" y="1460.4546"/><text fill="#000000" font-family="sans-serif" font-size="12" lengthAdjust="spacing" textLength="246.8789" x="22.4707" y="1481.5933">Grijper Tool opent en laat deegstreng los</text><polygon fill="#F1F1F1" points="49.6074,1558.4233,242.2129,1558.4233,252.2129,1575.4077,242.2129,1592.3921,49.6074,1592.3921" style="stroke:#181818;stroke-width:0.5;"/><text fill="#000000" font-family="sans-serif" font-size="12" lengthAdjust="spacing" textLength="172.6055" x="59.6074" y="1579.562">Fotocel_Deegstreng_Afwezig</text><polygon fill="#F1F1F1" points="145.9102,1514.4233,157.9102,1526.4233,145.9102,1538.4233,133.9102,1526.4233,145.9102,1514.4233" style="stroke:#181818;stroke-width:0.5;"/><polygon fill="#F1F1F1" points="95.9805,1612.3921,195.8398,1612.3921,207.8398,1624.3921,195.8398,1636.3921,95.9805,1636.3921,83.9805,1624.3921,95.9805,1612.3921" style="stroke:#181818;stroke-width:0.5;"/><text fill="#000000" font-family="sans-serif" font-size="11" lengthAdjust="spacing" textLength="9.9849" x="149.9102" y="1646.6025">Ja</text><text fill="#000000" font-family="sans-serif" font-size="11" lengthAdjust="spacing" textLength="99.8594" x="95.9805" y="1628.2002">Fotocel == False?</text><text fill="#000000" font-family="sans-serif" font-size="11" lengthAdjust="spacing" textLength="21.7637" x="207.8398" y="1621.7979">Nee</text><rect fill="#F1F1F1" height="33.9688" rx="12.5" ry="12.5" style="stroke:#181818;stroke-width:0.5;" width="195.8105" x="48.0049" y="1668.1025"/><text fill="#000000" font-family="sans-serif" font-size="12" lengthAdjust="spacing" textLength="175.8105" x="58.0049" y="1689.2412">Robot arm naar home positie</text><polygon fill="#F1F1F1" points="63.1953,1766.0713,228.625,1766.0713,238.625,1783.0557,228.625,1800.04,63.1953,1800.04" style="stroke:#181818;stroke-width:0.5;"/><text fill="#000000" font-family="sans-serif" font-size="12" lengthAdjust="spacing" textLength="145.4297" x="73.1953" y="1787.21">Robot_Op_Positie_Home</text><polygon fill="#F1F1F1" points="145.9102,1722.0713,157.9102,1734.0713,145.9102,1746.0713,133.9102,1734.0713,145.9102,1722.0713" style="stroke:#181818;stroke-width:0.5;"/><polygon fill="#F1F1F1" points="51.1318,1820.04,240.6885,1820.04,252.6885,1832.04,240.6885,1844.04,51.1318,1844.04,39.1318,1832.04,51.1318,1820.04" style="stroke:#181818;stroke-width:0.5;"/><text fill="#000000" font-family="sans-serif" font-size="11" lengthAdjust="spacing" textLength="9.9849" x="149.9102" y="1854.2505">Ja</text><text fill="#000000" font-family="sans-serif" font-size="11" lengthAdjust="spacing" textLength="189.5566" x="51.1318" y="1835.8481">Robot_Op_Positie_Home == True?</text><text fill="#000000" font-family="sans-serif" font-size="11" lengthAdjust="spacing" textLength="21.7637" x="252.6885" y="1829.4458">Nee</text><rect fill="#F1F1F1" height="33.9688" rx="12.5" ry="12.5" style="stroke:#181818;stroke-width:0.5;" width="104.2988" x="93.7607" y="1875.7505"/><text fill="#000000" font-family="sans-serif" font-size="12" lengthAdjust="spacing" textLength="84.2988" x="103.7607" y="1896.8892">Matrijs sluiten</text><ellipse cx="145.9102" cy="1940.7192" fill="none" rx="11" ry="11" style="stroke:#222222;stroke-width:1.0;"/><ellipse cx="145.9102" cy="1940.7192" fill="#222222" rx="6" ry="6" style="stroke:#222222;stroke-width:1.0;"/><line style="stroke:#181818;stroke-width:1.0;" x1="145.9102" x2="145.9102" y1="30" y2="50"/><polygon fill="#181818" points="141.9102,40,145.9102,50,149.9102,40,145.9102,44" style="stroke:#181818;stroke-width:1.0;"/><line style="stroke:#181818;stroke-width:1.0;" x1="145.9102" x2="145.9102" y1="127.9688" y2="152.3711"/><polygon fill="#181818" points="141.9102,142.3711,145.9102,152.3711,149.9102,142.3711,145.9102,146.3711" style="stroke:#181818;stroke-width:1.0;"/><line style="stroke:#181818;stroke-width:1.0;" x1="206.0325" x2="238.7961" y1="115.9688" y2="115.9688"/><polygon fill="#181818" points="228.7961,111.9688,238.7961,115.9688,228.7961,119.9688,232.7961,115.9688" style="stroke:#181818;stroke-width:1.0;"/><line style="stroke:#181818;stroke-width:1.0;" x1="145.9102" x2="145.9102" y1="186.3398" y2="206.3398"/><polygon fill="#181818" points="141.9102,196.3398,145.9102,206.3398,149.9102,196.3398,145.9102,200.3398" style="stroke:#181818;stroke-width:1.0;"/><line style="stroke:#181818;stroke-width:1.0;" x1="145.9102" x2="145.9102" y1="83.9688" y2="103.9688"/><polygon fill="#181818" points="141.9102,93.9688,145.9102,103.9688,149.9102,93.9688,145.9102,97.9688" style="stroke:#181818;stroke-width:1.0;"/><line style="stroke:#181818;stroke-width:1.0;" x1="145.9102" x2="145.9102" y1="230.3398" y2="250.3398"/><polygon fill="#181818" points="141.9102,240.3398,145.9102,250.3398,149.9102,240.3398,145.9102,244.3398" style="stroke:#181818;stroke-width:1.0;"/><line style="stroke:#181818;stroke-width:1.0;" x1="206.019" x2="262.5723" y1="316.3086" y2="316.3086"/><polygon fill="#181818" points="258.5723,277.3242,262.5723,267.3242,266.5723,277.3242,262.5723,273.3242" style="stroke:#181818;stroke-width:1.0;"/><line style="stroke:#181818;stroke-width:1.0;" x1="262.5723" x2="262.5723" y1="218.3398" y2="316.3086"/><line style="stroke:#181818;stroke-width:1.0;" x1="262.5723" x2="157.9102" y1="218.3398" y2="218.3398"/><polygon fill="#181818" points="167.9102,214.3398,157.9102,218.3398,167.9102,222.3398,163.9102,218.3398" style="stroke:#181818;stroke-width:1.0;"/><line style="stroke:#181818;stroke-width:1.0;" x1="145.9102" x2="145.9102" y1="284.3086" y2="304.3086"/><polygon fill="#181818" points="141.9102,294.3086,145.9102,304.3086,149.9102,294.3086,145.9102,298.3086" style="stroke:#181818;stroke-width:1.0;"/><line style="stroke:#181818;stroke-width:1.0;" x1="145.9102" x2="145.9102" y1="328.3086" y2="360.019"/><polygon fill="#181818" points="141.9102,350.019,145.9102,360.019,149.9102,350.019,145.9102,354.019" style="stroke:#181818;stroke-width:1.0;"/><line style="stroke:#181818;stroke-width:1.0;" x1="145.9102" x2="145.9102" y1="393.9878" y2="413.9878"/><polygon fill="#181818" points="141.9102,403.9878,145.9102,413.9878,149.9102,403.9878,145.9102,407.9878" style="stroke:#181818;stroke-width:1.0;"/><line style="stroke:#181818;stroke-width:1.0;" x1="145.9102" x2="145.9102" y1="491.9565" y2="511.9565"/><polygon fill="#181818" points="141.9102,501.9565,145.9102,511.9565,149.9102,501.9565,145.9102,505.9565" style="stroke:#181818;stroke-width:1.0;"/><line style="stroke:#181818;stroke-width:1.0;" x1="220.6956" x2="256.373" y1="577.9253" y2="577.9253"/><polygon fill="#181818" points="252.373,538.9409,256.373,528.9409,260.373,538.9409,256.373,534.9409" style="stroke:#181818;stroke-width:1.0;"/><line style="stroke:#181818;stroke-width:1.0;" x1="256.373" x2="256.373" y1="479.9565" y2="577.9253"/><line style="stroke:#181818;stroke-width:1.0;" x1="256.373" x2="157.9102" y1="479.9565" y2="479.9565"/><polygon fill="#181818" points="167.9102,475.9565,157.9102,479.9565,167.9102,483.9565,163.9102,479.9565" style="stroke:#181818;stroke-width:1.0;"/><line style="stroke:#181818;stroke-width:1.0;" x1="145.9102" x2="145.9102" y1="545.9253" y2="565.9253"/><polygon fill="#181818" points="141.9102,555.9253,145.9102,565.9253,149.9102,555.9253,145.9102,559.9253" style="stroke:#181818;stroke-width:1.0;"/><line style="stroke:#181818;stroke-width:1.0;" x1="145.9102" x2="145.9102" y1="447.9565" y2="467.9565"/><polygon fill="#181818" points="141.9102,457.9565,145.9102,467.9565,149.9102,457.9565,145.9102,461.9565" style="stroke:#181818;stroke-width:1.0;"/><line style="stroke:#181818;stroke-width:1.0;" x1="145.9102" x2="145.9102" y1="589.9253" y2="621.6357"/><polygon fill="#181818" points="141.9102,611.6357,145.9102,621.6357,149.9102,611.6357,145.9102,615.6357" style="stroke:#181818;stroke-width:1.0;"/><line style="stroke:#181818;stroke-width:1.0;" x1="145.9102" x2="145.9102" y1="655.6045" y2="675.6045"/><polygon fill="#181818" points="141.9102,665.6045,145.9102,675.6045,149.9102,665.6045,145.9102,669.6045" style="stroke:#181818;stroke-width:1.0;"/><line style="stroke:#181818;stroke-width:1.0;" x1="145.9102" x2="145.9102" y1="709.5732" y2="729.5732"/><polygon fill="#181818" points="141.9102,719.5732,145.9102,729.5732,149.9102,719.5732,145.9102,723.5732" style="stroke:#181818;stroke-width:1.0;"/><line style="stroke:#181818;stroke-width:1.0;" x1="145.9102" x2="145.9102" y1="807.542" y2="827.542"/><polygon fill="#181818" points="141.9102,817.542,145.9102,827.542,149.9102,817.542,145.9102,821.542" style="stroke:#181818;stroke-width:1.0;"/><line style="stroke:#181818;stroke-width:1.0;" x1="270.9583" x2="282.9583" y1="893.5107" y2="893.5107"/><polygon fill="#181818" points="278.9583,854.5264,282.9583,844.5264,286.9583,854.5264,282.9583,850.5264" style="stroke:#181818;stroke-width:1.0;"/><line style="stroke:#181818;stroke-width:1.0;" x1="282.9583" x2="282.9583" y1="795.542" y2="893.5107"/><line style="stroke:#181818;stroke-width:1.0;" x1="282.9583" x2="157.9102" y1="795.542" y2="795.542"/><polygon fill="#181818" points="167.9102,791.542,157.9102,795.542,167.9102,799.542,163.9102,795.542" style="stroke:#181818;stroke-width:1.0;"/><line style="stroke:#181818;stroke-width:1.0;" x1="145.9102" x2="145.9102" y1="861.5107" y2="881.5107"/><polygon fill="#181818" points="141.9102,871.5107,145.9102,881.5107,149.9102,871.5107,145.9102,875.5107" style="stroke:#181818;stroke-width:1.0;"/><line style="stroke:#181818;stroke-width:1.0;" x1="145.9102" x2="145.9102" y1="763.542" y2="783.542"/><polygon fill="#181818" points="141.9102,773.542,145.9102,783.542,149.9102,773.542,145.9102,777.542" style="stroke:#181818;stroke-width:1.0;"/><line style="stroke:#181818;stroke-width:1.0;" x1="145.9102" x2="145.9102" y1="905.5107" y2="937.2212"/><polygon fill="#181818" points="141.9102,927.2212,145.9102,937.2212,149.9102,927.2212,145.9102,931.2212" style="stroke:#181818;stroke-width:1.0;"/><line style="stroke:#181818;stroke-width:1.0;" x1="145.9102" x2="145.9102" y1="971.1899" y2="991.1899"/><polygon fill="#181818" points="141.9102,981.1899,145.9102,991.1899,149.9102,981.1899,145.9102,985.1899" style="stroke:#181818;stroke-width:1.0;"/><line style="stroke:#181818;stroke-width:1.0;" x1="145.9102" x2="145.9102" y1="1069.1587" y2="1089.1587"/><polygon fill="#181818" points="141.9102,1079.1587,145.9102,1089.1587,149.9102,1079.1587,145.9102,1083.1587" style="stroke:#181818;stroke-width:1.0;"/><line style="stroke:#181818;stroke-width:1.0;" x1="206.019" x2="269.5801" y1="1155.1274" y2="1155.1274"/><polygon fill="#181818" points="265.5801,1116.1431,269.5801,1106.1431,273.5801,1116.1431,269.5801,1112.1431" style="stroke:#181818;stroke-width:1.0;"/><line style="stroke:#181818;stroke-width:1.0;" x1="269.5801" x2="269.5801" y1="1057.1587" y2="1155.1274"/><line style="stroke:#181818;stroke-width:1.0;" x1="269.5801" x2="157.9102" y1="1057.1587" y2="1057.1587"/><polygon fill="#181818" points="167.9102,1053.1587,157.9102,1057.1587,167.9102,1061.1587,163.9102,1057.1587" style="stroke:#181818;stroke-width:1.0;"/><line style="stroke:#181818;stroke-width:1.0;" x1="145.9102" x2="145.9102" y1="1123.1274" y2="1143.1274"/><polygon fill="#181818" points="141.9102,1133.1274,145.9102,1143.1274,149.9102,1133.1274,145.9102,1137.1274" style="stroke:#181818;stroke-width:1.0;"/><line style="stroke:#181818;stroke-width:1.0;" x1="145.9102" x2="145.9102" y1="1025.1587" y2="1045.1587"/><polygon fill="#181818" points="141.9102,1035.1587,145.9102,1045.1587,149.9102,1035.1587,145.9102,1039.1587" style="stroke:#181818;stroke-width:1.0;"/><line style="stroke:#181818;stroke-width:1.0;" x1="145.9102" x2="145.9102" y1="1167.1274" y2="1198.8379"/><polygon fill="#181818" points="141.9102,1188.8379,145.9102,1198.8379,149.9102,1188.8379,145.9102,1192.8379" style="stroke:#181818;stroke-width:1.0;"/><line style="stroke:#181818;stroke-width:1.0;" x1="145.9102" x2="145.9102" y1="1276.8066" y2="1296.8066"/><polygon fill="#181818" points="141.9102,1286.8066,145.9102,1296.8066,149.9102,1286.8066,145.9102,1290.8066" style="stroke:#181818;stroke-width:1.0;"/><line style="stroke:#181818;stroke-width:1.0;" x1="254.9014" x2="266.9014" y1="1362.7754" y2="1362.7754"/><polygon fill="#181818" points="262.9014,1323.791,266.9014,1313.791,270.9014,1323.791,266.9014,1319.791" style="stroke:#181818;stroke-width:1.0;"/><line style="stroke:#181818;stroke-width:1.0;" x1="266.9014" x2="266.9014" y1="1264.8066" y2="1362.7754"/><line style="stroke:#181818;stroke-width:1.0;" x1="266.9014" x2="157.9102" y1="1264.8066" y2="1264.8066"/><polygon fill="#181818" points="167.9102,1260.8066,157.9102,1264.8066,167.9102,1268.8066,163.9102,1264.8066" style="stroke:#181818;stroke-width:1.0;"/><line style="stroke:#181818;stroke-width:1.0;" x1="145.9102" x2="145.9102" y1="1330.7754" y2="1350.7754"/><polygon fill="#181818" points="141.9102,1340.7754,145.9102,1350.7754,149.9102,1340.7754,145.9102,1344.7754" style="stroke:#181818;stroke-width:1.0;"/><line style="stroke:#181818;stroke-width:1.0;" x1="145.9102" x2="145.9102" y1="1232.8066" y2="1252.8066"/><polygon fill="#181818" points="141.9102,1242.8066,145.9102,1252.8066,149.9102,1242.8066,145.9102,1246.8066" style="stroke:#181818;stroke-width:1.0;"/><line style="stroke:#181818;stroke-width:1.0;" x1="145.9102" x2="145.9102" y1="1374.7754" y2="1406.4858"/><polygon fill="#181818" points="141.9102,1396.4858,145.9102,1406.4858,149.9102,1396.4858,145.9102,1400.4858" style="stroke:#181818;stroke-width:1.0;"/><line style="stroke:#181818;stroke-width:1.0;" x1="145.9102" x2="145.9102" y1="1440.4546" y2="1460.4546"/><polygon fill="#181818" points="141.9102,1450.4546,145.9102,1460.4546,149.9102,1450.4546,145.9102,1454.4546" style="stroke:#181818;stroke-width:1.0;"/><line style="stroke:#181818;stroke-width:1.0;" x1="145.9102" x2="145.9102" y1="1538.4233" y2="1558.4233"/><polygon fill="#181818" points="141.9102,1548.4233,145.9102,1558.4233,149.9102,1548.4233,145.9102,1552.4233" style="stroke:#181818;stroke-width:1.0;"/><line style="stroke:#181818;stroke-width:1.0;" x1="207.8398" x2="264.2129" y1="1624.3921" y2="1624.3921"/><polygon fill="#181818" points="260.2129,1585.4077,264.2129,1575.4077,268.2129,1585.4077,264.2129,1581.4077" style="stroke:#181818;stroke-width:1.0;"/><line style="stroke:#181818;stroke-width:1.0;" x1="264.2129" x2="264.2129" y1="1526.4233" y2="1624.3921"/><line style="stroke:#181818;stroke-width:1.0;" x1="264.2129" x2="157.9102" y1="1526.4233" y2="1526.4233"/><polygon fill="#181818" points="167.9102,1522.4233,157.9102,1526.4233,167.9102,1530.4233,163.9102,1526.4233" style="stroke:#181818;stroke-width:1.0;"/><line style="stroke:#181818;stroke-width:1.0;" x1="145.9102" x2="145.9102" y1="1592.3921" y2="1612.3921"/><polygon fill="#181818" points="141.9102,1602.3921,145.9102,1612.3921,149.9102,1602.3921,145.9102,1606.3921" style="stroke:#181818;stroke-width:1.0;"/><line style="stroke:#181818;stroke-width:1.0;" x1="145.9102" x2="145.9102" y1="1494.4233" y2="1514.4233"/><polygon fill="#181818" points="141.9102,1504.4233,145.9102,1514.4233,149.9102,1504.4233,145.9102,1508.4233" style="stroke:#181818;stroke-width:1.0;"/><line style="stroke:#181818;stroke-width:1.0;" x1="145.9102" x2="145.9102" y1="1636.3921" y2="1668.1025"/><polygon fill="#181818" points="141.9102,1658.1025,145.9102,1668.1025,149.9102,1658.1025,145.9102,1662.1025" style="stroke:#181818;stroke-width:1.0;"/><line style="stroke:#181818;stroke-width:1.0;" x1="145.9102" x2="145.9102" y1="1746.0713" y2="1766.0713"/><polygon fill="#181818" points="141.9102,1756.0713,145.9102,1766.0713,149.9102,1756.0713,145.9102,1760.0713" style="stroke:#181818;stroke-width:1.0;"/><line style="stroke:#181818;stroke-width:1.0;" x1="252.6885" x2="264.6885" y1="1832.04" y2="1832.04"/><polygon fill="#181818" points="260.6885,1793.0557,264.6885,1783.0557,268.6885,1793.0557,264.6885,1789.0557" style="stroke:#181818;stroke-width:1.0;"/><line style="stroke:#181818;stroke-width:1.0;" x1="264.6885" x2="264.6885" y1="1734.0713" y2="1832.04"/><line style="stroke:#181818;stroke-width:1.0;" x1="264.6885" x2="157.9102" y1="1734.0713" y2="1734.0713"/><polygon fill="#181818" points="167.9102,1730.0713,157.9102,1734.0713,167.9102,1738.0713,163.9102,1734.0713" style="stroke:#181818;stroke-width:1.0;"/><line style="stroke:#181818;stroke-width:1.0;" x1="145.9102" x2="145.9102" y1="1800.04" y2="1820.04"/><polygon fill="#181818" points="141.9102,1810.04,145.9102,1820.04,149.9102,1810.04,145.9102,1814.04" style="stroke:#181818;stroke-width:1.0;"/><line style="stroke:#181818;stroke-width:1.0;" x1="145.9102" x2="145.9102" y1="1702.0713" y2="1722.0713"/><polygon fill="#181818" points="141.9102,1712.0713,145.9102,1722.0713,149.9102,1712.0713,145.9102,1716.0713" style="stroke:#181818;stroke-width:1.0;"/><line style="stroke:#181818;stroke-width:1.0;" x1="145.9102" x2="145.9102" y1="1844.04" y2="1875.7505"/><polygon fill="#181818" points="141.9102,1865.7505,145.9102,1875.7505,149.9102,1865.7505,145.9102,1869.7505" style="stroke:#181818;stroke-width:1.0;"/><line style="stroke:#181818;stroke-width:1.0;" x1="145.9102" x2="145.9102" y1="1909.7192" y2="1929.7192"/><polygon fill="#181818" points="141.9102,1919.7192,145.9102,1929.7192,149.9102,1919.7192,145.9102,1923.7192" style="stroke:#181818;stroke-width:1.0;"/><!--SRC=[hPJBRi8m44Nt-OfPmYyKbQel-gGWeEjecWo9mTYMFIvLlxvE0YNGgWcesKJoN8_ld5p7CLgEehDfyOwd8bE8iX-9ENHkFzZwb2nav8hgHHSu9mMTH-n649xDff5duxaVaNG4dHUYgkfOcuXKAkPHPCaGShLfe5ad9ECXCbaHJeilKQtfKsJzKb1fOPqB6Tfjr71-3ZFhANWGhZe4bEQTbxBrM95V8GkNvF0gkBUhN7jceJAOQIt1IIyOmYHEYKNAa19bZYsfhBVdT4AK9ben9Xnl6iH5WzzyrhJ7UtrGDQibL7ZM9h0Zk4AL_YW- -IN2HBzfFZ1SBCKZ4u-r4ooesVLV6qvY3dTMB4m8JT6XPho-lFi01fTr_F2Exc2aRLfklaN_5vToUa2xWX1w2s6AOD8r81rMgbOqDzfJ0j6AOv6HagD4tECejMl6E6z3SO3XLX-5CTSh0bCHQ61v7wIjG1R2TXItoCk8KRXNnM_e2m00]--></g></svg>